<mxfile host="app.diagrams.net" modified="2024-06-11T11:47:59.812Z" agent="Mozilla/5.0 (Windows NT 10.0; Win64; x64) AppleWebKit/537.36 (KHTML, like Gecko) Chrome/125.0.0.0 Safari/537.36 Edg/125.0.0.0" etag="B2ykBcicf0G8DCzysAxD" version="24.5.2" type="device">
  <diagram name="Pagina-1" id="f8EQWOxGe2zzM4QjnN0i">
    <mxGraphModel dx="2946" dy="1119" grid="1" gridSize="10" guides="1" tooltips="1" connect="1" arrows="1" fold="1" page="1" pageScale="1" pageWidth="1169" pageHeight="827" math="0" shadow="0">
      <root>
        <mxCell id="0" />
        <mxCell id="1" parent="0" />
        <mxCell id="JNVpyMmq69oR40ZpW95g-1" value="HeatmapDataSet" style="shape=table;startSize=25;container=1;collapsible=0;childLayout=tableLayout;fixedRows=1;rowLines=1;fontStyle=1;align=center;resizeLast=1;fillColor=#fff2cc;strokeColor=#d6b656;" vertex="1" parent="1">
          <mxGeometry x="160" y="120" width="120" height="333" as="geometry" />
        </mxCell>
        <mxCell id="JNVpyMmq69oR40ZpW95g-2" style="shape=tableRow;horizontal=0;startSize=0;swimlaneHead=0;swimlaneBody=0;fillColor=none;collapsible=0;dropTarget=0;points=[[0,0.5],[1,0.5]];portConstraint=eastwest;top=0;left=0;right=0;bottom=0;" vertex="1" parent="JNVpyMmq69oR40ZpW95g-1">
          <mxGeometry y="25" width="120" height="22" as="geometry" />
        </mxCell>
        <mxCell id="JNVpyMmq69oR40ZpW95g-3" value="string" style="shape=partialRectangle;connectable=0;fillColor=none;top=0;left=0;bottom=0;right=0;align=left;spacingLeft=2;overflow=hidden;fontSize=11;" vertex="1" parent="JNVpyMmq69oR40ZpW95g-2">
          <mxGeometry width="36" height="22" as="geometry">
            <mxRectangle width="36" height="22" as="alternateBounds" />
          </mxGeometry>
        </mxCell>
        <mxCell id="JNVpyMmq69oR40ZpW95g-4" value="conforms_to" style="shape=partialRectangle;connectable=0;fillColor=none;top=0;left=0;bottom=0;right=0;align=left;spacingLeft=2;overflow=hidden;fontSize=11;" vertex="1" parent="JNVpyMmq69oR40ZpW95g-2">
          <mxGeometry x="36" width="84" height="22" as="geometry">
            <mxRectangle width="84" height="22" as="alternateBounds" />
          </mxGeometry>
        </mxCell>
        <mxCell id="JNVpyMmq69oR40ZpW95g-5" style="shape=tableRow;horizontal=0;startSize=0;swimlaneHead=0;swimlaneBody=0;fillColor=none;collapsible=0;dropTarget=0;points=[[0,0.5],[1,0.5]];portConstraint=eastwest;top=0;left=0;right=0;bottom=0;" vertex="1" parent="JNVpyMmq69oR40ZpW95g-1">
          <mxGeometry y="47" width="120" height="22" as="geometry" />
        </mxCell>
        <mxCell id="JNVpyMmq69oR40ZpW95g-6" value="string" style="shape=partialRectangle;connectable=0;fillColor=none;top=0;left=0;bottom=0;right=0;align=left;spacingLeft=2;overflow=hidden;fontSize=11;" vertex="1" parent="JNVpyMmq69oR40ZpW95g-5">
          <mxGeometry width="36" height="22" as="geometry">
            <mxRectangle width="36" height="22" as="alternateBounds" />
          </mxGeometry>
        </mxCell>
        <mxCell id="JNVpyMmq69oR40ZpW95g-7" value="contributor" style="shape=partialRectangle;connectable=0;fillColor=none;top=0;left=0;bottom=0;right=0;align=left;spacingLeft=2;overflow=hidden;fontSize=11;" vertex="1" parent="JNVpyMmq69oR40ZpW95g-5">
          <mxGeometry x="36" width="84" height="22" as="geometry">
            <mxRectangle width="84" height="22" as="alternateBounds" />
          </mxGeometry>
        </mxCell>
        <mxCell id="JNVpyMmq69oR40ZpW95g-8" style="shape=tableRow;horizontal=0;startSize=0;swimlaneHead=0;swimlaneBody=0;fillColor=none;collapsible=0;dropTarget=0;points=[[0,0.5],[1,0.5]];portConstraint=eastwest;top=0;left=0;right=0;bottom=0;" vertex="1" parent="JNVpyMmq69oR40ZpW95g-1">
          <mxGeometry y="69" width="120" height="22" as="geometry" />
        </mxCell>
        <mxCell id="JNVpyMmq69oR40ZpW95g-9" value="string" style="shape=partialRectangle;connectable=0;fillColor=none;top=0;left=0;bottom=0;right=0;align=left;spacingLeft=2;overflow=hidden;fontSize=11;" vertex="1" parent="JNVpyMmq69oR40ZpW95g-8">
          <mxGeometry width="36" height="22" as="geometry">
            <mxRectangle width="36" height="22" as="alternateBounds" />
          </mxGeometry>
        </mxCell>
        <mxCell id="JNVpyMmq69oR40ZpW95g-10" value="coverage" style="shape=partialRectangle;connectable=0;fillColor=none;top=0;left=0;bottom=0;right=0;align=left;spacingLeft=2;overflow=hidden;fontSize=11;" vertex="1" parent="JNVpyMmq69oR40ZpW95g-8">
          <mxGeometry x="36" width="84" height="22" as="geometry">
            <mxRectangle width="84" height="22" as="alternateBounds" />
          </mxGeometry>
        </mxCell>
        <mxCell id="JNVpyMmq69oR40ZpW95g-11" style="shape=tableRow;horizontal=0;startSize=0;swimlaneHead=0;swimlaneBody=0;fillColor=none;collapsible=0;dropTarget=0;points=[[0,0.5],[1,0.5]];portConstraint=eastwest;top=0;left=0;right=0;bottom=0;" vertex="1" parent="JNVpyMmq69oR40ZpW95g-1">
          <mxGeometry y="91" width="120" height="22" as="geometry" />
        </mxCell>
        <mxCell id="JNVpyMmq69oR40ZpW95g-12" value="string" style="shape=partialRectangle;connectable=0;fillColor=none;top=0;left=0;bottom=0;right=0;align=left;spacingLeft=2;overflow=hidden;fontSize=11;" vertex="1" parent="JNVpyMmq69oR40ZpW95g-11">
          <mxGeometry width="36" height="22" as="geometry">
            <mxRectangle width="36" height="22" as="alternateBounds" />
          </mxGeometry>
        </mxCell>
        <mxCell id="JNVpyMmq69oR40ZpW95g-13" value="creator" style="shape=partialRectangle;connectable=0;fillColor=none;top=0;left=0;bottom=0;right=0;align=left;spacingLeft=2;overflow=hidden;fontSize=11;" vertex="1" parent="JNVpyMmq69oR40ZpW95g-11">
          <mxGeometry x="36" width="84" height="22" as="geometry">
            <mxRectangle width="84" height="22" as="alternateBounds" />
          </mxGeometry>
        </mxCell>
        <mxCell id="JNVpyMmq69oR40ZpW95g-14" style="shape=tableRow;horizontal=0;startSize=0;swimlaneHead=0;swimlaneBody=0;fillColor=none;collapsible=0;dropTarget=0;points=[[0,0.5],[1,0.5]];portConstraint=eastwest;top=0;left=0;right=0;bottom=0;" vertex="1" parent="JNVpyMmq69oR40ZpW95g-1">
          <mxGeometry y="113" width="120" height="22" as="geometry" />
        </mxCell>
        <mxCell id="JNVpyMmq69oR40ZpW95g-15" value="date" style="shape=partialRectangle;connectable=0;fillColor=none;top=0;left=0;bottom=0;right=0;align=left;spacingLeft=2;overflow=hidden;fontSize=11;" vertex="1" parent="JNVpyMmq69oR40ZpW95g-14">
          <mxGeometry width="36" height="22" as="geometry">
            <mxRectangle width="36" height="22" as="alternateBounds" />
          </mxGeometry>
        </mxCell>
        <mxCell id="JNVpyMmq69oR40ZpW95g-16" value="date" style="shape=partialRectangle;connectable=0;fillColor=none;top=0;left=0;bottom=0;right=0;align=left;spacingLeft=2;overflow=hidden;fontSize=11;" vertex="1" parent="JNVpyMmq69oR40ZpW95g-14">
          <mxGeometry x="36" width="84" height="22" as="geometry">
            <mxRectangle width="84" height="22" as="alternateBounds" />
          </mxGeometry>
        </mxCell>
        <mxCell id="JNVpyMmq69oR40ZpW95g-17" style="shape=tableRow;horizontal=0;startSize=0;swimlaneHead=0;swimlaneBody=0;fillColor=none;collapsible=0;dropTarget=0;points=[[0,0.5],[1,0.5]];portConstraint=eastwest;top=0;left=0;right=0;bottom=0;" vertex="1" parent="JNVpyMmq69oR40ZpW95g-1">
          <mxGeometry y="135" width="120" height="22" as="geometry" />
        </mxCell>
        <mxCell id="JNVpyMmq69oR40ZpW95g-18" value="string" style="shape=partialRectangle;connectable=0;fillColor=none;top=0;left=0;bottom=0;right=0;align=left;spacingLeft=2;overflow=hidden;fontSize=11;" vertex="1" parent="JNVpyMmq69oR40ZpW95g-17">
          <mxGeometry width="36" height="22" as="geometry">
            <mxRectangle width="36" height="22" as="alternateBounds" />
          </mxGeometry>
        </mxCell>
        <mxCell id="JNVpyMmq69oR40ZpW95g-19" value="description" style="shape=partialRectangle;connectable=0;fillColor=none;top=0;left=0;bottom=0;right=0;align=left;spacingLeft=2;overflow=hidden;fontSize=11;" vertex="1" parent="JNVpyMmq69oR40ZpW95g-17">
          <mxGeometry x="36" width="84" height="22" as="geometry">
            <mxRectangle width="84" height="22" as="alternateBounds" />
          </mxGeometry>
        </mxCell>
        <mxCell id="JNVpyMmq69oR40ZpW95g-20" style="shape=tableRow;horizontal=0;startSize=0;swimlaneHead=0;swimlaneBody=0;fillColor=none;collapsible=0;dropTarget=0;points=[[0,0.5],[1,0.5]];portConstraint=eastwest;top=0;left=0;right=0;bottom=0;" vertex="1" parent="JNVpyMmq69oR40ZpW95g-1">
          <mxGeometry y="157" width="120" height="22" as="geometry" />
        </mxCell>
        <mxCell id="JNVpyMmq69oR40ZpW95g-21" value="string" style="shape=partialRectangle;connectable=0;fillColor=none;top=0;left=0;bottom=0;right=0;align=left;spacingLeft=2;overflow=hidden;fontSize=11;" vertex="1" parent="JNVpyMmq69oR40ZpW95g-20">
          <mxGeometry width="36" height="22" as="geometry">
            <mxRectangle width="36" height="22" as="alternateBounds" />
          </mxGeometry>
        </mxCell>
        <mxCell id="JNVpyMmq69oR40ZpW95g-22" value="format" style="shape=partialRectangle;connectable=0;fillColor=none;top=0;left=0;bottom=0;right=0;align=left;spacingLeft=2;overflow=hidden;fontSize=11;" vertex="1" parent="JNVpyMmq69oR40ZpW95g-20">
          <mxGeometry x="36" width="84" height="22" as="geometry">
            <mxRectangle width="84" height="22" as="alternateBounds" />
          </mxGeometry>
        </mxCell>
        <mxCell id="JNVpyMmq69oR40ZpW95g-23" style="shape=tableRow;horizontal=0;startSize=0;swimlaneHead=0;swimlaneBody=0;fillColor=none;collapsible=0;dropTarget=0;points=[[0,0.5],[1,0.5]];portConstraint=eastwest;top=0;left=0;right=0;bottom=0;" vertex="1" parent="JNVpyMmq69oR40ZpW95g-1">
          <mxGeometry y="179" width="120" height="22" as="geometry" />
        </mxCell>
        <mxCell id="JNVpyMmq69oR40ZpW95g-24" value="string" style="shape=partialRectangle;connectable=0;fillColor=none;top=0;left=0;bottom=0;right=0;align=left;spacingLeft=2;overflow=hidden;fontSize=11;" vertex="1" parent="JNVpyMmq69oR40ZpW95g-23">
          <mxGeometry width="36" height="22" as="geometry">
            <mxRectangle width="36" height="22" as="alternateBounds" />
          </mxGeometry>
        </mxCell>
        <mxCell id="JNVpyMmq69oR40ZpW95g-25" value="identifier" style="shape=partialRectangle;connectable=0;fillColor=none;top=0;left=0;bottom=0;right=0;align=left;spacingLeft=2;overflow=hidden;fontSize=11;" vertex="1" parent="JNVpyMmq69oR40ZpW95g-23">
          <mxGeometry x="36" width="84" height="22" as="geometry">
            <mxRectangle width="84" height="22" as="alternateBounds" />
          </mxGeometry>
        </mxCell>
        <mxCell id="JNVpyMmq69oR40ZpW95g-26" style="shape=tableRow;horizontal=0;startSize=0;swimlaneHead=0;swimlaneBody=0;fillColor=none;collapsible=0;dropTarget=0;points=[[0,0.5],[1,0.5]];portConstraint=eastwest;top=0;left=0;right=0;bottom=0;" vertex="1" parent="JNVpyMmq69oR40ZpW95g-1">
          <mxGeometry y="201" width="120" height="22" as="geometry" />
        </mxCell>
        <mxCell id="JNVpyMmq69oR40ZpW95g-27" value="date" style="shape=partialRectangle;connectable=0;fillColor=none;top=0;left=0;bottom=0;right=0;align=left;spacingLeft=2;overflow=hidden;fontSize=11;" vertex="1" parent="JNVpyMmq69oR40ZpW95g-26">
          <mxGeometry width="36" height="22" as="geometry">
            <mxRectangle width="36" height="22" as="alternateBounds" />
          </mxGeometry>
        </mxCell>
        <mxCell id="JNVpyMmq69oR40ZpW95g-28" value="issued" style="shape=partialRectangle;connectable=0;fillColor=none;top=0;left=0;bottom=0;right=0;align=left;spacingLeft=2;overflow=hidden;fontSize=11;" vertex="1" parent="JNVpyMmq69oR40ZpW95g-26">
          <mxGeometry x="36" width="84" height="22" as="geometry">
            <mxRectangle width="84" height="22" as="alternateBounds" />
          </mxGeometry>
        </mxCell>
        <mxCell id="JNVpyMmq69oR40ZpW95g-29" style="shape=tableRow;horizontal=0;startSize=0;swimlaneHead=0;swimlaneBody=0;fillColor=none;collapsible=0;dropTarget=0;points=[[0,0.5],[1,0.5]];portConstraint=eastwest;top=0;left=0;right=0;bottom=0;" vertex="1" parent="JNVpyMmq69oR40ZpW95g-1">
          <mxGeometry y="223" width="120" height="22" as="geometry" />
        </mxCell>
        <mxCell id="JNVpyMmq69oR40ZpW95g-30" value="string" style="shape=partialRectangle;connectable=0;fillColor=none;top=0;left=0;bottom=0;right=0;align=left;spacingLeft=2;overflow=hidden;fontSize=11;" vertex="1" parent="JNVpyMmq69oR40ZpW95g-29">
          <mxGeometry width="36" height="22" as="geometry">
            <mxRectangle width="36" height="22" as="alternateBounds" />
          </mxGeometry>
        </mxCell>
        <mxCell id="JNVpyMmq69oR40ZpW95g-31" value="language" style="shape=partialRectangle;connectable=0;fillColor=none;top=0;left=0;bottom=0;right=0;align=left;spacingLeft=2;overflow=hidden;fontSize=11;" vertex="1" parent="JNVpyMmq69oR40ZpW95g-29">
          <mxGeometry x="36" width="84" height="22" as="geometry">
            <mxRectangle width="84" height="22" as="alternateBounds" />
          </mxGeometry>
        </mxCell>
        <mxCell id="JNVpyMmq69oR40ZpW95g-32" style="shape=tableRow;horizontal=0;startSize=0;swimlaneHead=0;swimlaneBody=0;fillColor=none;collapsible=0;dropTarget=0;points=[[0,0.5],[1,0.5]];portConstraint=eastwest;top=0;left=0;right=0;bottom=0;" vertex="1" parent="JNVpyMmq69oR40ZpW95g-1">
          <mxGeometry y="245" width="120" height="22" as="geometry" />
        </mxCell>
        <mxCell id="JNVpyMmq69oR40ZpW95g-33" value="string" style="shape=partialRectangle;connectable=0;fillColor=none;top=0;left=0;bottom=0;right=0;align=left;spacingLeft=2;overflow=hidden;fontSize=11;" vertex="1" parent="JNVpyMmq69oR40ZpW95g-32">
          <mxGeometry width="36" height="22" as="geometry">
            <mxRectangle width="36" height="22" as="alternateBounds" />
          </mxGeometry>
        </mxCell>
        <mxCell id="JNVpyMmq69oR40ZpW95g-34" value="publisher" style="shape=partialRectangle;connectable=0;fillColor=none;top=0;left=0;bottom=0;right=0;align=left;spacingLeft=2;overflow=hidden;fontSize=11;" vertex="1" parent="JNVpyMmq69oR40ZpW95g-32">
          <mxGeometry x="36" width="84" height="22" as="geometry">
            <mxRectangle width="84" height="22" as="alternateBounds" />
          </mxGeometry>
        </mxCell>
        <mxCell id="JNVpyMmq69oR40ZpW95g-35" style="shape=tableRow;horizontal=0;startSize=0;swimlaneHead=0;swimlaneBody=0;fillColor=none;collapsible=0;dropTarget=0;points=[[0,0.5],[1,0.5]];portConstraint=eastwest;top=0;left=0;right=0;bottom=0;" vertex="1" parent="JNVpyMmq69oR40ZpW95g-1">
          <mxGeometry y="267" width="120" height="22" as="geometry" />
        </mxCell>
        <mxCell id="JNVpyMmq69oR40ZpW95g-36" value="string" style="shape=partialRectangle;connectable=0;fillColor=none;top=0;left=0;bottom=0;right=0;align=left;spacingLeft=2;overflow=hidden;fontSize=11;" vertex="1" parent="JNVpyMmq69oR40ZpW95g-35">
          <mxGeometry width="36" height="22" as="geometry">
            <mxRectangle width="36" height="22" as="alternateBounds" />
          </mxGeometry>
        </mxCell>
        <mxCell id="JNVpyMmq69oR40ZpW95g-37" value="rights" style="shape=partialRectangle;connectable=0;fillColor=none;top=0;left=0;bottom=0;right=0;align=left;spacingLeft=2;overflow=hidden;fontSize=11;" vertex="1" parent="JNVpyMmq69oR40ZpW95g-35">
          <mxGeometry x="36" width="84" height="22" as="geometry">
            <mxRectangle width="84" height="22" as="alternateBounds" />
          </mxGeometry>
        </mxCell>
        <mxCell id="JNVpyMmq69oR40ZpW95g-38" style="shape=tableRow;horizontal=0;startSize=0;swimlaneHead=0;swimlaneBody=0;fillColor=none;collapsible=0;dropTarget=0;points=[[0,0.5],[1,0.5]];portConstraint=eastwest;top=0;left=0;right=0;bottom=0;" vertex="1" parent="JNVpyMmq69oR40ZpW95g-1">
          <mxGeometry y="289" width="120" height="22" as="geometry" />
        </mxCell>
        <mxCell id="JNVpyMmq69oR40ZpW95g-39" value="string" style="shape=partialRectangle;connectable=0;fillColor=none;top=0;left=0;bottom=0;right=0;align=left;spacingLeft=2;overflow=hidden;fontSize=11;" vertex="1" parent="JNVpyMmq69oR40ZpW95g-38">
          <mxGeometry width="36" height="22" as="geometry">
            <mxRectangle width="36" height="22" as="alternateBounds" />
          </mxGeometry>
        </mxCell>
        <mxCell id="JNVpyMmq69oR40ZpW95g-40" value="title" style="shape=partialRectangle;connectable=0;fillColor=none;top=0;left=0;bottom=0;right=0;align=left;spacingLeft=2;overflow=hidden;fontSize=11;" vertex="1" parent="JNVpyMmq69oR40ZpW95g-38">
          <mxGeometry x="36" width="84" height="22" as="geometry">
            <mxRectangle width="84" height="22" as="alternateBounds" />
          </mxGeometry>
        </mxCell>
        <mxCell id="JNVpyMmq69oR40ZpW95g-41" style="shape=tableRow;horizontal=0;startSize=0;swimlaneHead=0;swimlaneBody=0;fillColor=none;collapsible=0;dropTarget=0;points=[[0,0.5],[1,0.5]];portConstraint=eastwest;top=0;left=0;right=0;bottom=0;" vertex="1" parent="JNVpyMmq69oR40ZpW95g-1">
          <mxGeometry y="311" width="120" height="22" as="geometry" />
        </mxCell>
        <mxCell id="JNVpyMmq69oR40ZpW95g-42" value="date" style="shape=partialRectangle;connectable=0;fillColor=none;top=0;left=0;bottom=0;right=0;align=left;spacingLeft=2;overflow=hidden;fontSize=11;" vertex="1" parent="JNVpyMmq69oR40ZpW95g-41">
          <mxGeometry width="36" height="22" as="geometry">
            <mxRectangle width="36" height="22" as="alternateBounds" />
          </mxGeometry>
        </mxCell>
        <mxCell id="JNVpyMmq69oR40ZpW95g-43" value="valid" style="shape=partialRectangle;connectable=0;fillColor=none;top=0;left=0;bottom=0;right=0;align=left;spacingLeft=2;overflow=hidden;fontSize=11;" vertex="1" parent="JNVpyMmq69oR40ZpW95g-41">
          <mxGeometry x="36" width="84" height="22" as="geometry">
            <mxRectangle width="84" height="22" as="alternateBounds" />
          </mxGeometry>
        </mxCell>
        <mxCell id="JNVpyMmq69oR40ZpW95g-44" value="Substation" style="shape=table;startSize=25;container=1;collapsible=0;childLayout=tableLayout;fixedRows=1;rowLines=1;fontStyle=1;align=center;resizeLast=1;fillColor=#dae8fc;strokeColor=#6c8ebf;" vertex="1" parent="1">
          <mxGeometry x="440" y="320" width="320" height="663" as="geometry" />
        </mxCell>
        <mxCell id="JNVpyMmq69oR40ZpW95g-45" style="shape=tableRow;horizontal=0;startSize=0;swimlaneHead=0;swimlaneBody=0;fillColor=none;collapsible=0;dropTarget=0;points=[[0,0.5],[1,0.5]];portConstraint=eastwest;top=0;left=0;right=0;bottom=0;" vertex="1" parent="JNVpyMmq69oR40ZpW95g-44">
          <mxGeometry y="25" width="320" height="22" as="geometry" />
        </mxCell>
        <mxCell id="JNVpyMmq69oR40ZpW95g-46" value="SubstationKind" style="shape=partialRectangle;connectable=0;fillColor=none;top=0;left=0;bottom=0;right=0;align=left;spacingLeft=2;overflow=hidden;fontSize=11;" vertex="1" parent="JNVpyMmq69oR40ZpW95g-45">
          <mxGeometry width="108" height="22" as="geometry">
            <mxRectangle width="108" height="22" as="alternateBounds" />
          </mxGeometry>
        </mxCell>
        <mxCell id="JNVpyMmq69oR40ZpW95g-47" value="type" style="shape=partialRectangle;connectable=0;fillColor=none;top=0;left=0;bottom=0;right=0;align=left;spacingLeft=2;overflow=hidden;fontSize=11;" vertex="1" parent="JNVpyMmq69oR40ZpW95g-45">
          <mxGeometry x="108" width="212" height="22" as="geometry">
            <mxRectangle width="212" height="22" as="alternateBounds" />
          </mxGeometry>
        </mxCell>
        <mxCell id="JNVpyMmq69oR40ZpW95g-48" style="shape=tableRow;horizontal=0;startSize=0;swimlaneHead=0;swimlaneBody=0;fillColor=none;collapsible=0;dropTarget=0;points=[[0,0.5],[1,0.5]];portConstraint=eastwest;top=0;left=0;right=0;bottom=0;" vertex="1" parent="JNVpyMmq69oR40ZpW95g-44">
          <mxGeometry y="47" width="320" height="22" as="geometry" />
        </mxCell>
        <mxCell id="JNVpyMmq69oR40ZpW95g-49" value="string" style="shape=partialRectangle;connectable=0;fillColor=none;top=0;left=0;bottom=0;right=0;align=left;spacingLeft=2;overflow=hidden;fontSize=11;" vertex="1" parent="JNVpyMmq69oR40ZpW95g-48">
          <mxGeometry width="108" height="22" as="geometry">
            <mxRectangle width="108" height="22" as="alternateBounds" />
          </mxGeometry>
        </mxCell>
        <mxCell id="JNVpyMmq69oR40ZpW95g-50" value="area" style="shape=partialRectangle;connectable=0;fillColor=none;top=0;left=0;bottom=0;right=0;align=left;spacingLeft=2;overflow=hidden;fontSize=11;" vertex="1" parent="JNVpyMmq69oR40ZpW95g-48">
          <mxGeometry x="108" width="212" height="22" as="geometry">
            <mxRectangle width="212" height="22" as="alternateBounds" />
          </mxGeometry>
        </mxCell>
        <mxCell id="JNVpyMmq69oR40ZpW95g-51" style="shape=tableRow;horizontal=0;startSize=0;swimlaneHead=0;swimlaneBody=0;fillColor=none;collapsible=0;dropTarget=0;points=[[0,0.5],[1,0.5]];portConstraint=eastwest;top=0;left=0;right=0;bottom=0;" vertex="1" parent="JNVpyMmq69oR40ZpW95g-44">
          <mxGeometry y="69" width="320" height="22" as="geometry" />
        </mxCell>
        <mxCell id="JNVpyMmq69oR40ZpW95g-52" value="string" style="shape=partialRectangle;connectable=0;fillColor=none;top=0;left=0;bottom=0;right=0;align=left;spacingLeft=2;overflow=hidden;fontSize=11;" vertex="1" parent="JNVpyMmq69oR40ZpW95g-51">
          <mxGeometry width="108" height="22" as="geometry">
            <mxRectangle width="108" height="22" as="alternateBounds" />
          </mxGeometry>
        </mxCell>
        <mxCell id="JNVpyMmq69oR40ZpW95g-53" value="short_code" style="shape=partialRectangle;connectable=0;fillColor=none;top=0;left=0;bottom=0;right=0;align=left;spacingLeft=2;overflow=hidden;fontSize=11;" vertex="1" parent="JNVpyMmq69oR40ZpW95g-51">
          <mxGeometry x="108" width="212" height="22" as="geometry">
            <mxRectangle width="212" height="22" as="alternateBounds" />
          </mxGeometry>
        </mxCell>
        <mxCell id="JNVpyMmq69oR40ZpW95g-54" style="shape=tableRow;horizontal=0;startSize=0;swimlaneHead=0;swimlaneBody=0;fillColor=none;collapsible=0;dropTarget=0;points=[[0,0.5],[1,0.5]];portConstraint=eastwest;top=0;left=0;right=0;bottom=0;" vertex="1" parent="JNVpyMmq69oR40ZpW95g-44">
          <mxGeometry y="91" width="320" height="22" as="geometry" />
        </mxCell>
        <mxCell id="JNVpyMmq69oR40ZpW95g-55" value="integerList" style="shape=partialRectangle;connectable=0;fillColor=none;top=0;left=0;bottom=0;right=0;align=left;spacingLeft=2;overflow=hidden;fontSize=11;" vertex="1" parent="JNVpyMmq69oR40ZpW95g-54">
          <mxGeometry width="108" height="22" as="geometry">
            <mxRectangle width="108" height="22" as="alternateBounds" />
          </mxGeometry>
        </mxCell>
        <mxCell id="JNVpyMmq69oR40ZpW95g-56" value="voltages" style="shape=partialRectangle;connectable=0;fillColor=none;top=0;left=0;bottom=0;right=0;align=left;spacingLeft=2;overflow=hidden;fontSize=11;" vertex="1" parent="JNVpyMmq69oR40ZpW95g-54">
          <mxGeometry x="108" width="212" height="22" as="geometry">
            <mxRectangle width="212" height="22" as="alternateBounds" />
          </mxGeometry>
        </mxCell>
        <mxCell id="JNVpyMmq69oR40ZpW95g-57" style="shape=tableRow;horizontal=0;startSize=0;swimlaneHead=0;swimlaneBody=0;fillColor=none;collapsible=0;dropTarget=0;points=[[0,0.5],[1,0.5]];portConstraint=eastwest;top=0;left=0;right=0;bottom=0;" vertex="1" parent="JNVpyMmq69oR40ZpW95g-44">
          <mxGeometry y="113" width="320" height="22" as="geometry" />
        </mxCell>
        <mxCell id="JNVpyMmq69oR40ZpW95g-58" value="integer" style="shape=partialRectangle;connectable=0;fillColor=none;top=0;left=0;bottom=0;right=0;align=left;spacingLeft=2;overflow=hidden;fontSize=11;" vertex="1" parent="JNVpyMmq69oR40ZpW95g-57">
          <mxGeometry width="108" height="22" as="geometry">
            <mxRectangle width="108" height="22" as="alternateBounds" />
          </mxGeometry>
        </mxCell>
        <mxCell id="JNVpyMmq69oR40ZpW95g-59" value="requests_in_queue" style="shape=partialRectangle;connectable=0;fillColor=none;top=0;left=0;bottom=0;right=0;align=left;spacingLeft=2;overflow=hidden;fontSize=11;" vertex="1" parent="JNVpyMmq69oR40ZpW95g-57">
          <mxGeometry x="108" width="212" height="22" as="geometry">
            <mxRectangle width="212" height="22" as="alternateBounds" />
          </mxGeometry>
        </mxCell>
        <mxCell id="JNVpyMmq69oR40ZpW95g-60" style="shape=tableRow;horizontal=0;startSize=0;swimlaneHead=0;swimlaneBody=0;fillColor=none;collapsible=0;dropTarget=0;points=[[0,0.5],[1,0.5]];portConstraint=eastwest;top=0;left=0;right=0;bottom=0;" vertex="1" parent="JNVpyMmq69oR40ZpW95g-44">
          <mxGeometry y="135" width="320" height="22" as="geometry" />
        </mxCell>
        <mxCell id="JNVpyMmq69oR40ZpW95g-61" value="MegaW" style="shape=partialRectangle;connectable=0;fillColor=none;top=0;left=0;bottom=0;right=0;align=left;spacingLeft=2;overflow=hidden;fontSize=11;" vertex="1" parent="JNVpyMmq69oR40ZpW95g-60">
          <mxGeometry width="108" height="22" as="geometry">
            <mxRectangle width="108" height="22" as="alternateBounds" />
          </mxGeometry>
        </mxCell>
        <mxCell id="JNVpyMmq69oR40ZpW95g-62" value="demand_firm_capacity" style="shape=partialRectangle;connectable=0;fillColor=none;top=0;left=0;bottom=0;right=0;align=left;spacingLeft=2;overflow=hidden;fontSize=11;" vertex="1" parent="JNVpyMmq69oR40ZpW95g-60">
          <mxGeometry x="108" width="212" height="22" as="geometry">
            <mxRectangle width="212" height="22" as="alternateBounds" />
          </mxGeometry>
        </mxCell>
        <mxCell id="JNVpyMmq69oR40ZpW95g-63" style="shape=tableRow;horizontal=0;startSize=0;swimlaneHead=0;swimlaneBody=0;fillColor=none;collapsible=0;dropTarget=0;points=[[0,0.5],[1,0.5]];portConstraint=eastwest;top=0;left=0;right=0;bottom=0;" vertex="1" parent="JNVpyMmq69oR40ZpW95g-44">
          <mxGeometry y="157" width="320" height="22" as="geometry" />
        </mxCell>
        <mxCell id="JNVpyMmq69oR40ZpW95g-64" value="MegaW" style="shape=partialRectangle;connectable=0;fillColor=none;top=0;left=0;bottom=0;right=0;align=left;spacingLeft=2;overflow=hidden;fontSize=11;" vertex="1" parent="JNVpyMmq69oR40ZpW95g-63">
          <mxGeometry width="108" height="22" as="geometry">
            <mxRectangle width="108" height="22" as="alternateBounds" />
          </mxGeometry>
        </mxCell>
        <mxCell id="JNVpyMmq69oR40ZpW95g-65" value="demand_contracted_capacity" style="shape=partialRectangle;connectable=0;fillColor=none;top=0;left=0;bottom=0;right=0;align=left;spacingLeft=2;overflow=hidden;fontSize=11;" vertex="1" parent="JNVpyMmq69oR40ZpW95g-63">
          <mxGeometry x="108" width="212" height="22" as="geometry">
            <mxRectangle width="212" height="22" as="alternateBounds" />
          </mxGeometry>
        </mxCell>
        <mxCell id="JNVpyMmq69oR40ZpW95g-66" style="shape=tableRow;horizontal=0;startSize=0;swimlaneHead=0;swimlaneBody=0;fillColor=none;collapsible=0;dropTarget=0;points=[[0,0.5],[1,0.5]];portConstraint=eastwest;top=0;left=0;right=0;bottom=0;" vertex="1" parent="JNVpyMmq69oR40ZpW95g-44">
          <mxGeometry y="179" width="320" height="22" as="geometry" />
        </mxCell>
        <mxCell id="JNVpyMmq69oR40ZpW95g-67" value="MegaW" style="shape=partialRectangle;connectable=0;fillColor=none;top=0;left=0;bottom=0;right=0;align=left;spacingLeft=2;overflow=hidden;fontSize=11;" vertex="1" parent="JNVpyMmq69oR40ZpW95g-66">
          <mxGeometry width="108" height="22" as="geometry">
            <mxRectangle width="108" height="22" as="alternateBounds" />
          </mxGeometry>
        </mxCell>
        <mxCell id="JNVpyMmq69oR40ZpW95g-68" value="demand_connected_capacity" style="shape=partialRectangle;connectable=0;fillColor=none;top=0;left=0;bottom=0;right=0;align=left;spacingLeft=2;overflow=hidden;fontSize=11;" vertex="1" parent="JNVpyMmq69oR40ZpW95g-66">
          <mxGeometry x="108" width="212" height="22" as="geometry">
            <mxRectangle width="212" height="22" as="alternateBounds" />
          </mxGeometry>
        </mxCell>
        <mxCell id="JNVpyMmq69oR40ZpW95g-69" style="shape=tableRow;horizontal=0;startSize=0;swimlaneHead=0;swimlaneBody=0;fillColor=none;collapsible=0;dropTarget=0;points=[[0,0.5],[1,0.5]];portConstraint=eastwest;top=0;left=0;right=0;bottom=0;" vertex="1" parent="JNVpyMmq69oR40ZpW95g-44">
          <mxGeometry y="201" width="320" height="22" as="geometry" />
        </mxCell>
        <mxCell id="JNVpyMmq69oR40ZpW95g-70" value="MegaW" style="shape=partialRectangle;connectable=0;fillColor=none;top=0;left=0;bottom=0;right=0;align=left;spacingLeft=2;overflow=hidden;fontSize=11;" vertex="1" parent="JNVpyMmq69oR40ZpW95g-69">
          <mxGeometry width="108" height="22" as="geometry">
            <mxRectangle width="108" height="22" as="alternateBounds" />
          </mxGeometry>
        </mxCell>
        <mxCell id="JNVpyMmq69oR40ZpW95g-71" value="demand_quoted_capacity" style="shape=partialRectangle;connectable=0;fillColor=none;top=0;left=0;bottom=0;right=0;align=left;spacingLeft=2;overflow=hidden;fontSize=11;" vertex="1" parent="JNVpyMmq69oR40ZpW95g-69">
          <mxGeometry x="108" width="212" height="22" as="geometry">
            <mxRectangle width="212" height="22" as="alternateBounds" />
          </mxGeometry>
        </mxCell>
        <mxCell id="JNVpyMmq69oR40ZpW95g-72" style="shape=tableRow;horizontal=0;startSize=0;swimlaneHead=0;swimlaneBody=0;fillColor=none;collapsible=0;dropTarget=0;points=[[0,0.5],[1,0.5]];portConstraint=eastwest;top=0;left=0;right=0;bottom=0;" vertex="1" parent="JNVpyMmq69oR40ZpW95g-44">
          <mxGeometry y="223" width="320" height="22" as="geometry" />
        </mxCell>
        <mxCell id="JNVpyMmq69oR40ZpW95g-73" value="MegaW" style="shape=partialRectangle;connectable=0;fillColor=none;top=0;left=0;bottom=0;right=0;align=left;spacingLeft=2;overflow=hidden;fontSize=11;" vertex="1" parent="JNVpyMmq69oR40ZpW95g-72">
          <mxGeometry width="108" height="22" as="geometry">
            <mxRectangle width="108" height="22" as="alternateBounds" />
          </mxGeometry>
        </mxCell>
        <mxCell id="JNVpyMmq69oR40ZpW95g-74" value="demand_available_capacity" style="shape=partialRectangle;connectable=0;fillColor=none;top=0;left=0;bottom=0;right=0;align=left;spacingLeft=2;overflow=hidden;fontSize=11;" vertex="1" parent="JNVpyMmq69oR40ZpW95g-72">
          <mxGeometry x="108" width="212" height="22" as="geometry">
            <mxRectangle width="212" height="22" as="alternateBounds" />
          </mxGeometry>
        </mxCell>
        <mxCell id="JNVpyMmq69oR40ZpW95g-75" style="shape=tableRow;horizontal=0;startSize=0;swimlaneHead=0;swimlaneBody=0;fillColor=none;collapsible=0;dropTarget=0;points=[[0,0.5],[1,0.5]];portConstraint=eastwest;top=0;left=0;right=0;bottom=0;" vertex="1" parent="JNVpyMmq69oR40ZpW95g-44">
          <mxGeometry y="245" width="320" height="22" as="geometry" />
        </mxCell>
        <mxCell id="JNVpyMmq69oR40ZpW95g-76" value="MegaW" style="shape=partialRectangle;connectable=0;fillColor=none;top=0;left=0;bottom=0;right=0;align=left;spacingLeft=2;overflow=hidden;fontSize=11;" vertex="1" parent="JNVpyMmq69oR40ZpW95g-75">
          <mxGeometry width="108" height="22" as="geometry">
            <mxRectangle width="108" height="22" as="alternateBounds" />
          </mxGeometry>
        </mxCell>
        <mxCell id="JNVpyMmq69oR40ZpW95g-77" value="demand_maximum" style="shape=partialRectangle;connectable=0;fillColor=none;top=0;left=0;bottom=0;right=0;align=left;spacingLeft=2;overflow=hidden;fontSize=11;" vertex="1" parent="JNVpyMmq69oR40ZpW95g-75">
          <mxGeometry x="108" width="212" height="22" as="geometry">
            <mxRectangle width="212" height="22" as="alternateBounds" />
          </mxGeometry>
        </mxCell>
        <mxCell id="JNVpyMmq69oR40ZpW95g-78" style="shape=tableRow;horizontal=0;startSize=0;swimlaneHead=0;swimlaneBody=0;fillColor=none;collapsible=0;dropTarget=0;points=[[0,0.5],[1,0.5]];portConstraint=eastwest;top=0;left=0;right=0;bottom=0;" vertex="1" parent="JNVpyMmq69oR40ZpW95g-44">
          <mxGeometry y="267" width="320" height="22" as="geometry" />
        </mxCell>
        <mxCell id="JNVpyMmq69oR40ZpW95g-79" value="MegaW" style="shape=partialRectangle;connectable=0;fillColor=none;top=0;left=0;bottom=0;right=0;align=left;spacingLeft=2;overflow=hidden;fontSize=11;" vertex="1" parent="JNVpyMmq69oR40ZpW95g-78">
          <mxGeometry width="108" height="22" as="geometry">
            <mxRectangle width="108" height="22" as="alternateBounds" />
          </mxGeometry>
        </mxCell>
        <mxCell id="JNVpyMmq69oR40ZpW95g-80" value="demand_minimum" style="shape=partialRectangle;connectable=0;fillColor=none;top=0;left=0;bottom=0;right=0;align=left;spacingLeft=2;overflow=hidden;fontSize=11;" vertex="1" parent="JNVpyMmq69oR40ZpW95g-78">
          <mxGeometry x="108" width="212" height="22" as="geometry">
            <mxRectangle width="212" height="22" as="alternateBounds" />
          </mxGeometry>
        </mxCell>
        <mxCell id="JNVpyMmq69oR40ZpW95g-81" style="shape=tableRow;horizontal=0;startSize=0;swimlaneHead=0;swimlaneBody=0;fillColor=none;collapsible=0;dropTarget=0;points=[[0,0.5],[1,0.5]];portConstraint=eastwest;top=0;left=0;right=0;bottom=0;" vertex="1" parent="JNVpyMmq69oR40ZpW95g-44">
          <mxGeometry y="289" width="320" height="22" as="geometry" />
        </mxCell>
        <mxCell id="JNVpyMmq69oR40ZpW95g-82" value="MegaW" style="shape=partialRectangle;connectable=0;fillColor=none;top=0;left=0;bottom=0;right=0;align=left;spacingLeft=2;overflow=hidden;fontSize=11;" vertex="1" parent="JNVpyMmq69oR40ZpW95g-81">
          <mxGeometry width="108" height="22" as="geometry">
            <mxRectangle width="108" height="22" as="alternateBounds" />
          </mxGeometry>
        </mxCell>
        <mxCell id="JNVpyMmq69oR40ZpW95g-83" value="demand_99_percentile" style="shape=partialRectangle;connectable=0;fillColor=none;top=0;left=0;bottom=0;right=0;align=left;spacingLeft=2;overflow=hidden;fontSize=11;" vertex="1" parent="JNVpyMmq69oR40ZpW95g-81">
          <mxGeometry x="108" width="212" height="22" as="geometry">
            <mxRectangle width="212" height="22" as="alternateBounds" />
          </mxGeometry>
        </mxCell>
        <mxCell id="JNVpyMmq69oR40ZpW95g-84" style="shape=tableRow;horizontal=0;startSize=0;swimlaneHead=0;swimlaneBody=0;fillColor=none;collapsible=0;dropTarget=0;points=[[0,0.5],[1,0.5]];portConstraint=eastwest;top=0;left=0;right=0;bottom=0;" vertex="1" parent="JNVpyMmq69oR40ZpW95g-44">
          <mxGeometry y="311" width="320" height="22" as="geometry" />
        </mxCell>
        <mxCell id="JNVpyMmq69oR40ZpW95g-85" value="MegaW" style="shape=partialRectangle;connectable=0;fillColor=none;top=0;left=0;bottom=0;right=0;align=left;spacingLeft=2;overflow=hidden;fontSize=11;" vertex="1" parent="JNVpyMmq69oR40ZpW95g-84">
          <mxGeometry width="108" height="22" as="geometry">
            <mxRectangle width="108" height="22" as="alternateBounds" />
          </mxGeometry>
        </mxCell>
        <mxCell id="JNVpyMmq69oR40ZpW95g-86" value="demand_75_percentile" style="shape=partialRectangle;connectable=0;fillColor=none;top=0;left=0;bottom=0;right=0;align=left;spacingLeft=2;overflow=hidden;fontSize=11;" vertex="1" parent="JNVpyMmq69oR40ZpW95g-84">
          <mxGeometry x="108" width="212" height="22" as="geometry">
            <mxRectangle width="212" height="22" as="alternateBounds" />
          </mxGeometry>
        </mxCell>
        <mxCell id="JNVpyMmq69oR40ZpW95g-87" style="shape=tableRow;horizontal=0;startSize=0;swimlaneHead=0;swimlaneBody=0;fillColor=none;collapsible=0;dropTarget=0;points=[[0,0.5],[1,0.5]];portConstraint=eastwest;top=0;left=0;right=0;bottom=0;" vertex="1" parent="JNVpyMmq69oR40ZpW95g-44">
          <mxGeometry y="333" width="320" height="22" as="geometry" />
        </mxCell>
        <mxCell id="JNVpyMmq69oR40ZpW95g-88" value="MegaW" style="shape=partialRectangle;connectable=0;fillColor=none;top=0;left=0;bottom=0;right=0;align=left;spacingLeft=2;overflow=hidden;fontSize=11;" vertex="1" parent="JNVpyMmq69oR40ZpW95g-87">
          <mxGeometry width="108" height="22" as="geometry">
            <mxRectangle width="108" height="22" as="alternateBounds" />
          </mxGeometry>
        </mxCell>
        <mxCell id="JNVpyMmq69oR40ZpW95g-89" value="demand_50_percentile" style="shape=partialRectangle;connectable=0;fillColor=none;top=0;left=0;bottom=0;right=0;align=left;spacingLeft=2;overflow=hidden;fontSize=11;" vertex="1" parent="JNVpyMmq69oR40ZpW95g-87">
          <mxGeometry x="108" width="212" height="22" as="geometry">
            <mxRectangle width="212" height="22" as="alternateBounds" />
          </mxGeometry>
        </mxCell>
        <mxCell id="JNVpyMmq69oR40ZpW95g-90" style="shape=tableRow;horizontal=0;startSize=0;swimlaneHead=0;swimlaneBody=0;fillColor=none;collapsible=0;dropTarget=0;points=[[0,0.5],[1,0.5]];portConstraint=eastwest;top=0;left=0;right=0;bottom=0;" vertex="1" parent="JNVpyMmq69oR40ZpW95g-44">
          <mxGeometry y="355" width="320" height="22" as="geometry" />
        </mxCell>
        <mxCell id="JNVpyMmq69oR40ZpW95g-91" value="MegaW" style="shape=partialRectangle;connectable=0;fillColor=none;top=0;left=0;bottom=0;right=0;align=left;spacingLeft=2;overflow=hidden;fontSize=11;" vertex="1" parent="JNVpyMmq69oR40ZpW95g-90">
          <mxGeometry width="108" height="22" as="geometry">
            <mxRectangle width="108" height="22" as="alternateBounds" />
          </mxGeometry>
        </mxCell>
        <mxCell id="JNVpyMmq69oR40ZpW95g-92" value="demand_25_percentile" style="shape=partialRectangle;connectable=0;fillColor=none;top=0;left=0;bottom=0;right=0;align=left;spacingLeft=2;overflow=hidden;fontSize=11;" vertex="1" parent="JNVpyMmq69oR40ZpW95g-90">
          <mxGeometry x="108" width="212" height="22" as="geometry">
            <mxRectangle width="212" height="22" as="alternateBounds" />
          </mxGeometry>
        </mxCell>
        <mxCell id="JNVpyMmq69oR40ZpW95g-93" style="shape=tableRow;horizontal=0;startSize=0;swimlaneHead=0;swimlaneBody=0;fillColor=none;collapsible=0;dropTarget=0;points=[[0,0.5],[1,0.5]];portConstraint=eastwest;top=0;left=0;right=0;bottom=0;" vertex="1" parent="JNVpyMmq69oR40ZpW95g-44">
          <mxGeometry y="377" width="320" height="22" as="geometry" />
        </mxCell>
        <mxCell id="JNVpyMmq69oR40ZpW95g-94" value="RAGKind" style="shape=partialRectangle;connectable=0;fillColor=none;top=0;left=0;bottom=0;right=0;align=left;spacingLeft=2;overflow=hidden;fontSize=11;" vertex="1" parent="JNVpyMmq69oR40ZpW95g-93">
          <mxGeometry width="108" height="22" as="geometry">
            <mxRectangle width="108" height="22" as="alternateBounds" />
          </mxGeometry>
        </mxCell>
        <mxCell id="JNVpyMmq69oR40ZpW95g-95" value="demand_constraint" style="shape=partialRectangle;connectable=0;fillColor=none;top=0;left=0;bottom=0;right=0;align=left;spacingLeft=2;overflow=hidden;fontSize=11;" vertex="1" parent="JNVpyMmq69oR40ZpW95g-93">
          <mxGeometry x="108" width="212" height="22" as="geometry">
            <mxRectangle width="212" height="22" as="alternateBounds" />
          </mxGeometry>
        </mxCell>
        <mxCell id="JNVpyMmq69oR40ZpW95g-96" style="shape=tableRow;horizontal=0;startSize=0;swimlaneHead=0;swimlaneBody=0;fillColor=none;collapsible=0;dropTarget=0;points=[[0,0.5],[1,0.5]];portConstraint=eastwest;top=0;left=0;right=0;bottom=0;" vertex="1" parent="JNVpyMmq69oR40ZpW95g-44">
          <mxGeometry y="399" width="320" height="22" as="geometry" />
        </mxCell>
        <mxCell id="JNVpyMmq69oR40ZpW95g-97" value="LimitingFactorKind" style="shape=partialRectangle;connectable=0;fillColor=none;top=0;left=0;bottom=0;right=0;align=left;spacingLeft=2;overflow=hidden;fontSize=11;" vertex="1" parent="JNVpyMmq69oR40ZpW95g-96">
          <mxGeometry width="108" height="22" as="geometry">
            <mxRectangle width="108" height="22" as="alternateBounds" />
          </mxGeometry>
        </mxCell>
        <mxCell id="JNVpyMmq69oR40ZpW95g-98" value="demand_constraint_limiting_factor" style="shape=partialRectangle;connectable=0;fillColor=none;top=0;left=0;bottom=0;right=0;align=left;spacingLeft=2;overflow=hidden;fontSize=11;" vertex="1" parent="JNVpyMmq69oR40ZpW95g-96">
          <mxGeometry x="108" width="212" height="22" as="geometry">
            <mxRectangle width="212" height="22" as="alternateBounds" />
          </mxGeometry>
        </mxCell>
        <mxCell id="JNVpyMmq69oR40ZpW95g-99" style="shape=tableRow;horizontal=0;startSize=0;swimlaneHead=0;swimlaneBody=0;fillColor=none;collapsible=0;dropTarget=0;points=[[0,0.5],[1,0.5]];portConstraint=eastwest;top=0;left=0;right=0;bottom=0;" vertex="1" parent="JNVpyMmq69oR40ZpW95g-44">
          <mxGeometry y="421" width="320" height="22" as="geometry" />
        </mxCell>
        <mxCell id="JNVpyMmq69oR40ZpW95g-100" value="MegaW" style="shape=partialRectangle;connectable=0;fillColor=none;top=0;left=0;bottom=0;right=0;align=left;spacingLeft=2;overflow=hidden;fontSize=11;" vertex="1" parent="JNVpyMmq69oR40ZpW95g-99">
          <mxGeometry width="108" height="22" as="geometry">
            <mxRectangle width="108" height="22" as="alternateBounds" />
          </mxGeometry>
        </mxCell>
        <mxCell id="JNVpyMmq69oR40ZpW95g-101" value="generation_firm_capacity" style="shape=partialRectangle;connectable=0;fillColor=none;top=0;left=0;bottom=0;right=0;align=left;spacingLeft=2;overflow=hidden;fontSize=11;" vertex="1" parent="JNVpyMmq69oR40ZpW95g-99">
          <mxGeometry x="108" width="212" height="22" as="geometry">
            <mxRectangle width="212" height="22" as="alternateBounds" />
          </mxGeometry>
        </mxCell>
        <mxCell id="JNVpyMmq69oR40ZpW95g-102" style="shape=tableRow;horizontal=0;startSize=0;swimlaneHead=0;swimlaneBody=0;fillColor=none;collapsible=0;dropTarget=0;points=[[0,0.5],[1,0.5]];portConstraint=eastwest;top=0;left=0;right=0;bottom=0;" vertex="1" parent="JNVpyMmq69oR40ZpW95g-44">
          <mxGeometry y="443" width="320" height="22" as="geometry" />
        </mxCell>
        <mxCell id="JNVpyMmq69oR40ZpW95g-103" value="MegaW" style="shape=partialRectangle;connectable=0;fillColor=none;top=0;left=0;bottom=0;right=0;align=left;spacingLeft=2;overflow=hidden;fontSize=11;" vertex="1" parent="JNVpyMmq69oR40ZpW95g-102">
          <mxGeometry width="108" height="22" as="geometry">
            <mxRectangle width="108" height="22" as="alternateBounds" />
          </mxGeometry>
        </mxCell>
        <mxCell id="JNVpyMmq69oR40ZpW95g-104" value="generation_connected_capacity" style="shape=partialRectangle;connectable=0;fillColor=none;top=0;left=0;bottom=0;right=0;align=left;spacingLeft=2;overflow=hidden;fontSize=11;" vertex="1" parent="JNVpyMmq69oR40ZpW95g-102">
          <mxGeometry x="108" width="212" height="22" as="geometry">
            <mxRectangle width="212" height="22" as="alternateBounds" />
          </mxGeometry>
        </mxCell>
        <mxCell id="JNVpyMmq69oR40ZpW95g-105" style="shape=tableRow;horizontal=0;startSize=0;swimlaneHead=0;swimlaneBody=0;fillColor=none;collapsible=0;dropTarget=0;points=[[0,0.5],[1,0.5]];portConstraint=eastwest;top=0;left=0;right=0;bottom=0;" vertex="1" parent="JNVpyMmq69oR40ZpW95g-44">
          <mxGeometry y="465" width="320" height="22" as="geometry" />
        </mxCell>
        <mxCell id="JNVpyMmq69oR40ZpW95g-106" value="MegaW" style="shape=partialRectangle;connectable=0;fillColor=none;top=0;left=0;bottom=0;right=0;align=left;spacingLeft=2;overflow=hidden;fontSize=11;" vertex="1" parent="JNVpyMmq69oR40ZpW95g-105">
          <mxGeometry width="108" height="22" as="geometry">
            <mxRectangle width="108" height="22" as="alternateBounds" />
          </mxGeometry>
        </mxCell>
        <mxCell id="JNVpyMmq69oR40ZpW95g-107" value="generation_contracted_capacity" style="shape=partialRectangle;connectable=0;fillColor=none;top=0;left=0;bottom=0;right=0;align=left;spacingLeft=2;overflow=hidden;fontSize=11;" vertex="1" parent="JNVpyMmq69oR40ZpW95g-105">
          <mxGeometry x="108" width="212" height="22" as="geometry">
            <mxRectangle width="212" height="22" as="alternateBounds" />
          </mxGeometry>
        </mxCell>
        <mxCell id="JNVpyMmq69oR40ZpW95g-108" style="shape=tableRow;horizontal=0;startSize=0;swimlaneHead=0;swimlaneBody=0;fillColor=none;collapsible=0;dropTarget=0;points=[[0,0.5],[1,0.5]];portConstraint=eastwest;top=0;left=0;right=0;bottom=0;" vertex="1" parent="JNVpyMmq69oR40ZpW95g-44">
          <mxGeometry y="487" width="320" height="22" as="geometry" />
        </mxCell>
        <mxCell id="JNVpyMmq69oR40ZpW95g-109" value="MegaW" style="shape=partialRectangle;connectable=0;fillColor=none;top=0;left=0;bottom=0;right=0;align=left;spacingLeft=2;overflow=hidden;fontSize=11;" vertex="1" parent="JNVpyMmq69oR40ZpW95g-108">
          <mxGeometry width="108" height="22" as="geometry">
            <mxRectangle width="108" height="22" as="alternateBounds" />
          </mxGeometry>
        </mxCell>
        <mxCell id="JNVpyMmq69oR40ZpW95g-110" value="generation_quoted_capacity" style="shape=partialRectangle;connectable=0;fillColor=none;top=0;left=0;bottom=0;right=0;align=left;spacingLeft=2;overflow=hidden;fontSize=11;" vertex="1" parent="JNVpyMmq69oR40ZpW95g-108">
          <mxGeometry x="108" width="212" height="22" as="geometry">
            <mxRectangle width="212" height="22" as="alternateBounds" />
          </mxGeometry>
        </mxCell>
        <mxCell id="JNVpyMmq69oR40ZpW95g-111" style="shape=tableRow;horizontal=0;startSize=0;swimlaneHead=0;swimlaneBody=0;fillColor=none;collapsible=0;dropTarget=0;points=[[0,0.5],[1,0.5]];portConstraint=eastwest;top=0;left=0;right=0;bottom=0;" vertex="1" parent="JNVpyMmq69oR40ZpW95g-44">
          <mxGeometry y="509" width="320" height="22" as="geometry" />
        </mxCell>
        <mxCell id="JNVpyMmq69oR40ZpW95g-112" value="MegaW" style="shape=partialRectangle;connectable=0;fillColor=none;top=0;left=0;bottom=0;right=0;align=left;spacingLeft=2;overflow=hidden;fontSize=11;" vertex="1" parent="JNVpyMmq69oR40ZpW95g-111">
          <mxGeometry width="108" height="22" as="geometry">
            <mxRectangle width="108" height="22" as="alternateBounds" />
          </mxGeometry>
        </mxCell>
        <mxCell id="JNVpyMmq69oR40ZpW95g-113" value="generation_available_capacity" style="shape=partialRectangle;connectable=0;fillColor=none;top=0;left=0;bottom=0;right=0;align=left;spacingLeft=2;overflow=hidden;fontSize=11;" vertex="1" parent="JNVpyMmq69oR40ZpW95g-111">
          <mxGeometry x="108" width="212" height="22" as="geometry">
            <mxRectangle width="212" height="22" as="alternateBounds" />
          </mxGeometry>
        </mxCell>
        <mxCell id="JNVpyMmq69oR40ZpW95g-114" style="shape=tableRow;horizontal=0;startSize=0;swimlaneHead=0;swimlaneBody=0;fillColor=none;collapsible=0;dropTarget=0;points=[[0,0.5],[1,0.5]];portConstraint=eastwest;top=0;left=0;right=0;bottom=0;" vertex="1" parent="JNVpyMmq69oR40ZpW95g-44">
          <mxGeometry y="531" width="320" height="22" as="geometry" />
        </mxCell>
        <mxCell id="JNVpyMmq69oR40ZpW95g-115" value="RAGKind" style="shape=partialRectangle;connectable=0;fillColor=none;top=0;left=0;bottom=0;right=0;align=left;spacingLeft=2;overflow=hidden;fontSize=11;" vertex="1" parent="JNVpyMmq69oR40ZpW95g-114">
          <mxGeometry width="108" height="22" as="geometry">
            <mxRectangle width="108" height="22" as="alternateBounds" />
          </mxGeometry>
        </mxCell>
        <mxCell id="JNVpyMmq69oR40ZpW95g-116" value="generation_constraint" style="shape=partialRectangle;connectable=0;fillColor=none;top=0;left=0;bottom=0;right=0;align=left;spacingLeft=2;overflow=hidden;fontSize=11;" vertex="1" parent="JNVpyMmq69oR40ZpW95g-114">
          <mxGeometry x="108" width="212" height="22" as="geometry">
            <mxRectangle width="212" height="22" as="alternateBounds" />
          </mxGeometry>
        </mxCell>
        <mxCell id="JNVpyMmq69oR40ZpW95g-117" style="shape=tableRow;horizontal=0;startSize=0;swimlaneHead=0;swimlaneBody=0;fillColor=none;collapsible=0;dropTarget=0;points=[[0,0.5],[1,0.5]];portConstraint=eastwest;top=0;left=0;right=0;bottom=0;" vertex="1" parent="JNVpyMmq69oR40ZpW95g-44">
          <mxGeometry y="553" width="320" height="22" as="geometry" />
        </mxCell>
        <mxCell id="JNVpyMmq69oR40ZpW95g-118" value="LimitingFactorKind" style="shape=partialRectangle;connectable=0;fillColor=none;top=0;left=0;bottom=0;right=0;align=left;spacingLeft=2;overflow=hidden;fontSize=11;" vertex="1" parent="JNVpyMmq69oR40ZpW95g-117">
          <mxGeometry width="108" height="22" as="geometry">
            <mxRectangle width="108" height="22" as="alternateBounds" />
          </mxGeometry>
        </mxCell>
        <mxCell id="JNVpyMmq69oR40ZpW95g-119" value="generation_constraint_limiting_factor" style="shape=partialRectangle;connectable=0;fillColor=none;top=0;left=0;bottom=0;right=0;align=left;spacingLeft=2;overflow=hidden;fontSize=11;" vertex="1" parent="JNVpyMmq69oR40ZpW95g-117">
          <mxGeometry x="108" width="212" height="22" as="geometry">
            <mxRectangle width="212" height="22" as="alternateBounds" />
          </mxGeometry>
        </mxCell>
        <mxCell id="JNVpyMmq69oR40ZpW95g-120" style="shape=tableRow;horizontal=0;startSize=0;swimlaneHead=0;swimlaneBody=0;fillColor=none;collapsible=0;dropTarget=0;points=[[0,0.5],[1,0.5]];portConstraint=eastwest;top=0;left=0;right=0;bottom=0;" vertex="1" parent="JNVpyMmq69oR40ZpW95g-44">
          <mxGeometry y="575" width="320" height="22" as="geometry" />
        </mxCell>
        <mxCell id="JNVpyMmq69oR40ZpW95g-121" value="MegaW" style="shape=partialRectangle;connectable=0;fillColor=none;top=0;left=0;bottom=0;right=0;align=left;spacingLeft=2;overflow=hidden;fontSize=11;" vertex="1" parent="JNVpyMmq69oR40ZpW95g-120">
          <mxGeometry width="108" height="22" as="geometry">
            <mxRectangle width="108" height="22" as="alternateBounds" />
          </mxGeometry>
        </mxCell>
        <mxCell id="JNVpyMmq69oR40ZpW95g-122" value="reverse_power_flow_total_capacity" style="shape=partialRectangle;connectable=0;fillColor=none;top=0;left=0;bottom=0;right=0;align=left;spacingLeft=2;overflow=hidden;fontSize=11;" vertex="1" parent="JNVpyMmq69oR40ZpW95g-120">
          <mxGeometry x="108" width="212" height="22" as="geometry">
            <mxRectangle width="212" height="22" as="alternateBounds" />
          </mxGeometry>
        </mxCell>
        <mxCell id="JNVpyMmq69oR40ZpW95g-123" style="shape=tableRow;horizontal=0;startSize=0;swimlaneHead=0;swimlaneBody=0;fillColor=none;collapsible=0;dropTarget=0;points=[[0,0.5],[1,0.5]];portConstraint=eastwest;top=0;left=0;right=0;bottom=0;" vertex="1" parent="JNVpyMmq69oR40ZpW95g-44">
          <mxGeometry y="597" width="320" height="22" as="geometry" />
        </mxCell>
        <mxCell id="JNVpyMmq69oR40ZpW95g-124" value="MegaW" style="shape=partialRectangle;connectable=0;fillColor=none;top=0;left=0;bottom=0;right=0;align=left;spacingLeft=2;overflow=hidden;fontSize=11;" vertex="1" parent="JNVpyMmq69oR40ZpW95g-123">
          <mxGeometry width="108" height="22" as="geometry">
            <mxRectangle width="108" height="22" as="alternateBounds" />
          </mxGeometry>
        </mxCell>
        <mxCell id="JNVpyMmq69oR40ZpW95g-125" value="reverse_power_flow_available_capacity" style="shape=partialRectangle;connectable=0;fillColor=none;top=0;left=0;bottom=0;right=0;align=left;spacingLeft=2;overflow=hidden;fontSize=11;" vertex="1" parent="JNVpyMmq69oR40ZpW95g-123">
          <mxGeometry x="108" width="212" height="22" as="geometry">
            <mxRectangle width="212" height="22" as="alternateBounds" />
          </mxGeometry>
        </mxCell>
        <mxCell id="JNVpyMmq69oR40ZpW95g-126" style="shape=tableRow;horizontal=0;startSize=0;swimlaneHead=0;swimlaneBody=0;fillColor=none;collapsible=0;dropTarget=0;points=[[0,0.5],[1,0.5]];portConstraint=eastwest;top=0;left=0;right=0;bottom=0;" vertex="1" parent="JNVpyMmq69oR40ZpW95g-44">
          <mxGeometry y="619" width="320" height="22" as="geometry" />
        </mxCell>
        <mxCell id="JNVpyMmq69oR40ZpW95g-127" value="string" style="shape=partialRectangle;connectable=0;fillColor=none;top=0;left=0;bottom=0;right=0;align=left;spacingLeft=2;overflow=hidden;fontSize=11;" vertex="1" parent="JNVpyMmq69oR40ZpW95g-126">
          <mxGeometry width="108" height="22" as="geometry">
            <mxRectangle width="108" height="22" as="alternateBounds" />
          </mxGeometry>
        </mxCell>
        <mxCell id="JNVpyMmq69oR40ZpW95g-128" value="description" style="shape=partialRectangle;connectable=0;fillColor=none;top=0;left=0;bottom=0;right=0;align=left;spacingLeft=2;overflow=hidden;fontSize=11;" vertex="1" parent="JNVpyMmq69oR40ZpW95g-126">
          <mxGeometry x="108" width="212" height="22" as="geometry">
            <mxRectangle width="212" height="22" as="alternateBounds" />
          </mxGeometry>
        </mxCell>
        <mxCell id="JNVpyMmq69oR40ZpW95g-129" style="shape=tableRow;horizontal=0;startSize=0;swimlaneHead=0;swimlaneBody=0;fillColor=none;collapsible=0;dropTarget=0;points=[[0,0.5],[1,0.5]];portConstraint=eastwest;top=0;left=0;right=0;bottom=0;" vertex="1" parent="JNVpyMmq69oR40ZpW95g-44">
          <mxGeometry y="641" width="320" height="22" as="geometry" />
        </mxCell>
        <mxCell id="JNVpyMmq69oR40ZpW95g-130" value="string" style="shape=partialRectangle;connectable=0;fillColor=none;top=0;left=0;bottom=0;right=0;align=left;spacingLeft=2;overflow=hidden;fontSize=11;" vertex="1" parent="JNVpyMmq69oR40ZpW95g-129">
          <mxGeometry width="108" height="22" as="geometry">
            <mxRectangle width="108" height="22" as="alternateBounds" />
          </mxGeometry>
        </mxCell>
        <mxCell id="JNVpyMmq69oR40ZpW95g-131" value="m_rid" style="shape=partialRectangle;connectable=0;fillColor=none;top=0;left=0;bottom=0;right=0;align=left;spacingLeft=2;overflow=hidden;fontSize=11;" vertex="1" parent="JNVpyMmq69oR40ZpW95g-129">
          <mxGeometry x="108" width="212" height="22" as="geometry">
            <mxRectangle width="212" height="22" as="alternateBounds" />
          </mxGeometry>
        </mxCell>
        <mxCell id="JNVpyMmq69oR40ZpW95g-132" value="Circuit" style="shape=table;startSize=25;container=1;collapsible=0;childLayout=tableLayout;fixedRows=1;rowLines=1;fontStyle=1;align=center;resizeLast=1;fillColor=#dae8fc;strokeColor=#6c8ebf;" vertex="1" parent="1">
          <mxGeometry x="1800" y="320" width="220" height="443" as="geometry" />
        </mxCell>
        <mxCell id="JNVpyMmq69oR40ZpW95g-133" style="shape=tableRow;horizontal=0;startSize=0;swimlaneHead=0;swimlaneBody=0;fillColor=none;collapsible=0;dropTarget=0;points=[[0,0.5],[1,0.5]];portConstraint=eastwest;top=0;left=0;right=0;bottom=0;" vertex="1" parent="JNVpyMmq69oR40ZpW95g-132">
          <mxGeometry y="25" width="220" height="22" as="geometry" />
        </mxCell>
        <mxCell id="JNVpyMmq69oR40ZpW95g-134" value="KiloV" style="shape=partialRectangle;connectable=0;fillColor=none;top=0;left=0;bottom=0;right=0;align=left;spacingLeft=2;overflow=hidden;fontSize=11;" vertex="1" parent="JNVpyMmq69oR40ZpW95g-133">
          <mxGeometry width="60" height="22" as="geometry">
            <mxRectangle width="60" height="22" as="alternateBounds" />
          </mxGeometry>
        </mxCell>
        <mxCell id="JNVpyMmq69oR40ZpW95g-135" value="voltage" style="shape=partialRectangle;connectable=0;fillColor=none;top=0;left=0;bottom=0;right=0;align=left;spacingLeft=2;overflow=hidden;fontSize=11;" vertex="1" parent="JNVpyMmq69oR40ZpW95g-133">
          <mxGeometry x="60" width="160" height="22" as="geometry">
            <mxRectangle width="160" height="22" as="alternateBounds" />
          </mxGeometry>
        </mxCell>
        <mxCell id="JNVpyMmq69oR40ZpW95g-136" style="shape=tableRow;horizontal=0;startSize=0;swimlaneHead=0;swimlaneBody=0;fillColor=none;collapsible=0;dropTarget=0;points=[[0,0.5],[1,0.5]];portConstraint=eastwest;top=0;left=0;right=0;bottom=0;" vertex="1" parent="JNVpyMmq69oR40ZpW95g-132">
          <mxGeometry y="47" width="220" height="22" as="geometry" />
        </mxCell>
        <mxCell id="JNVpyMmq69oR40ZpW95g-137" value="integer" style="shape=partialRectangle;connectable=0;fillColor=none;top=0;left=0;bottom=0;right=0;align=left;spacingLeft=2;overflow=hidden;fontSize=11;" vertex="1" parent="JNVpyMmq69oR40ZpW95g-136">
          <mxGeometry width="60" height="22" as="geometry">
            <mxRectangle width="60" height="22" as="alternateBounds" />
          </mxGeometry>
        </mxCell>
        <mxCell id="JNVpyMmq69oR40ZpW95g-138" value="requests_in_queue" style="shape=partialRectangle;connectable=0;fillColor=none;top=0;left=0;bottom=0;right=0;align=left;spacingLeft=2;overflow=hidden;fontSize=11;" vertex="1" parent="JNVpyMmq69oR40ZpW95g-136">
          <mxGeometry x="60" width="160" height="22" as="geometry">
            <mxRectangle width="160" height="22" as="alternateBounds" />
          </mxGeometry>
        </mxCell>
        <mxCell id="JNVpyMmq69oR40ZpW95g-139" style="shape=tableRow;horizontal=0;startSize=0;swimlaneHead=0;swimlaneBody=0;fillColor=none;collapsible=0;dropTarget=0;points=[[0,0.5],[1,0.5]];portConstraint=eastwest;top=0;left=0;right=0;bottom=0;" vertex="1" parent="JNVpyMmq69oR40ZpW95g-132">
          <mxGeometry y="69" width="220" height="22" as="geometry" />
        </mxCell>
        <mxCell id="JNVpyMmq69oR40ZpW95g-140" value="MegaW" style="shape=partialRectangle;connectable=0;fillColor=none;top=0;left=0;bottom=0;right=0;align=left;spacingLeft=2;overflow=hidden;fontSize=11;" vertex="1" parent="JNVpyMmq69oR40ZpW95g-139">
          <mxGeometry width="60" height="22" as="geometry">
            <mxRectangle width="60" height="22" as="alternateBounds" />
          </mxGeometry>
        </mxCell>
        <mxCell id="JNVpyMmq69oR40ZpW95g-141" value="demand_maximum" style="shape=partialRectangle;connectable=0;fillColor=none;top=0;left=0;bottom=0;right=0;align=left;spacingLeft=2;overflow=hidden;fontSize=11;" vertex="1" parent="JNVpyMmq69oR40ZpW95g-139">
          <mxGeometry x="60" width="160" height="22" as="geometry">
            <mxRectangle width="160" height="22" as="alternateBounds" />
          </mxGeometry>
        </mxCell>
        <mxCell id="JNVpyMmq69oR40ZpW95g-142" style="shape=tableRow;horizontal=0;startSize=0;swimlaneHead=0;swimlaneBody=0;fillColor=none;collapsible=0;dropTarget=0;points=[[0,0.5],[1,0.5]];portConstraint=eastwest;top=0;left=0;right=0;bottom=0;" vertex="1" parent="JNVpyMmq69oR40ZpW95g-132">
          <mxGeometry y="91" width="220" height="22" as="geometry" />
        </mxCell>
        <mxCell id="JNVpyMmq69oR40ZpW95g-143" value="MegaW" style="shape=partialRectangle;connectable=0;fillColor=none;top=0;left=0;bottom=0;right=0;align=left;spacingLeft=2;overflow=hidden;fontSize=11;" vertex="1" parent="JNVpyMmq69oR40ZpW95g-142">
          <mxGeometry width="60" height="22" as="geometry">
            <mxRectangle width="60" height="22" as="alternateBounds" />
          </mxGeometry>
        </mxCell>
        <mxCell id="JNVpyMmq69oR40ZpW95g-144" value="demand_minimum" style="shape=partialRectangle;connectable=0;fillColor=none;top=0;left=0;bottom=0;right=0;align=left;spacingLeft=2;overflow=hidden;fontSize=11;" vertex="1" parent="JNVpyMmq69oR40ZpW95g-142">
          <mxGeometry x="60" width="160" height="22" as="geometry">
            <mxRectangle width="160" height="22" as="alternateBounds" />
          </mxGeometry>
        </mxCell>
        <mxCell id="JNVpyMmq69oR40ZpW95g-145" style="shape=tableRow;horizontal=0;startSize=0;swimlaneHead=0;swimlaneBody=0;fillColor=none;collapsible=0;dropTarget=0;points=[[0,0.5],[1,0.5]];portConstraint=eastwest;top=0;left=0;right=0;bottom=0;" vertex="1" parent="JNVpyMmq69oR40ZpW95g-132">
          <mxGeometry y="113" width="220" height="22" as="geometry" />
        </mxCell>
        <mxCell id="JNVpyMmq69oR40ZpW95g-146" value="MegaW" style="shape=partialRectangle;connectable=0;fillColor=none;top=0;left=0;bottom=0;right=0;align=left;spacingLeft=2;overflow=hidden;fontSize=11;" vertex="1" parent="JNVpyMmq69oR40ZpW95g-145">
          <mxGeometry width="60" height="22" as="geometry">
            <mxRectangle width="60" height="22" as="alternateBounds" />
          </mxGeometry>
        </mxCell>
        <mxCell id="JNVpyMmq69oR40ZpW95g-147" value="demand_99_percentile" style="shape=partialRectangle;connectable=0;fillColor=none;top=0;left=0;bottom=0;right=0;align=left;spacingLeft=2;overflow=hidden;fontSize=11;" vertex="1" parent="JNVpyMmq69oR40ZpW95g-145">
          <mxGeometry x="60" width="160" height="22" as="geometry">
            <mxRectangle width="160" height="22" as="alternateBounds" />
          </mxGeometry>
        </mxCell>
        <mxCell id="JNVpyMmq69oR40ZpW95g-148" style="shape=tableRow;horizontal=0;startSize=0;swimlaneHead=0;swimlaneBody=0;fillColor=none;collapsible=0;dropTarget=0;points=[[0,0.5],[1,0.5]];portConstraint=eastwest;top=0;left=0;right=0;bottom=0;" vertex="1" parent="JNVpyMmq69oR40ZpW95g-132">
          <mxGeometry y="135" width="220" height="22" as="geometry" />
        </mxCell>
        <mxCell id="JNVpyMmq69oR40ZpW95g-149" value="MegaW" style="shape=partialRectangle;connectable=0;fillColor=none;top=0;left=0;bottom=0;right=0;align=left;spacingLeft=2;overflow=hidden;fontSize=11;" vertex="1" parent="JNVpyMmq69oR40ZpW95g-148">
          <mxGeometry width="60" height="22" as="geometry">
            <mxRectangle width="60" height="22" as="alternateBounds" />
          </mxGeometry>
        </mxCell>
        <mxCell id="JNVpyMmq69oR40ZpW95g-150" value="demand_75_percentile" style="shape=partialRectangle;connectable=0;fillColor=none;top=0;left=0;bottom=0;right=0;align=left;spacingLeft=2;overflow=hidden;fontSize=11;" vertex="1" parent="JNVpyMmq69oR40ZpW95g-148">
          <mxGeometry x="60" width="160" height="22" as="geometry">
            <mxRectangle width="160" height="22" as="alternateBounds" />
          </mxGeometry>
        </mxCell>
        <mxCell id="JNVpyMmq69oR40ZpW95g-151" style="shape=tableRow;horizontal=0;startSize=0;swimlaneHead=0;swimlaneBody=0;fillColor=none;collapsible=0;dropTarget=0;points=[[0,0.5],[1,0.5]];portConstraint=eastwest;top=0;left=0;right=0;bottom=0;" vertex="1" parent="JNVpyMmq69oR40ZpW95g-132">
          <mxGeometry y="157" width="220" height="22" as="geometry" />
        </mxCell>
        <mxCell id="JNVpyMmq69oR40ZpW95g-152" value="MegaW" style="shape=partialRectangle;connectable=0;fillColor=none;top=0;left=0;bottom=0;right=0;align=left;spacingLeft=2;overflow=hidden;fontSize=11;" vertex="1" parent="JNVpyMmq69oR40ZpW95g-151">
          <mxGeometry width="60" height="22" as="geometry">
            <mxRectangle width="60" height="22" as="alternateBounds" />
          </mxGeometry>
        </mxCell>
        <mxCell id="JNVpyMmq69oR40ZpW95g-153" value="demand_50_percentile" style="shape=partialRectangle;connectable=0;fillColor=none;top=0;left=0;bottom=0;right=0;align=left;spacingLeft=2;overflow=hidden;fontSize=11;" vertex="1" parent="JNVpyMmq69oR40ZpW95g-151">
          <mxGeometry x="60" width="160" height="22" as="geometry">
            <mxRectangle width="160" height="22" as="alternateBounds" />
          </mxGeometry>
        </mxCell>
        <mxCell id="JNVpyMmq69oR40ZpW95g-154" style="shape=tableRow;horizontal=0;startSize=0;swimlaneHead=0;swimlaneBody=0;fillColor=none;collapsible=0;dropTarget=0;points=[[0,0.5],[1,0.5]];portConstraint=eastwest;top=0;left=0;right=0;bottom=0;" vertex="1" parent="JNVpyMmq69oR40ZpW95g-132">
          <mxGeometry y="179" width="220" height="22" as="geometry" />
        </mxCell>
        <mxCell id="JNVpyMmq69oR40ZpW95g-155" value="MegaW" style="shape=partialRectangle;connectable=0;fillColor=none;top=0;left=0;bottom=0;right=0;align=left;spacingLeft=2;overflow=hidden;fontSize=11;" vertex="1" parent="JNVpyMmq69oR40ZpW95g-154">
          <mxGeometry width="60" height="22" as="geometry">
            <mxRectangle width="60" height="22" as="alternateBounds" />
          </mxGeometry>
        </mxCell>
        <mxCell id="JNVpyMmq69oR40ZpW95g-156" value="demand_25_percentile" style="shape=partialRectangle;connectable=0;fillColor=none;top=0;left=0;bottom=0;right=0;align=left;spacingLeft=2;overflow=hidden;fontSize=11;" vertex="1" parent="JNVpyMmq69oR40ZpW95g-154">
          <mxGeometry x="60" width="160" height="22" as="geometry">
            <mxRectangle width="160" height="22" as="alternateBounds" />
          </mxGeometry>
        </mxCell>
        <mxCell id="JNVpyMmq69oR40ZpW95g-157" style="shape=tableRow;horizontal=0;startSize=0;swimlaneHead=0;swimlaneBody=0;fillColor=none;collapsible=0;dropTarget=0;points=[[0,0.5],[1,0.5]];portConstraint=eastwest;top=0;left=0;right=0;bottom=0;" vertex="1" parent="JNVpyMmq69oR40ZpW95g-132">
          <mxGeometry y="201" width="220" height="22" as="geometry" />
        </mxCell>
        <mxCell id="JNVpyMmq69oR40ZpW95g-158" value="RAGKind" style="shape=partialRectangle;connectable=0;fillColor=none;top=0;left=0;bottom=0;right=0;align=left;spacingLeft=2;overflow=hidden;fontSize=11;" vertex="1" parent="JNVpyMmq69oR40ZpW95g-157">
          <mxGeometry width="60" height="22" as="geometry">
            <mxRectangle width="60" height="22" as="alternateBounds" />
          </mxGeometry>
        </mxCell>
        <mxCell id="JNVpyMmq69oR40ZpW95g-159" value="demand_constraint" style="shape=partialRectangle;connectable=0;fillColor=none;top=0;left=0;bottom=0;right=0;align=left;spacingLeft=2;overflow=hidden;fontSize=11;" vertex="1" parent="JNVpyMmq69oR40ZpW95g-157">
          <mxGeometry x="60" width="160" height="22" as="geometry">
            <mxRectangle width="160" height="22" as="alternateBounds" />
          </mxGeometry>
        </mxCell>
        <mxCell id="JNVpyMmq69oR40ZpW95g-160" style="shape=tableRow;horizontal=0;startSize=0;swimlaneHead=0;swimlaneBody=0;fillColor=none;collapsible=0;dropTarget=0;points=[[0,0.5],[1,0.5]];portConstraint=eastwest;top=0;left=0;right=0;bottom=0;" vertex="1" parent="JNVpyMmq69oR40ZpW95g-132">
          <mxGeometry y="223" width="220" height="22" as="geometry" />
        </mxCell>
        <mxCell id="JNVpyMmq69oR40ZpW95g-161" value="MegaW" style="shape=partialRectangle;connectable=0;fillColor=none;top=0;left=0;bottom=0;right=0;align=left;spacingLeft=2;overflow=hidden;fontSize=11;" vertex="1" parent="JNVpyMmq69oR40ZpW95g-160">
          <mxGeometry width="60" height="22" as="geometry">
            <mxRectangle width="60" height="22" as="alternateBounds" />
          </mxGeometry>
        </mxCell>
        <mxCell id="JNVpyMmq69oR40ZpW95g-162" value="demand_contracted_capacity" style="shape=partialRectangle;connectable=0;fillColor=none;top=0;left=0;bottom=0;right=0;align=left;spacingLeft=2;overflow=hidden;fontSize=11;" vertex="1" parent="JNVpyMmq69oR40ZpW95g-160">
          <mxGeometry x="60" width="160" height="22" as="geometry">
            <mxRectangle width="160" height="22" as="alternateBounds" />
          </mxGeometry>
        </mxCell>
        <mxCell id="JNVpyMmq69oR40ZpW95g-163" style="shape=tableRow;horizontal=0;startSize=0;swimlaneHead=0;swimlaneBody=0;fillColor=none;collapsible=0;dropTarget=0;points=[[0,0.5],[1,0.5]];portConstraint=eastwest;top=0;left=0;right=0;bottom=0;" vertex="1" parent="JNVpyMmq69oR40ZpW95g-132">
          <mxGeometry y="245" width="220" height="22" as="geometry" />
        </mxCell>
        <mxCell id="JNVpyMmq69oR40ZpW95g-164" value="MegaW" style="shape=partialRectangle;connectable=0;fillColor=none;top=0;left=0;bottom=0;right=0;align=left;spacingLeft=2;overflow=hidden;fontSize=11;" vertex="1" parent="JNVpyMmq69oR40ZpW95g-163">
          <mxGeometry width="60" height="22" as="geometry">
            <mxRectangle width="60" height="22" as="alternateBounds" />
          </mxGeometry>
        </mxCell>
        <mxCell id="JNVpyMmq69oR40ZpW95g-165" value="demand_connected_capacity" style="shape=partialRectangle;connectable=0;fillColor=none;top=0;left=0;bottom=0;right=0;align=left;spacingLeft=2;overflow=hidden;fontSize=11;" vertex="1" parent="JNVpyMmq69oR40ZpW95g-163">
          <mxGeometry x="60" width="160" height="22" as="geometry">
            <mxRectangle width="160" height="22" as="alternateBounds" />
          </mxGeometry>
        </mxCell>
        <mxCell id="JNVpyMmq69oR40ZpW95g-166" style="shape=tableRow;horizontal=0;startSize=0;swimlaneHead=0;swimlaneBody=0;fillColor=none;collapsible=0;dropTarget=0;points=[[0,0.5],[1,0.5]];portConstraint=eastwest;top=0;left=0;right=0;bottom=0;" vertex="1" parent="JNVpyMmq69oR40ZpW95g-132">
          <mxGeometry y="267" width="220" height="22" as="geometry" />
        </mxCell>
        <mxCell id="JNVpyMmq69oR40ZpW95g-167" value="MegaW" style="shape=partialRectangle;connectable=0;fillColor=none;top=0;left=0;bottom=0;right=0;align=left;spacingLeft=2;overflow=hidden;fontSize=11;" vertex="1" parent="JNVpyMmq69oR40ZpW95g-166">
          <mxGeometry width="60" height="22" as="geometry">
            <mxRectangle width="60" height="22" as="alternateBounds" />
          </mxGeometry>
        </mxCell>
        <mxCell id="JNVpyMmq69oR40ZpW95g-168" value="demand_quoted_capacity" style="shape=partialRectangle;connectable=0;fillColor=none;top=0;left=0;bottom=0;right=0;align=left;spacingLeft=2;overflow=hidden;fontSize=11;" vertex="1" parent="JNVpyMmq69oR40ZpW95g-166">
          <mxGeometry x="60" width="160" height="22" as="geometry">
            <mxRectangle width="160" height="22" as="alternateBounds" />
          </mxGeometry>
        </mxCell>
        <mxCell id="JNVpyMmq69oR40ZpW95g-169" style="shape=tableRow;horizontal=0;startSize=0;swimlaneHead=0;swimlaneBody=0;fillColor=none;collapsible=0;dropTarget=0;points=[[0,0.5],[1,0.5]];portConstraint=eastwest;top=0;left=0;right=0;bottom=0;" vertex="1" parent="JNVpyMmq69oR40ZpW95g-132">
          <mxGeometry y="289" width="220" height="22" as="geometry" />
        </mxCell>
        <mxCell id="JNVpyMmq69oR40ZpW95g-170" value="MegaW" style="shape=partialRectangle;connectable=0;fillColor=none;top=0;left=0;bottom=0;right=0;align=left;spacingLeft=2;overflow=hidden;fontSize=11;" vertex="1" parent="JNVpyMmq69oR40ZpW95g-169">
          <mxGeometry width="60" height="22" as="geometry">
            <mxRectangle width="60" height="22" as="alternateBounds" />
          </mxGeometry>
        </mxCell>
        <mxCell id="JNVpyMmq69oR40ZpW95g-171" value="demand_available_capacity" style="shape=partialRectangle;connectable=0;fillColor=none;top=0;left=0;bottom=0;right=0;align=left;spacingLeft=2;overflow=hidden;fontSize=11;" vertex="1" parent="JNVpyMmq69oR40ZpW95g-169">
          <mxGeometry x="60" width="160" height="22" as="geometry">
            <mxRectangle width="160" height="22" as="alternateBounds" />
          </mxGeometry>
        </mxCell>
        <mxCell id="JNVpyMmq69oR40ZpW95g-172" style="shape=tableRow;horizontal=0;startSize=0;swimlaneHead=0;swimlaneBody=0;fillColor=none;collapsible=0;dropTarget=0;points=[[0,0.5],[1,0.5]];portConstraint=eastwest;top=0;left=0;right=0;bottom=0;" vertex="1" parent="JNVpyMmq69oR40ZpW95g-132">
          <mxGeometry y="311" width="220" height="22" as="geometry" />
        </mxCell>
        <mxCell id="JNVpyMmq69oR40ZpW95g-173" value="MegaW" style="shape=partialRectangle;connectable=0;fillColor=none;top=0;left=0;bottom=0;right=0;align=left;spacingLeft=2;overflow=hidden;fontSize=11;" vertex="1" parent="JNVpyMmq69oR40ZpW95g-172">
          <mxGeometry width="60" height="22" as="geometry">
            <mxRectangle width="60" height="22" as="alternateBounds" />
          </mxGeometry>
        </mxCell>
        <mxCell id="JNVpyMmq69oR40ZpW95g-174" value="summer_rating" style="shape=partialRectangle;connectable=0;fillColor=none;top=0;left=0;bottom=0;right=0;align=left;spacingLeft=2;overflow=hidden;fontSize=11;" vertex="1" parent="JNVpyMmq69oR40ZpW95g-172">
          <mxGeometry x="60" width="160" height="22" as="geometry">
            <mxRectangle width="160" height="22" as="alternateBounds" />
          </mxGeometry>
        </mxCell>
        <mxCell id="JNVpyMmq69oR40ZpW95g-175" style="shape=tableRow;horizontal=0;startSize=0;swimlaneHead=0;swimlaneBody=0;fillColor=none;collapsible=0;dropTarget=0;points=[[0,0.5],[1,0.5]];portConstraint=eastwest;top=0;left=0;right=0;bottom=0;" vertex="1" parent="JNVpyMmq69oR40ZpW95g-132">
          <mxGeometry y="333" width="220" height="22" as="geometry" />
        </mxCell>
        <mxCell id="JNVpyMmq69oR40ZpW95g-176" value="MegaW" style="shape=partialRectangle;connectable=0;fillColor=none;top=0;left=0;bottom=0;right=0;align=left;spacingLeft=2;overflow=hidden;fontSize=11;" vertex="1" parent="JNVpyMmq69oR40ZpW95g-175">
          <mxGeometry width="60" height="22" as="geometry">
            <mxRectangle width="60" height="22" as="alternateBounds" />
          </mxGeometry>
        </mxCell>
        <mxCell id="JNVpyMmq69oR40ZpW95g-177" value="winter_rating" style="shape=partialRectangle;connectable=0;fillColor=none;top=0;left=0;bottom=0;right=0;align=left;spacingLeft=2;overflow=hidden;fontSize=11;" vertex="1" parent="JNVpyMmq69oR40ZpW95g-175">
          <mxGeometry x="60" width="160" height="22" as="geometry">
            <mxRectangle width="160" height="22" as="alternateBounds" />
          </mxGeometry>
        </mxCell>
        <mxCell id="JNVpyMmq69oR40ZpW95g-178" style="shape=tableRow;horizontal=0;startSize=0;swimlaneHead=0;swimlaneBody=0;fillColor=none;collapsible=0;dropTarget=0;points=[[0,0.5],[1,0.5]];portConstraint=eastwest;top=0;left=0;right=0;bottom=0;" vertex="1" parent="JNVpyMmq69oR40ZpW95g-132">
          <mxGeometry y="355" width="220" height="22" as="geometry" />
        </mxCell>
        <mxCell id="JNVpyMmq69oR40ZpW95g-179" value="string" style="shape=partialRectangle;connectable=0;fillColor=none;top=0;left=0;bottom=0;right=0;align=left;spacingLeft=2;overflow=hidden;fontSize=11;" vertex="1" parent="JNVpyMmq69oR40ZpW95g-178">
          <mxGeometry width="60" height="22" as="geometry">
            <mxRectangle width="60" height="22" as="alternateBounds" />
          </mxGeometry>
        </mxCell>
        <mxCell id="JNVpyMmq69oR40ZpW95g-180" value="from_substation" style="shape=partialRectangle;connectable=0;fillColor=none;top=0;left=0;bottom=0;right=0;align=left;spacingLeft=2;overflow=hidden;fontSize=11;" vertex="1" parent="JNVpyMmq69oR40ZpW95g-178">
          <mxGeometry x="60" width="160" height="22" as="geometry">
            <mxRectangle width="160" height="22" as="alternateBounds" />
          </mxGeometry>
        </mxCell>
        <mxCell id="JNVpyMmq69oR40ZpW95g-181" style="shape=tableRow;horizontal=0;startSize=0;swimlaneHead=0;swimlaneBody=0;fillColor=none;collapsible=0;dropTarget=0;points=[[0,0.5],[1,0.5]];portConstraint=eastwest;top=0;left=0;right=0;bottom=0;" vertex="1" parent="JNVpyMmq69oR40ZpW95g-132">
          <mxGeometry y="377" width="220" height="22" as="geometry" />
        </mxCell>
        <mxCell id="JNVpyMmq69oR40ZpW95g-182" value="stringList" style="shape=partialRectangle;connectable=0;fillColor=none;top=0;left=0;bottom=0;right=0;align=left;spacingLeft=2;overflow=hidden;fontSize=11;" vertex="1" parent="JNVpyMmq69oR40ZpW95g-181">
          <mxGeometry width="60" height="22" as="geometry">
            <mxRectangle width="60" height="22" as="alternateBounds" />
          </mxGeometry>
        </mxCell>
        <mxCell id="JNVpyMmq69oR40ZpW95g-183" value="to_substation" style="shape=partialRectangle;connectable=0;fillColor=none;top=0;left=0;bottom=0;right=0;align=left;spacingLeft=2;overflow=hidden;fontSize=11;" vertex="1" parent="JNVpyMmq69oR40ZpW95g-181">
          <mxGeometry x="60" width="160" height="22" as="geometry">
            <mxRectangle width="160" height="22" as="alternateBounds" />
          </mxGeometry>
        </mxCell>
        <mxCell id="JNVpyMmq69oR40ZpW95g-184" style="shape=tableRow;horizontal=0;startSize=0;swimlaneHead=0;swimlaneBody=0;fillColor=none;collapsible=0;dropTarget=0;points=[[0,0.5],[1,0.5]];portConstraint=eastwest;top=0;left=0;right=0;bottom=0;" vertex="1" parent="JNVpyMmq69oR40ZpW95g-132">
          <mxGeometry y="399" width="220" height="22" as="geometry" />
        </mxCell>
        <mxCell id="JNVpyMmq69oR40ZpW95g-185" value="string" style="shape=partialRectangle;connectable=0;fillColor=none;top=0;left=0;bottom=0;right=0;align=left;spacingLeft=2;overflow=hidden;fontSize=11;" vertex="1" parent="JNVpyMmq69oR40ZpW95g-184">
          <mxGeometry width="60" height="22" as="geometry">
            <mxRectangle width="60" height="22" as="alternateBounds" />
          </mxGeometry>
        </mxCell>
        <mxCell id="JNVpyMmq69oR40ZpW95g-186" value="description" style="shape=partialRectangle;connectable=0;fillColor=none;top=0;left=0;bottom=0;right=0;align=left;spacingLeft=2;overflow=hidden;fontSize=11;" vertex="1" parent="JNVpyMmq69oR40ZpW95g-184">
          <mxGeometry x="60" width="160" height="22" as="geometry">
            <mxRectangle width="160" height="22" as="alternateBounds" />
          </mxGeometry>
        </mxCell>
        <mxCell id="JNVpyMmq69oR40ZpW95g-187" style="shape=tableRow;horizontal=0;startSize=0;swimlaneHead=0;swimlaneBody=0;fillColor=none;collapsible=0;dropTarget=0;points=[[0,0.5],[1,0.5]];portConstraint=eastwest;top=0;left=0;right=0;bottom=0;" vertex="1" parent="JNVpyMmq69oR40ZpW95g-132">
          <mxGeometry y="421" width="220" height="22" as="geometry" />
        </mxCell>
        <mxCell id="JNVpyMmq69oR40ZpW95g-188" value="string" style="shape=partialRectangle;connectable=0;fillColor=none;top=0;left=0;bottom=0;right=0;align=left;spacingLeft=2;overflow=hidden;fontSize=11;" vertex="1" parent="JNVpyMmq69oR40ZpW95g-187">
          <mxGeometry width="60" height="22" as="geometry">
            <mxRectangle width="60" height="22" as="alternateBounds" />
          </mxGeometry>
        </mxCell>
        <mxCell id="JNVpyMmq69oR40ZpW95g-189" value="m_rid" style="shape=partialRectangle;connectable=0;fillColor=none;top=0;left=0;bottom=0;right=0;align=left;spacingLeft=2;overflow=hidden;fontSize=11;" vertex="1" parent="JNVpyMmq69oR40ZpW95g-187">
          <mxGeometry x="60" width="160" height="22" as="geometry">
            <mxRectangle width="160" height="22" as="alternateBounds" />
          </mxGeometry>
        </mxCell>
        <mxCell id="JNVpyMmq69oR40ZpW95g-190" value="Demand" style="shape=table;startSize=25;container=1;collapsible=0;childLayout=tableLayout;fixedRows=1;rowLines=1;fontStyle=1;align=center;resizeLast=1;fillColor=#dae8fc;strokeColor=#6c8ebf;" vertex="1" parent="1">
          <mxGeometry x="920" y="841" width="240" height="179" as="geometry" />
        </mxCell>
        <mxCell id="JNVpyMmq69oR40ZpW95g-191" style="shape=tableRow;horizontal=0;startSize=0;swimlaneHead=0;swimlaneBody=0;fillColor=none;collapsible=0;dropTarget=0;points=[[0,0.5],[1,0.5]];portConstraint=eastwest;top=0;left=0;right=0;bottom=0;" vertex="1" parent="JNVpyMmq69oR40ZpW95g-190">
          <mxGeometry y="25" width="240" height="22" as="geometry" />
        </mxCell>
        <mxCell id="JNVpyMmq69oR40ZpW95g-192" value="MegaW" style="shape=partialRectangle;connectable=0;fillColor=none;top=0;left=0;bottom=0;right=0;align=left;spacingLeft=2;overflow=hidden;fontSize=11;" vertex="1" parent="JNVpyMmq69oR40ZpW95g-191">
          <mxGeometry width="50" height="22" as="geometry">
            <mxRectangle width="50" height="22" as="alternateBounds" />
          </mxGeometry>
        </mxCell>
        <mxCell id="JNVpyMmq69oR40ZpW95g-193" value="demand_contracted_capacity" style="shape=partialRectangle;connectable=0;fillColor=none;top=0;left=0;bottom=0;right=0;align=left;spacingLeft=2;overflow=hidden;fontSize=11;" vertex="1" parent="JNVpyMmq69oR40ZpW95g-191">
          <mxGeometry x="50" width="190" height="22" as="geometry">
            <mxRectangle width="190" height="22" as="alternateBounds" />
          </mxGeometry>
        </mxCell>
        <mxCell id="JNVpyMmq69oR40ZpW95g-194" style="shape=tableRow;horizontal=0;startSize=0;swimlaneHead=0;swimlaneBody=0;fillColor=none;collapsible=0;dropTarget=0;points=[[0,0.5],[1,0.5]];portConstraint=eastwest;top=0;left=0;right=0;bottom=0;" vertex="1" parent="JNVpyMmq69oR40ZpW95g-190">
          <mxGeometry y="47" width="240" height="22" as="geometry" />
        </mxCell>
        <mxCell id="JNVpyMmq69oR40ZpW95g-195" value="MegaW" style="shape=partialRectangle;connectable=0;fillColor=none;top=0;left=0;bottom=0;right=0;align=left;spacingLeft=2;overflow=hidden;fontSize=11;" vertex="1" parent="JNVpyMmq69oR40ZpW95g-194">
          <mxGeometry width="50" height="22" as="geometry">
            <mxRectangle width="50" height="22" as="alternateBounds" />
          </mxGeometry>
        </mxCell>
        <mxCell id="JNVpyMmq69oR40ZpW95g-196" value="demand_connected_capacity" style="shape=partialRectangle;connectable=0;fillColor=none;top=0;left=0;bottom=0;right=0;align=left;spacingLeft=2;overflow=hidden;fontSize=11;" vertex="1" parent="JNVpyMmq69oR40ZpW95g-194">
          <mxGeometry x="50" width="190" height="22" as="geometry">
            <mxRectangle width="190" height="22" as="alternateBounds" />
          </mxGeometry>
        </mxCell>
        <mxCell id="JNVpyMmq69oR40ZpW95g-197" style="shape=tableRow;horizontal=0;startSize=0;swimlaneHead=0;swimlaneBody=0;fillColor=none;collapsible=0;dropTarget=0;points=[[0,0.5],[1,0.5]];portConstraint=eastwest;top=0;left=0;right=0;bottom=0;" vertex="1" parent="JNVpyMmq69oR40ZpW95g-190">
          <mxGeometry y="69" width="240" height="22" as="geometry" />
        </mxCell>
        <mxCell id="JNVpyMmq69oR40ZpW95g-198" value="MegaW" style="shape=partialRectangle;connectable=0;fillColor=none;top=0;left=0;bottom=0;right=0;align=left;spacingLeft=2;overflow=hidden;fontSize=11;" vertex="1" parent="JNVpyMmq69oR40ZpW95g-197">
          <mxGeometry width="50" height="22" as="geometry">
            <mxRectangle width="50" height="22" as="alternateBounds" />
          </mxGeometry>
        </mxCell>
        <mxCell id="JNVpyMmq69oR40ZpW95g-199" value="demand_quoted_capacity" style="shape=partialRectangle;connectable=0;fillColor=none;top=0;left=0;bottom=0;right=0;align=left;spacingLeft=2;overflow=hidden;fontSize=11;" vertex="1" parent="JNVpyMmq69oR40ZpW95g-197">
          <mxGeometry x="50" width="190" height="22" as="geometry">
            <mxRectangle width="190" height="22" as="alternateBounds" />
          </mxGeometry>
        </mxCell>
        <mxCell id="JNVpyMmq69oR40ZpW95g-200" style="shape=tableRow;horizontal=0;startSize=0;swimlaneHead=0;swimlaneBody=0;fillColor=none;collapsible=0;dropTarget=0;points=[[0,0.5],[1,0.5]];portConstraint=eastwest;top=0;left=0;right=0;bottom=0;" vertex="1" parent="JNVpyMmq69oR40ZpW95g-190">
          <mxGeometry y="91" width="240" height="22" as="geometry" />
        </mxCell>
        <mxCell id="JNVpyMmq69oR40ZpW95g-201" value="KiloV" style="shape=partialRectangle;connectable=0;fillColor=none;top=0;left=0;bottom=0;right=0;align=left;spacingLeft=2;overflow=hidden;fontSize=11;" vertex="1" parent="JNVpyMmq69oR40ZpW95g-200">
          <mxGeometry width="50" height="22" as="geometry">
            <mxRectangle width="50" height="22" as="alternateBounds" />
          </mxGeometry>
        </mxCell>
        <mxCell id="JNVpyMmq69oR40ZpW95g-202" value="voltage" style="shape=partialRectangle;connectable=0;fillColor=none;top=0;left=0;bottom=0;right=0;align=left;spacingLeft=2;overflow=hidden;fontSize=11;" vertex="1" parent="JNVpyMmq69oR40ZpW95g-200">
          <mxGeometry x="50" width="190" height="22" as="geometry">
            <mxRectangle width="190" height="22" as="alternateBounds" />
          </mxGeometry>
        </mxCell>
        <mxCell id="JNVpyMmq69oR40ZpW95g-203" style="shape=tableRow;horizontal=0;startSize=0;swimlaneHead=0;swimlaneBody=0;fillColor=none;collapsible=0;dropTarget=0;points=[[0,0.5],[1,0.5]];portConstraint=eastwest;top=0;left=0;right=0;bottom=0;" vertex="1" parent="JNVpyMmq69oR40ZpW95g-190">
          <mxGeometry y="113" width="240" height="22" as="geometry" />
        </mxCell>
        <mxCell id="JNVpyMmq69oR40ZpW95g-204" value="boolean" style="shape=partialRectangle;connectable=0;fillColor=none;top=0;left=0;bottom=0;right=0;align=left;spacingLeft=2;overflow=hidden;fontSize=11;" vertex="1" parent="JNVpyMmq69oR40ZpW95g-203">
          <mxGeometry width="50" height="22" as="geometry">
            <mxRectangle width="50" height="22" as="alternateBounds" />
          </mxGeometry>
        </mxCell>
        <mxCell id="JNVpyMmq69oR40ZpW95g-205" value="aggregate" style="shape=partialRectangle;connectable=0;fillColor=none;top=0;left=0;bottom=0;right=0;align=left;spacingLeft=2;overflow=hidden;fontSize=11;" vertex="1" parent="JNVpyMmq69oR40ZpW95g-203">
          <mxGeometry x="50" width="190" height="22" as="geometry">
            <mxRectangle width="190" height="22" as="alternateBounds" />
          </mxGeometry>
        </mxCell>
        <mxCell id="JNVpyMmq69oR40ZpW95g-206" style="shape=tableRow;horizontal=0;startSize=0;swimlaneHead=0;swimlaneBody=0;fillColor=none;collapsible=0;dropTarget=0;points=[[0,0.5],[1,0.5]];portConstraint=eastwest;top=0;left=0;right=0;bottom=0;" vertex="1" parent="JNVpyMmq69oR40ZpW95g-190">
          <mxGeometry y="135" width="240" height="22" as="geometry" />
        </mxCell>
        <mxCell id="JNVpyMmq69oR40ZpW95g-207" value="string" style="shape=partialRectangle;connectable=0;fillColor=none;top=0;left=0;bottom=0;right=0;align=left;spacingLeft=2;overflow=hidden;fontSize=11;" vertex="1" parent="JNVpyMmq69oR40ZpW95g-206">
          <mxGeometry width="50" height="22" as="geometry">
            <mxRectangle width="50" height="22" as="alternateBounds" />
          </mxGeometry>
        </mxCell>
        <mxCell id="JNVpyMmq69oR40ZpW95g-208" value="description" style="shape=partialRectangle;connectable=0;fillColor=none;top=0;left=0;bottom=0;right=0;align=left;spacingLeft=2;overflow=hidden;fontSize=11;" vertex="1" parent="JNVpyMmq69oR40ZpW95g-206">
          <mxGeometry x="50" width="190" height="22" as="geometry">
            <mxRectangle width="190" height="22" as="alternateBounds" />
          </mxGeometry>
        </mxCell>
        <mxCell id="JNVpyMmq69oR40ZpW95g-209" style="shape=tableRow;horizontal=0;startSize=0;swimlaneHead=0;swimlaneBody=0;fillColor=none;collapsible=0;dropTarget=0;points=[[0,0.5],[1,0.5]];portConstraint=eastwest;top=0;left=0;right=0;bottom=0;" vertex="1" parent="JNVpyMmq69oR40ZpW95g-190">
          <mxGeometry y="157" width="240" height="22" as="geometry" />
        </mxCell>
        <mxCell id="JNVpyMmq69oR40ZpW95g-210" value="string" style="shape=partialRectangle;connectable=0;fillColor=none;top=0;left=0;bottom=0;right=0;align=left;spacingLeft=2;overflow=hidden;fontSize=11;" vertex="1" parent="JNVpyMmq69oR40ZpW95g-209">
          <mxGeometry width="50" height="22" as="geometry">
            <mxRectangle width="50" height="22" as="alternateBounds" />
          </mxGeometry>
        </mxCell>
        <mxCell id="JNVpyMmq69oR40ZpW95g-211" value="m_rid" style="shape=partialRectangle;connectable=0;fillColor=none;top=0;left=0;bottom=0;right=0;align=left;spacingLeft=2;overflow=hidden;fontSize=11;" vertex="1" parent="JNVpyMmq69oR40ZpW95g-209">
          <mxGeometry x="50" width="190" height="22" as="geometry">
            <mxRectangle width="190" height="22" as="alternateBounds" />
          </mxGeometry>
        </mxCell>
        <mxCell id="JNVpyMmq69oR40ZpW95g-212" value="Generator" style="shape=table;startSize=25;container=1;collapsible=0;childLayout=tableLayout;fixedRows=1;rowLines=1;fontStyle=1;align=center;resizeLast=1;fillColor=#dae8fc;strokeColor=#6c8ebf;" vertex="1" parent="1">
          <mxGeometry x="920" y="611" width="240" height="201" as="geometry" />
        </mxCell>
        <mxCell id="JNVpyMmq69oR40ZpW95g-213" style="shape=tableRow;horizontal=0;startSize=0;swimlaneHead=0;swimlaneBody=0;fillColor=none;collapsible=0;dropTarget=0;points=[[0,0.5],[1,0.5]];portConstraint=eastwest;top=0;left=0;right=0;bottom=0;" vertex="1" parent="JNVpyMmq69oR40ZpW95g-212">
          <mxGeometry y="25" width="240" height="22" as="geometry" />
        </mxCell>
        <mxCell id="JNVpyMmq69oR40ZpW95g-214" value="MegaW" style="shape=partialRectangle;connectable=0;fillColor=none;top=0;left=0;bottom=0;right=0;align=left;spacingLeft=2;overflow=hidden;fontSize=11;" vertex="1" parent="JNVpyMmq69oR40ZpW95g-213">
          <mxGeometry width="50" height="22" as="geometry">
            <mxRectangle width="50" height="22" as="alternateBounds" />
          </mxGeometry>
        </mxCell>
        <mxCell id="JNVpyMmq69oR40ZpW95g-215" value="generation_connected_capacity" style="shape=partialRectangle;connectable=0;fillColor=none;top=0;left=0;bottom=0;right=0;align=left;spacingLeft=2;overflow=hidden;fontSize=11;" vertex="1" parent="JNVpyMmq69oR40ZpW95g-213">
          <mxGeometry x="50" width="190" height="22" as="geometry">
            <mxRectangle width="190" height="22" as="alternateBounds" />
          </mxGeometry>
        </mxCell>
        <mxCell id="JNVpyMmq69oR40ZpW95g-216" style="shape=tableRow;horizontal=0;startSize=0;swimlaneHead=0;swimlaneBody=0;fillColor=none;collapsible=0;dropTarget=0;points=[[0,0.5],[1,0.5]];portConstraint=eastwest;top=0;left=0;right=0;bottom=0;" vertex="1" parent="JNVpyMmq69oR40ZpW95g-212">
          <mxGeometry y="47" width="240" height="22" as="geometry" />
        </mxCell>
        <mxCell id="JNVpyMmq69oR40ZpW95g-217" value="MegaW" style="shape=partialRectangle;connectable=0;fillColor=none;top=0;left=0;bottom=0;right=0;align=left;spacingLeft=2;overflow=hidden;fontSize=11;" vertex="1" parent="JNVpyMmq69oR40ZpW95g-216">
          <mxGeometry width="50" height="22" as="geometry">
            <mxRectangle width="50" height="22" as="alternateBounds" />
          </mxGeometry>
        </mxCell>
        <mxCell id="JNVpyMmq69oR40ZpW95g-218" value="generation_contracted_capacity" style="shape=partialRectangle;connectable=0;fillColor=none;top=0;left=0;bottom=0;right=0;align=left;spacingLeft=2;overflow=hidden;fontSize=11;" vertex="1" parent="JNVpyMmq69oR40ZpW95g-216">
          <mxGeometry x="50" width="190" height="22" as="geometry">
            <mxRectangle width="190" height="22" as="alternateBounds" />
          </mxGeometry>
        </mxCell>
        <mxCell id="JNVpyMmq69oR40ZpW95g-219" style="shape=tableRow;horizontal=0;startSize=0;swimlaneHead=0;swimlaneBody=0;fillColor=none;collapsible=0;dropTarget=0;points=[[0,0.5],[1,0.5]];portConstraint=eastwest;top=0;left=0;right=0;bottom=0;" vertex="1" parent="JNVpyMmq69oR40ZpW95g-212">
          <mxGeometry y="69" width="240" height="22" as="geometry" />
        </mxCell>
        <mxCell id="JNVpyMmq69oR40ZpW95g-220" value="MegaW" style="shape=partialRectangle;connectable=0;fillColor=none;top=0;left=0;bottom=0;right=0;align=left;spacingLeft=2;overflow=hidden;fontSize=11;" vertex="1" parent="JNVpyMmq69oR40ZpW95g-219">
          <mxGeometry width="50" height="22" as="geometry">
            <mxRectangle width="50" height="22" as="alternateBounds" />
          </mxGeometry>
        </mxCell>
        <mxCell id="JNVpyMmq69oR40ZpW95g-221" value="generation_quoted_capacity" style="shape=partialRectangle;connectable=0;fillColor=none;top=0;left=0;bottom=0;right=0;align=left;spacingLeft=2;overflow=hidden;fontSize=11;" vertex="1" parent="JNVpyMmq69oR40ZpW95g-219">
          <mxGeometry x="50" width="190" height="22" as="geometry">
            <mxRectangle width="190" height="22" as="alternateBounds" />
          </mxGeometry>
        </mxCell>
        <mxCell id="JNVpyMmq69oR40ZpW95g-222" style="shape=tableRow;horizontal=0;startSize=0;swimlaneHead=0;swimlaneBody=0;fillColor=none;collapsible=0;dropTarget=0;points=[[0,0.5],[1,0.5]];portConstraint=eastwest;top=0;left=0;right=0;bottom=0;" vertex="1" parent="JNVpyMmq69oR40ZpW95g-212">
          <mxGeometry y="91" width="240" height="22" as="geometry" />
        </mxCell>
        <mxCell id="JNVpyMmq69oR40ZpW95g-223" value="KiloV" style="shape=partialRectangle;connectable=0;fillColor=none;top=0;left=0;bottom=0;right=0;align=left;spacingLeft=2;overflow=hidden;fontSize=11;" vertex="1" parent="JNVpyMmq69oR40ZpW95g-222">
          <mxGeometry width="50" height="22" as="geometry">
            <mxRectangle width="50" height="22" as="alternateBounds" />
          </mxGeometry>
        </mxCell>
        <mxCell id="JNVpyMmq69oR40ZpW95g-224" value="voltage" style="shape=partialRectangle;connectable=0;fillColor=none;top=0;left=0;bottom=0;right=0;align=left;spacingLeft=2;overflow=hidden;fontSize=11;" vertex="1" parent="JNVpyMmq69oR40ZpW95g-222">
          <mxGeometry x="50" width="190" height="22" as="geometry">
            <mxRectangle width="190" height="22" as="alternateBounds" />
          </mxGeometry>
        </mxCell>
        <mxCell id="JNVpyMmq69oR40ZpW95g-225" style="shape=tableRow;horizontal=0;startSize=0;swimlaneHead=0;swimlaneBody=0;fillColor=none;collapsible=0;dropTarget=0;points=[[0,0.5],[1,0.5]];portConstraint=eastwest;top=0;left=0;right=0;bottom=0;" vertex="1" parent="JNVpyMmq69oR40ZpW95g-212">
          <mxGeometry y="113" width="240" height="22" as="geometry" />
        </mxCell>
        <mxCell id="JNVpyMmq69oR40ZpW95g-226" value="string" style="shape=partialRectangle;connectable=0;fillColor=none;top=0;left=0;bottom=0;right=0;align=left;spacingLeft=2;overflow=hidden;fontSize=11;" vertex="1" parent="JNVpyMmq69oR40ZpW95g-225">
          <mxGeometry width="50" height="22" as="geometry">
            <mxRectangle width="50" height="22" as="alternateBounds" />
          </mxGeometry>
        </mxCell>
        <mxCell id="JNVpyMmq69oR40ZpW95g-227" value="technology_type" style="shape=partialRectangle;connectable=0;fillColor=none;top=0;left=0;bottom=0;right=0;align=left;spacingLeft=2;overflow=hidden;fontSize=11;" vertex="1" parent="JNVpyMmq69oR40ZpW95g-225">
          <mxGeometry x="50" width="190" height="22" as="geometry">
            <mxRectangle width="190" height="22" as="alternateBounds" />
          </mxGeometry>
        </mxCell>
        <mxCell id="JNVpyMmq69oR40ZpW95g-228" style="shape=tableRow;horizontal=0;startSize=0;swimlaneHead=0;swimlaneBody=0;fillColor=none;collapsible=0;dropTarget=0;points=[[0,0.5],[1,0.5]];portConstraint=eastwest;top=0;left=0;right=0;bottom=0;" vertex="1" parent="JNVpyMmq69oR40ZpW95g-212">
          <mxGeometry y="135" width="240" height="22" as="geometry" />
        </mxCell>
        <mxCell id="JNVpyMmq69oR40ZpW95g-229" value="boolean" style="shape=partialRectangle;connectable=0;fillColor=none;top=0;left=0;bottom=0;right=0;align=left;spacingLeft=2;overflow=hidden;fontSize=11;" vertex="1" parent="JNVpyMmq69oR40ZpW95g-228">
          <mxGeometry width="50" height="22" as="geometry">
            <mxRectangle width="50" height="22" as="alternateBounds" />
          </mxGeometry>
        </mxCell>
        <mxCell id="JNVpyMmq69oR40ZpW95g-230" value="aggregate" style="shape=partialRectangle;connectable=0;fillColor=none;top=0;left=0;bottom=0;right=0;align=left;spacingLeft=2;overflow=hidden;fontSize=11;" vertex="1" parent="JNVpyMmq69oR40ZpW95g-228">
          <mxGeometry x="50" width="190" height="22" as="geometry">
            <mxRectangle width="190" height="22" as="alternateBounds" />
          </mxGeometry>
        </mxCell>
        <mxCell id="JNVpyMmq69oR40ZpW95g-231" style="shape=tableRow;horizontal=0;startSize=0;swimlaneHead=0;swimlaneBody=0;fillColor=none;collapsible=0;dropTarget=0;points=[[0,0.5],[1,0.5]];portConstraint=eastwest;top=0;left=0;right=0;bottom=0;" vertex="1" parent="JNVpyMmq69oR40ZpW95g-212">
          <mxGeometry y="157" width="240" height="22" as="geometry" />
        </mxCell>
        <mxCell id="JNVpyMmq69oR40ZpW95g-232" value="string" style="shape=partialRectangle;connectable=0;fillColor=none;top=0;left=0;bottom=0;right=0;align=left;spacingLeft=2;overflow=hidden;fontSize=11;" vertex="1" parent="JNVpyMmq69oR40ZpW95g-231">
          <mxGeometry width="50" height="22" as="geometry">
            <mxRectangle width="50" height="22" as="alternateBounds" />
          </mxGeometry>
        </mxCell>
        <mxCell id="JNVpyMmq69oR40ZpW95g-233" value="description" style="shape=partialRectangle;connectable=0;fillColor=none;top=0;left=0;bottom=0;right=0;align=left;spacingLeft=2;overflow=hidden;fontSize=11;" vertex="1" parent="JNVpyMmq69oR40ZpW95g-231">
          <mxGeometry x="50" width="190" height="22" as="geometry">
            <mxRectangle width="190" height="22" as="alternateBounds" />
          </mxGeometry>
        </mxCell>
        <mxCell id="JNVpyMmq69oR40ZpW95g-234" style="shape=tableRow;horizontal=0;startSize=0;swimlaneHead=0;swimlaneBody=0;fillColor=none;collapsible=0;dropTarget=0;points=[[0,0.5],[1,0.5]];portConstraint=eastwest;top=0;left=0;right=0;bottom=0;" vertex="1" parent="JNVpyMmq69oR40ZpW95g-212">
          <mxGeometry y="179" width="240" height="22" as="geometry" />
        </mxCell>
        <mxCell id="JNVpyMmq69oR40ZpW95g-235" value="string" style="shape=partialRectangle;connectable=0;fillColor=none;top=0;left=0;bottom=0;right=0;align=left;spacingLeft=2;overflow=hidden;fontSize=11;" vertex="1" parent="JNVpyMmq69oR40ZpW95g-234">
          <mxGeometry width="50" height="22" as="geometry">
            <mxRectangle width="50" height="22" as="alternateBounds" />
          </mxGeometry>
        </mxCell>
        <mxCell id="JNVpyMmq69oR40ZpW95g-236" value="m_rid" style="shape=partialRectangle;connectable=0;fillColor=none;top=0;left=0;bottom=0;right=0;align=left;spacingLeft=2;overflow=hidden;fontSize=11;" vertex="1" parent="JNVpyMmq69oR40ZpW95g-234">
          <mxGeometry x="50" width="190" height="22" as="geometry">
            <mxRectangle width="190" height="22" as="alternateBounds" />
          </mxGeometry>
        </mxCell>
        <mxCell id="JNVpyMmq69oR40ZpW95g-237" value="Storage" style="shape=table;startSize=25;container=1;collapsible=0;childLayout=tableLayout;fixedRows=1;rowLines=1;fontStyle=1;align=center;resizeLast=1;fillColor=#dae8fc;strokeColor=#6c8ebf;" vertex="1" parent="1">
          <mxGeometry x="920" y="320" width="240" height="267" as="geometry" />
        </mxCell>
        <mxCell id="JNVpyMmq69oR40ZpW95g-238" style="shape=tableRow;horizontal=0;startSize=0;swimlaneHead=0;swimlaneBody=0;fillColor=none;collapsible=0;dropTarget=0;points=[[0,0.5],[1,0.5]];portConstraint=eastwest;top=0;left=0;right=0;bottom=0;" vertex="1" parent="JNVpyMmq69oR40ZpW95g-237">
          <mxGeometry y="25" width="240" height="22" as="geometry" />
        </mxCell>
        <mxCell id="JNVpyMmq69oR40ZpW95g-239" value="MegaW" style="shape=partialRectangle;connectable=0;fillColor=none;top=0;left=0;bottom=0;right=0;align=left;spacingLeft=2;overflow=hidden;fontSize=11;" vertex="1" parent="JNVpyMmq69oR40ZpW95g-238">
          <mxGeometry width="50" height="22" as="geometry">
            <mxRectangle width="50" height="22" as="alternateBounds" />
          </mxGeometry>
        </mxCell>
        <mxCell id="JNVpyMmq69oR40ZpW95g-240" value="demand_contracted_capacity" style="shape=partialRectangle;connectable=0;fillColor=none;top=0;left=0;bottom=0;right=0;align=left;spacingLeft=2;overflow=hidden;fontSize=11;" vertex="1" parent="JNVpyMmq69oR40ZpW95g-238">
          <mxGeometry x="50" width="190" height="22" as="geometry">
            <mxRectangle width="190" height="22" as="alternateBounds" />
          </mxGeometry>
        </mxCell>
        <mxCell id="JNVpyMmq69oR40ZpW95g-241" style="shape=tableRow;horizontal=0;startSize=0;swimlaneHead=0;swimlaneBody=0;fillColor=none;collapsible=0;dropTarget=0;points=[[0,0.5],[1,0.5]];portConstraint=eastwest;top=0;left=0;right=0;bottom=0;" vertex="1" parent="JNVpyMmq69oR40ZpW95g-237">
          <mxGeometry y="47" width="240" height="22" as="geometry" />
        </mxCell>
        <mxCell id="JNVpyMmq69oR40ZpW95g-242" value="MegaW" style="shape=partialRectangle;connectable=0;fillColor=none;top=0;left=0;bottom=0;right=0;align=left;spacingLeft=2;overflow=hidden;fontSize=11;" vertex="1" parent="JNVpyMmq69oR40ZpW95g-241">
          <mxGeometry width="50" height="22" as="geometry">
            <mxRectangle width="50" height="22" as="alternateBounds" />
          </mxGeometry>
        </mxCell>
        <mxCell id="JNVpyMmq69oR40ZpW95g-243" value="demand_connected_capacity" style="shape=partialRectangle;connectable=0;fillColor=none;top=0;left=0;bottom=0;right=0;align=left;spacingLeft=2;overflow=hidden;fontSize=11;" vertex="1" parent="JNVpyMmq69oR40ZpW95g-241">
          <mxGeometry x="50" width="190" height="22" as="geometry">
            <mxRectangle width="190" height="22" as="alternateBounds" />
          </mxGeometry>
        </mxCell>
        <mxCell id="JNVpyMmq69oR40ZpW95g-244" style="shape=tableRow;horizontal=0;startSize=0;swimlaneHead=0;swimlaneBody=0;fillColor=none;collapsible=0;dropTarget=0;points=[[0,0.5],[1,0.5]];portConstraint=eastwest;top=0;left=0;right=0;bottom=0;" vertex="1" parent="JNVpyMmq69oR40ZpW95g-237">
          <mxGeometry y="69" width="240" height="22" as="geometry" />
        </mxCell>
        <mxCell id="JNVpyMmq69oR40ZpW95g-245" value="MegaW" style="shape=partialRectangle;connectable=0;fillColor=none;top=0;left=0;bottom=0;right=0;align=left;spacingLeft=2;overflow=hidden;fontSize=11;" vertex="1" parent="JNVpyMmq69oR40ZpW95g-244">
          <mxGeometry width="50" height="22" as="geometry">
            <mxRectangle width="50" height="22" as="alternateBounds" />
          </mxGeometry>
        </mxCell>
        <mxCell id="JNVpyMmq69oR40ZpW95g-246" value="demand_quoted_capacity" style="shape=partialRectangle;connectable=0;fillColor=none;top=0;left=0;bottom=0;right=0;align=left;spacingLeft=2;overflow=hidden;fontSize=11;" vertex="1" parent="JNVpyMmq69oR40ZpW95g-244">
          <mxGeometry x="50" width="190" height="22" as="geometry">
            <mxRectangle width="190" height="22" as="alternateBounds" />
          </mxGeometry>
        </mxCell>
        <mxCell id="JNVpyMmq69oR40ZpW95g-247" style="shape=tableRow;horizontal=0;startSize=0;swimlaneHead=0;swimlaneBody=0;fillColor=none;collapsible=0;dropTarget=0;points=[[0,0.5],[1,0.5]];portConstraint=eastwest;top=0;left=0;right=0;bottom=0;" vertex="1" parent="JNVpyMmq69oR40ZpW95g-237">
          <mxGeometry y="91" width="240" height="22" as="geometry" />
        </mxCell>
        <mxCell id="JNVpyMmq69oR40ZpW95g-248" value="MegaW" style="shape=partialRectangle;connectable=0;fillColor=none;top=0;left=0;bottom=0;right=0;align=left;spacingLeft=2;overflow=hidden;fontSize=11;" vertex="1" parent="JNVpyMmq69oR40ZpW95g-247">
          <mxGeometry width="50" height="22" as="geometry">
            <mxRectangle width="50" height="22" as="alternateBounds" />
          </mxGeometry>
        </mxCell>
        <mxCell id="JNVpyMmq69oR40ZpW95g-249" value="generation_connected_capacity" style="shape=partialRectangle;connectable=0;fillColor=none;top=0;left=0;bottom=0;right=0;align=left;spacingLeft=2;overflow=hidden;fontSize=11;" vertex="1" parent="JNVpyMmq69oR40ZpW95g-247">
          <mxGeometry x="50" width="190" height="22" as="geometry">
            <mxRectangle width="190" height="22" as="alternateBounds" />
          </mxGeometry>
        </mxCell>
        <mxCell id="JNVpyMmq69oR40ZpW95g-250" style="shape=tableRow;horizontal=0;startSize=0;swimlaneHead=0;swimlaneBody=0;fillColor=none;collapsible=0;dropTarget=0;points=[[0,0.5],[1,0.5]];portConstraint=eastwest;top=0;left=0;right=0;bottom=0;" vertex="1" parent="JNVpyMmq69oR40ZpW95g-237">
          <mxGeometry y="113" width="240" height="22" as="geometry" />
        </mxCell>
        <mxCell id="JNVpyMmq69oR40ZpW95g-251" value="MegaW" style="shape=partialRectangle;connectable=0;fillColor=none;top=0;left=0;bottom=0;right=0;align=left;spacingLeft=2;overflow=hidden;fontSize=11;" vertex="1" parent="JNVpyMmq69oR40ZpW95g-250">
          <mxGeometry width="50" height="22" as="geometry">
            <mxRectangle width="50" height="22" as="alternateBounds" />
          </mxGeometry>
        </mxCell>
        <mxCell id="JNVpyMmq69oR40ZpW95g-252" value="generation_contracted_capacity" style="shape=partialRectangle;connectable=0;fillColor=none;top=0;left=0;bottom=0;right=0;align=left;spacingLeft=2;overflow=hidden;fontSize=11;" vertex="1" parent="JNVpyMmq69oR40ZpW95g-250">
          <mxGeometry x="50" width="190" height="22" as="geometry">
            <mxRectangle width="190" height="22" as="alternateBounds" />
          </mxGeometry>
        </mxCell>
        <mxCell id="JNVpyMmq69oR40ZpW95g-253" style="shape=tableRow;horizontal=0;startSize=0;swimlaneHead=0;swimlaneBody=0;fillColor=none;collapsible=0;dropTarget=0;points=[[0,0.5],[1,0.5]];portConstraint=eastwest;top=0;left=0;right=0;bottom=0;" vertex="1" parent="JNVpyMmq69oR40ZpW95g-237">
          <mxGeometry y="135" width="240" height="22" as="geometry" />
        </mxCell>
        <mxCell id="JNVpyMmq69oR40ZpW95g-254" value="MegaW" style="shape=partialRectangle;connectable=0;fillColor=none;top=0;left=0;bottom=0;right=0;align=left;spacingLeft=2;overflow=hidden;fontSize=11;" vertex="1" parent="JNVpyMmq69oR40ZpW95g-253">
          <mxGeometry width="50" height="22" as="geometry">
            <mxRectangle width="50" height="22" as="alternateBounds" />
          </mxGeometry>
        </mxCell>
        <mxCell id="JNVpyMmq69oR40ZpW95g-255" value="generation_quoted_capacity" style="shape=partialRectangle;connectable=0;fillColor=none;top=0;left=0;bottom=0;right=0;align=left;spacingLeft=2;overflow=hidden;fontSize=11;" vertex="1" parent="JNVpyMmq69oR40ZpW95g-253">
          <mxGeometry x="50" width="190" height="22" as="geometry">
            <mxRectangle width="190" height="22" as="alternateBounds" />
          </mxGeometry>
        </mxCell>
        <mxCell id="JNVpyMmq69oR40ZpW95g-256" style="shape=tableRow;horizontal=0;startSize=0;swimlaneHead=0;swimlaneBody=0;fillColor=none;collapsible=0;dropTarget=0;points=[[0,0.5],[1,0.5]];portConstraint=eastwest;top=0;left=0;right=0;bottom=0;" vertex="1" parent="JNVpyMmq69oR40ZpW95g-237">
          <mxGeometry y="157" width="240" height="22" as="geometry" />
        </mxCell>
        <mxCell id="JNVpyMmq69oR40ZpW95g-257" value="KiloV" style="shape=partialRectangle;connectable=0;fillColor=none;top=0;left=0;bottom=0;right=0;align=left;spacingLeft=2;overflow=hidden;fontSize=11;" vertex="1" parent="JNVpyMmq69oR40ZpW95g-256">
          <mxGeometry width="50" height="22" as="geometry">
            <mxRectangle width="50" height="22" as="alternateBounds" />
          </mxGeometry>
        </mxCell>
        <mxCell id="JNVpyMmq69oR40ZpW95g-258" value="voltage" style="shape=partialRectangle;connectable=0;fillColor=none;top=0;left=0;bottom=0;right=0;align=left;spacingLeft=2;overflow=hidden;fontSize=11;" vertex="1" parent="JNVpyMmq69oR40ZpW95g-256">
          <mxGeometry x="50" width="190" height="22" as="geometry">
            <mxRectangle width="190" height="22" as="alternateBounds" />
          </mxGeometry>
        </mxCell>
        <mxCell id="JNVpyMmq69oR40ZpW95g-259" style="shape=tableRow;horizontal=0;startSize=0;swimlaneHead=0;swimlaneBody=0;fillColor=none;collapsible=0;dropTarget=0;points=[[0,0.5],[1,0.5]];portConstraint=eastwest;top=0;left=0;right=0;bottom=0;" vertex="1" parent="JNVpyMmq69oR40ZpW95g-237">
          <mxGeometry y="179" width="240" height="22" as="geometry" />
        </mxCell>
        <mxCell id="JNVpyMmq69oR40ZpW95g-260" value="string" style="shape=partialRectangle;connectable=0;fillColor=none;top=0;left=0;bottom=0;right=0;align=left;spacingLeft=2;overflow=hidden;fontSize=11;" vertex="1" parent="JNVpyMmq69oR40ZpW95g-259">
          <mxGeometry width="50" height="22" as="geometry">
            <mxRectangle width="50" height="22" as="alternateBounds" />
          </mxGeometry>
        </mxCell>
        <mxCell id="JNVpyMmq69oR40ZpW95g-261" value="technology_type" style="shape=partialRectangle;connectable=0;fillColor=none;top=0;left=0;bottom=0;right=0;align=left;spacingLeft=2;overflow=hidden;fontSize=11;" vertex="1" parent="JNVpyMmq69oR40ZpW95g-259">
          <mxGeometry x="50" width="190" height="22" as="geometry">
            <mxRectangle width="190" height="22" as="alternateBounds" />
          </mxGeometry>
        </mxCell>
        <mxCell id="JNVpyMmq69oR40ZpW95g-262" style="shape=tableRow;horizontal=0;startSize=0;swimlaneHead=0;swimlaneBody=0;fillColor=none;collapsible=0;dropTarget=0;points=[[0,0.5],[1,0.5]];portConstraint=eastwest;top=0;left=0;right=0;bottom=0;" vertex="1" parent="JNVpyMmq69oR40ZpW95g-237">
          <mxGeometry y="201" width="240" height="22" as="geometry" />
        </mxCell>
        <mxCell id="JNVpyMmq69oR40ZpW95g-263" value="boolean" style="shape=partialRectangle;connectable=0;fillColor=none;top=0;left=0;bottom=0;right=0;align=left;spacingLeft=2;overflow=hidden;fontSize=11;" vertex="1" parent="JNVpyMmq69oR40ZpW95g-262">
          <mxGeometry width="50" height="22" as="geometry">
            <mxRectangle width="50" height="22" as="alternateBounds" />
          </mxGeometry>
        </mxCell>
        <mxCell id="JNVpyMmq69oR40ZpW95g-264" value="aggregate" style="shape=partialRectangle;connectable=0;fillColor=none;top=0;left=0;bottom=0;right=0;align=left;spacingLeft=2;overflow=hidden;fontSize=11;" vertex="1" parent="JNVpyMmq69oR40ZpW95g-262">
          <mxGeometry x="50" width="190" height="22" as="geometry">
            <mxRectangle width="190" height="22" as="alternateBounds" />
          </mxGeometry>
        </mxCell>
        <mxCell id="JNVpyMmq69oR40ZpW95g-265" style="shape=tableRow;horizontal=0;startSize=0;swimlaneHead=0;swimlaneBody=0;fillColor=none;collapsible=0;dropTarget=0;points=[[0,0.5],[1,0.5]];portConstraint=eastwest;top=0;left=0;right=0;bottom=0;" vertex="1" parent="JNVpyMmq69oR40ZpW95g-237">
          <mxGeometry y="223" width="240" height="22" as="geometry" />
        </mxCell>
        <mxCell id="JNVpyMmq69oR40ZpW95g-266" value="string" style="shape=partialRectangle;connectable=0;fillColor=none;top=0;left=0;bottom=0;right=0;align=left;spacingLeft=2;overflow=hidden;fontSize=11;" vertex="1" parent="JNVpyMmq69oR40ZpW95g-265">
          <mxGeometry width="50" height="22" as="geometry">
            <mxRectangle width="50" height="22" as="alternateBounds" />
          </mxGeometry>
        </mxCell>
        <mxCell id="JNVpyMmq69oR40ZpW95g-267" value="description" style="shape=partialRectangle;connectable=0;fillColor=none;top=0;left=0;bottom=0;right=0;align=left;spacingLeft=2;overflow=hidden;fontSize=11;" vertex="1" parent="JNVpyMmq69oR40ZpW95g-265">
          <mxGeometry x="50" width="190" height="22" as="geometry">
            <mxRectangle width="190" height="22" as="alternateBounds" />
          </mxGeometry>
        </mxCell>
        <mxCell id="JNVpyMmq69oR40ZpW95g-268" style="shape=tableRow;horizontal=0;startSize=0;swimlaneHead=0;swimlaneBody=0;fillColor=none;collapsible=0;dropTarget=0;points=[[0,0.5],[1,0.5]];portConstraint=eastwest;top=0;left=0;right=0;bottom=0;" vertex="1" parent="JNVpyMmq69oR40ZpW95g-237">
          <mxGeometry y="245" width="240" height="22" as="geometry" />
        </mxCell>
        <mxCell id="JNVpyMmq69oR40ZpW95g-269" value="string" style="shape=partialRectangle;connectable=0;fillColor=none;top=0;left=0;bottom=0;right=0;align=left;spacingLeft=2;overflow=hidden;fontSize=11;" vertex="1" parent="JNVpyMmq69oR40ZpW95g-268">
          <mxGeometry width="50" height="22" as="geometry">
            <mxRectangle width="50" height="22" as="alternateBounds" />
          </mxGeometry>
        </mxCell>
        <mxCell id="JNVpyMmq69oR40ZpW95g-270" value="m_rid" style="shape=partialRectangle;connectable=0;fillColor=none;top=0;left=0;bottom=0;right=0;align=left;spacingLeft=2;overflow=hidden;fontSize=11;" vertex="1" parent="JNVpyMmq69oR40ZpW95g-268">
          <mxGeometry x="50" width="190" height="22" as="geometry">
            <mxRectangle width="190" height="22" as="alternateBounds" />
          </mxGeometry>
        </mxCell>
        <mxCell id="JNVpyMmq69oR40ZpW95g-271" value="Constraint" style="shape=table;startSize=25;container=1;collapsible=0;childLayout=tableLayout;fixedRows=1;rowLines=1;fontStyle=1;align=center;resizeLast=1;fillColor=#dae8fc;strokeColor=#6c8ebf;" vertex="1" parent="1">
          <mxGeometry x="1425" y="171" width="120" height="69" as="geometry" />
        </mxCell>
        <mxCell id="JNVpyMmq69oR40ZpW95g-272" style="shape=tableRow;horizontal=0;startSize=0;swimlaneHead=0;swimlaneBody=0;fillColor=none;collapsible=0;dropTarget=0;points=[[0,0.5],[1,0.5]];portConstraint=eastwest;top=0;left=0;right=0;bottom=0;" vertex="1" parent="JNVpyMmq69oR40ZpW95g-271">
          <mxGeometry y="25" width="120" height="22" as="geometry" />
        </mxCell>
        <mxCell id="JNVpyMmq69oR40ZpW95g-273" value="string" style="shape=partialRectangle;connectable=0;fillColor=none;top=0;left=0;bottom=0;right=0;align=left;spacingLeft=2;overflow=hidden;fontSize=11;" vertex="1" parent="JNVpyMmq69oR40ZpW95g-272">
          <mxGeometry width="36" height="22" as="geometry">
            <mxRectangle width="36" height="22" as="alternateBounds" />
          </mxGeometry>
        </mxCell>
        <mxCell id="JNVpyMmq69oR40ZpW95g-274" value="description" style="shape=partialRectangle;connectable=0;fillColor=none;top=0;left=0;bottom=0;right=0;align=left;spacingLeft=2;overflow=hidden;fontSize=11;" vertex="1" parent="JNVpyMmq69oR40ZpW95g-272">
          <mxGeometry x="36" width="84" height="22" as="geometry">
            <mxRectangle width="84" height="22" as="alternateBounds" />
          </mxGeometry>
        </mxCell>
        <mxCell id="JNVpyMmq69oR40ZpW95g-275" style="shape=tableRow;horizontal=0;startSize=0;swimlaneHead=0;swimlaneBody=0;fillColor=none;collapsible=0;dropTarget=0;points=[[0,0.5],[1,0.5]];portConstraint=eastwest;top=0;left=0;right=0;bottom=0;" vertex="1" parent="JNVpyMmq69oR40ZpW95g-271">
          <mxGeometry y="47" width="120" height="22" as="geometry" />
        </mxCell>
        <mxCell id="JNVpyMmq69oR40ZpW95g-276" value="string" style="shape=partialRectangle;connectable=0;fillColor=none;top=0;left=0;bottom=0;right=0;align=left;spacingLeft=2;overflow=hidden;fontSize=11;" vertex="1" parent="JNVpyMmq69oR40ZpW95g-275">
          <mxGeometry width="36" height="22" as="geometry">
            <mxRectangle width="36" height="22" as="alternateBounds" />
          </mxGeometry>
        </mxCell>
        <mxCell id="JNVpyMmq69oR40ZpW95g-277" value="type" style="shape=partialRectangle;connectable=0;fillColor=none;top=0;left=0;bottom=0;right=0;align=left;spacingLeft=2;overflow=hidden;fontSize=11;" vertex="1" parent="JNVpyMmq69oR40ZpW95g-275">
          <mxGeometry x="36" width="84" height="22" as="geometry">
            <mxRectangle width="84" height="22" as="alternateBounds" />
          </mxGeometry>
        </mxCell>
        <mxCell id="JNVpyMmq69oR40ZpW95g-278" value="Curtailment" style="shape=table;startSize=25;container=1;collapsible=0;childLayout=tableLayout;fixedRows=1;rowLines=1;fontStyle=1;align=center;resizeLast=1;fillColor=#dae8fc;strokeColor=#6c8ebf;" vertex="1" parent="1">
          <mxGeometry x="440" y="1058" width="180" height="201" as="geometry" />
        </mxCell>
        <mxCell id="JNVpyMmq69oR40ZpW95g-279" style="shape=tableRow;horizontal=0;startSize=0;swimlaneHead=0;swimlaneBody=0;fillColor=none;collapsible=0;dropTarget=0;points=[[0,0.5],[1,0.5]];portConstraint=eastwest;top=0;left=0;right=0;bottom=0;" vertex="1" parent="JNVpyMmq69oR40ZpW95g-278">
          <mxGeometry y="25" width="180" height="22" as="geometry" />
        </mxCell>
        <mxCell id="JNVpyMmq69oR40ZpW95g-280" value="string" style="shape=partialRectangle;connectable=0;fillColor=none;top=0;left=0;bottom=0;right=0;align=left;spacingLeft=2;overflow=hidden;fontSize=11;" vertex="1" parent="JNVpyMmq69oR40ZpW95g-279">
          <mxGeometry width="90" height="22" as="geometry">
            <mxRectangle width="90" height="22" as="alternateBounds" />
          </mxGeometry>
        </mxCell>
        <mxCell id="JNVpyMmq69oR40ZpW95g-281" value="description" style="shape=partialRectangle;connectable=0;fillColor=none;top=0;left=0;bottom=0;right=0;align=left;spacingLeft=2;overflow=hidden;fontSize=11;" vertex="1" parent="JNVpyMmq69oR40ZpW95g-279">
          <mxGeometry x="90" width="90" height="22" as="geometry">
            <mxRectangle width="90" height="22" as="alternateBounds" />
          </mxGeometry>
        </mxCell>
        <mxCell id="JNVpyMmq69oR40ZpW95g-282" style="shape=tableRow;horizontal=0;startSize=0;swimlaneHead=0;swimlaneBody=0;fillColor=none;collapsible=0;dropTarget=0;points=[[0,0.5],[1,0.5]];portConstraint=eastwest;top=0;left=0;right=0;bottom=0;" vertex="1" parent="JNVpyMmq69oR40ZpW95g-278">
          <mxGeometry y="47" width="180" height="22" as="geometry" />
        </mxCell>
        <mxCell id="JNVpyMmq69oR40ZpW95g-283" value="CurtailmentKind" style="shape=partialRectangle;connectable=0;fillColor=none;top=0;left=0;bottom=0;right=0;align=left;spacingLeft=2;overflow=hidden;fontSize=11;" vertex="1" parent="JNVpyMmq69oR40ZpW95g-282">
          <mxGeometry width="90" height="22" as="geometry">
            <mxRectangle width="90" height="22" as="alternateBounds" />
          </mxGeometry>
        </mxCell>
        <mxCell id="JNVpyMmq69oR40ZpW95g-284" value="type" style="shape=partialRectangle;connectable=0;fillColor=none;top=0;left=0;bottom=0;right=0;align=left;spacingLeft=2;overflow=hidden;fontSize=11;" vertex="1" parent="JNVpyMmq69oR40ZpW95g-282">
          <mxGeometry x="90" width="90" height="22" as="geometry">
            <mxRectangle width="90" height="22" as="alternateBounds" />
          </mxGeometry>
        </mxCell>
        <mxCell id="JNVpyMmq69oR40ZpW95g-285" style="shape=tableRow;horizontal=0;startSize=0;swimlaneHead=0;swimlaneBody=0;fillColor=none;collapsible=0;dropTarget=0;points=[[0,0.5],[1,0.5]];portConstraint=eastwest;top=0;left=0;right=0;bottom=0;" vertex="1" parent="JNVpyMmq69oR40ZpW95g-278">
          <mxGeometry y="69" width="180" height="22" as="geometry" />
        </mxCell>
        <mxCell id="JNVpyMmq69oR40ZpW95g-286" value="MegaW" style="shape=partialRectangle;connectable=0;fillColor=none;top=0;left=0;bottom=0;right=0;align=left;spacingLeft=2;overflow=hidden;fontSize=11;" vertex="1" parent="JNVpyMmq69oR40ZpW95g-285">
          <mxGeometry width="90" height="22" as="geometry">
            <mxRectangle width="90" height="22" as="alternateBounds" />
          </mxGeometry>
        </mxCell>
        <mxCell id="JNVpyMmq69oR40ZpW95g-287" value="curtailed_by" style="shape=partialRectangle;connectable=0;fillColor=none;top=0;left=0;bottom=0;right=0;align=left;spacingLeft=2;overflow=hidden;fontSize=11;" vertex="1" parent="JNVpyMmq69oR40ZpW95g-285">
          <mxGeometry x="90" width="90" height="22" as="geometry">
            <mxRectangle width="90" height="22" as="alternateBounds" />
          </mxGeometry>
        </mxCell>
        <mxCell id="JNVpyMmq69oR40ZpW95g-288" style="shape=tableRow;horizontal=0;startSize=0;swimlaneHead=0;swimlaneBody=0;fillColor=none;collapsible=0;dropTarget=0;points=[[0,0.5],[1,0.5]];portConstraint=eastwest;top=0;left=0;right=0;bottom=0;" vertex="1" parent="JNVpyMmq69oR40ZpW95g-278">
          <mxGeometry y="91" width="180" height="22" as="geometry" />
        </mxCell>
        <mxCell id="JNVpyMmq69oR40ZpW95g-289" value="string" style="shape=partialRectangle;connectable=0;fillColor=none;top=0;left=0;bottom=0;right=0;align=left;spacingLeft=2;overflow=hidden;fontSize=11;" vertex="1" parent="JNVpyMmq69oR40ZpW95g-288">
          <mxGeometry width="90" height="22" as="geometry">
            <mxRectangle width="90" height="22" as="alternateBounds" />
          </mxGeometry>
        </mxCell>
        <mxCell id="JNVpyMmq69oR40ZpW95g-290" value="technology_type" style="shape=partialRectangle;connectable=0;fillColor=none;top=0;left=0;bottom=0;right=0;align=left;spacingLeft=2;overflow=hidden;fontSize=11;" vertex="1" parent="JNVpyMmq69oR40ZpW95g-288">
          <mxGeometry x="90" width="90" height="22" as="geometry">
            <mxRectangle width="90" height="22" as="alternateBounds" />
          </mxGeometry>
        </mxCell>
        <mxCell id="JNVpyMmq69oR40ZpW95g-291" style="shape=tableRow;horizontal=0;startSize=0;swimlaneHead=0;swimlaneBody=0;fillColor=none;collapsible=0;dropTarget=0;points=[[0,0.5],[1,0.5]];portConstraint=eastwest;top=0;left=0;right=0;bottom=0;" vertex="1" parent="JNVpyMmq69oR40ZpW95g-278">
          <mxGeometry y="113" width="180" height="22" as="geometry" />
        </mxCell>
        <mxCell id="JNVpyMmq69oR40ZpW95g-292" value="SeasonKind" style="shape=partialRectangle;connectable=0;fillColor=none;top=0;left=0;bottom=0;right=0;align=left;spacingLeft=2;overflow=hidden;fontSize=11;" vertex="1" parent="JNVpyMmq69oR40ZpW95g-291">
          <mxGeometry width="90" height="22" as="geometry">
            <mxRectangle width="90" height="22" as="alternateBounds" />
          </mxGeometry>
        </mxCell>
        <mxCell id="JNVpyMmq69oR40ZpW95g-293" value="season" style="shape=partialRectangle;connectable=0;fillColor=none;top=0;left=0;bottom=0;right=0;align=left;spacingLeft=2;overflow=hidden;fontSize=11;" vertex="1" parent="JNVpyMmq69oR40ZpW95g-291">
          <mxGeometry x="90" width="90" height="22" as="geometry">
            <mxRectangle width="90" height="22" as="alternateBounds" />
          </mxGeometry>
        </mxCell>
        <mxCell id="JNVpyMmq69oR40ZpW95g-294" style="shape=tableRow;horizontal=0;startSize=0;swimlaneHead=0;swimlaneBody=0;fillColor=none;collapsible=0;dropTarget=0;points=[[0,0.5],[1,0.5]];portConstraint=eastwest;top=0;left=0;right=0;bottom=0;" vertex="1" parent="JNVpyMmq69oR40ZpW95g-278">
          <mxGeometry y="135" width="180" height="22" as="geometry" />
        </mxCell>
        <mxCell id="JNVpyMmq69oR40ZpW95g-295" value="DayKind" style="shape=partialRectangle;connectable=0;fillColor=none;top=0;left=0;bottom=0;right=0;align=left;spacingLeft=2;overflow=hidden;fontSize=11;" vertex="1" parent="JNVpyMmq69oR40ZpW95g-294">
          <mxGeometry width="90" height="22" as="geometry">
            <mxRectangle width="90" height="22" as="alternateBounds" />
          </mxGeometry>
        </mxCell>
        <mxCell id="JNVpyMmq69oR40ZpW95g-296" value="day_type" style="shape=partialRectangle;connectable=0;fillColor=none;top=0;left=0;bottom=0;right=0;align=left;spacingLeft=2;overflow=hidden;fontSize=11;" vertex="1" parent="JNVpyMmq69oR40ZpW95g-294">
          <mxGeometry x="90" width="90" height="22" as="geometry">
            <mxRectangle width="90" height="22" as="alternateBounds" />
          </mxGeometry>
        </mxCell>
        <mxCell id="JNVpyMmq69oR40ZpW95g-297" style="shape=tableRow;horizontal=0;startSize=0;swimlaneHead=0;swimlaneBody=0;fillColor=none;collapsible=0;dropTarget=0;points=[[0,0.5],[1,0.5]];portConstraint=eastwest;top=0;left=0;right=0;bottom=0;" vertex="1" parent="JNVpyMmq69oR40ZpW95g-278">
          <mxGeometry y="157" width="180" height="22" as="geometry" />
        </mxCell>
        <mxCell id="JNVpyMmq69oR40ZpW95g-298" value="time" style="shape=partialRectangle;connectable=0;fillColor=none;top=0;left=0;bottom=0;right=0;align=left;spacingLeft=2;overflow=hidden;fontSize=11;" vertex="1" parent="JNVpyMmq69oR40ZpW95g-297">
          <mxGeometry width="90" height="22" as="geometry">
            <mxRectangle width="90" height="22" as="alternateBounds" />
          </mxGeometry>
        </mxCell>
        <mxCell id="JNVpyMmq69oR40ZpW95g-299" value="start_time" style="shape=partialRectangle;connectable=0;fillColor=none;top=0;left=0;bottom=0;right=0;align=left;spacingLeft=2;overflow=hidden;fontSize=11;" vertex="1" parent="JNVpyMmq69oR40ZpW95g-297">
          <mxGeometry x="90" width="90" height="22" as="geometry">
            <mxRectangle width="90" height="22" as="alternateBounds" />
          </mxGeometry>
        </mxCell>
        <mxCell id="JNVpyMmq69oR40ZpW95g-300" style="shape=tableRow;horizontal=0;startSize=0;swimlaneHead=0;swimlaneBody=0;fillColor=none;collapsible=0;dropTarget=0;points=[[0,0.5],[1,0.5]];portConstraint=eastwest;top=0;left=0;right=0;bottom=0;" vertex="1" parent="JNVpyMmq69oR40ZpW95g-278">
          <mxGeometry y="179" width="180" height="22" as="geometry" />
        </mxCell>
        <mxCell id="JNVpyMmq69oR40ZpW95g-301" value="time" style="shape=partialRectangle;connectable=0;fillColor=none;top=0;left=0;bottom=0;right=0;align=left;spacingLeft=2;overflow=hidden;fontSize=11;" vertex="1" parent="JNVpyMmq69oR40ZpW95g-300">
          <mxGeometry width="90" height="22" as="geometry">
            <mxRectangle width="90" height="22" as="alternateBounds" />
          </mxGeometry>
        </mxCell>
        <mxCell id="JNVpyMmq69oR40ZpW95g-302" value="end_time" style="shape=partialRectangle;connectable=0;fillColor=none;top=0;left=0;bottom=0;right=0;align=left;spacingLeft=2;overflow=hidden;fontSize=11;" vertex="1" parent="JNVpyMmq69oR40ZpW95g-300">
          <mxGeometry x="90" width="90" height="22" as="geometry">
            <mxRectangle width="90" height="22" as="alternateBounds" />
          </mxGeometry>
        </mxCell>
        <mxCell id="JNVpyMmq69oR40ZpW95g-303" value="PostcodeArea" style="shape=table;startSize=25;container=1;collapsible=0;childLayout=tableLayout;fixedRows=1;rowLines=1;fontStyle=1;align=center;resizeLast=1;fillColor=#dae8fc;strokeColor=#6c8ebf;" vertex="1" parent="1">
          <mxGeometry x="1320" y="320" width="320" height="465" as="geometry" />
        </mxCell>
        <mxCell id="JNVpyMmq69oR40ZpW95g-304" style="shape=tableRow;horizontal=0;startSize=0;swimlaneHead=0;swimlaneBody=0;fillColor=none;collapsible=0;dropTarget=0;points=[[0,0.5],[1,0.5]];portConstraint=eastwest;top=0;left=0;right=0;bottom=0;" vertex="1" parent="JNVpyMmq69oR40ZpW95g-303">
          <mxGeometry y="25" width="320" height="22" as="geometry" />
        </mxCell>
        <mxCell id="JNVpyMmq69oR40ZpW95g-305" value="string" style="shape=partialRectangle;connectable=0;fillColor=none;top=0;left=0;bottom=0;right=0;align=left;spacingLeft=2;overflow=hidden;fontSize=11;" vertex="1" parent="JNVpyMmq69oR40ZpW95g-304">
          <mxGeometry width="108" height="22" as="geometry">
            <mxRectangle width="108" height="22" as="alternateBounds" />
          </mxGeometry>
        </mxCell>
        <mxCell id="JNVpyMmq69oR40ZpW95g-306" value="postcode" style="shape=partialRectangle;connectable=0;fillColor=none;top=0;left=0;bottom=0;right=0;align=left;spacingLeft=2;overflow=hidden;fontSize=11;" vertex="1" parent="JNVpyMmq69oR40ZpW95g-304">
          <mxGeometry x="108" width="212" height="22" as="geometry">
            <mxRectangle width="212" height="22" as="alternateBounds" />
          </mxGeometry>
        </mxCell>
        <mxCell id="JNVpyMmq69oR40ZpW95g-307" style="shape=tableRow;horizontal=0;startSize=0;swimlaneHead=0;swimlaneBody=0;fillColor=none;collapsible=0;dropTarget=0;points=[[0,0.5],[1,0.5]];portConstraint=eastwest;top=0;left=0;right=0;bottom=0;" vertex="1" parent="JNVpyMmq69oR40ZpW95g-303">
          <mxGeometry y="47" width="320" height="22" as="geometry" />
        </mxCell>
        <mxCell id="JNVpyMmq69oR40ZpW95g-308" value="integer" style="shape=partialRectangle;connectable=0;fillColor=none;top=0;left=0;bottom=0;right=0;align=left;spacingLeft=2;overflow=hidden;fontSize=11;" vertex="1" parent="JNVpyMmq69oR40ZpW95g-307">
          <mxGeometry width="108" height="22" as="geometry">
            <mxRectangle width="108" height="22" as="alternateBounds" />
          </mxGeometry>
        </mxCell>
        <mxCell id="JNVpyMmq69oR40ZpW95g-309" value="requests_in_queue" style="shape=partialRectangle;connectable=0;fillColor=none;top=0;left=0;bottom=0;right=0;align=left;spacingLeft=2;overflow=hidden;fontSize=11;" vertex="1" parent="JNVpyMmq69oR40ZpW95g-307">
          <mxGeometry x="108" width="212" height="22" as="geometry">
            <mxRectangle width="212" height="22" as="alternateBounds" />
          </mxGeometry>
        </mxCell>
        <mxCell id="JNVpyMmq69oR40ZpW95g-310" style="shape=tableRow;horizontal=0;startSize=0;swimlaneHead=0;swimlaneBody=0;fillColor=none;collapsible=0;dropTarget=0;points=[[0,0.5],[1,0.5]];portConstraint=eastwest;top=0;left=0;right=0;bottom=0;" vertex="1" parent="JNVpyMmq69oR40ZpW95g-303">
          <mxGeometry y="69" width="320" height="22" as="geometry" />
        </mxCell>
        <mxCell id="JNVpyMmq69oR40ZpW95g-311" value="MegaW" style="shape=partialRectangle;connectable=0;fillColor=none;top=0;left=0;bottom=0;right=0;align=left;spacingLeft=2;overflow=hidden;fontSize=11;" vertex="1" parent="JNVpyMmq69oR40ZpW95g-310">
          <mxGeometry width="108" height="22" as="geometry">
            <mxRectangle width="108" height="22" as="alternateBounds" />
          </mxGeometry>
        </mxCell>
        <mxCell id="JNVpyMmq69oR40ZpW95g-312" value="demand_firm_capacity" style="shape=partialRectangle;connectable=0;fillColor=none;top=0;left=0;bottom=0;right=0;align=left;spacingLeft=2;overflow=hidden;fontSize=11;" vertex="1" parent="JNVpyMmq69oR40ZpW95g-310">
          <mxGeometry x="108" width="212" height="22" as="geometry">
            <mxRectangle width="212" height="22" as="alternateBounds" />
          </mxGeometry>
        </mxCell>
        <mxCell id="JNVpyMmq69oR40ZpW95g-313" style="shape=tableRow;horizontal=0;startSize=0;swimlaneHead=0;swimlaneBody=0;fillColor=none;collapsible=0;dropTarget=0;points=[[0,0.5],[1,0.5]];portConstraint=eastwest;top=0;left=0;right=0;bottom=0;" vertex="1" parent="JNVpyMmq69oR40ZpW95g-303">
          <mxGeometry y="91" width="320" height="22" as="geometry" />
        </mxCell>
        <mxCell id="JNVpyMmq69oR40ZpW95g-314" value="MegaW" style="shape=partialRectangle;connectable=0;fillColor=none;top=0;left=0;bottom=0;right=0;align=left;spacingLeft=2;overflow=hidden;fontSize=11;" vertex="1" parent="JNVpyMmq69oR40ZpW95g-313">
          <mxGeometry width="108" height="22" as="geometry">
            <mxRectangle width="108" height="22" as="alternateBounds" />
          </mxGeometry>
        </mxCell>
        <mxCell id="JNVpyMmq69oR40ZpW95g-315" value="demand_contracted_capacity" style="shape=partialRectangle;connectable=0;fillColor=none;top=0;left=0;bottom=0;right=0;align=left;spacingLeft=2;overflow=hidden;fontSize=11;" vertex="1" parent="JNVpyMmq69oR40ZpW95g-313">
          <mxGeometry x="108" width="212" height="22" as="geometry">
            <mxRectangle width="212" height="22" as="alternateBounds" />
          </mxGeometry>
        </mxCell>
        <mxCell id="JNVpyMmq69oR40ZpW95g-316" style="shape=tableRow;horizontal=0;startSize=0;swimlaneHead=0;swimlaneBody=0;fillColor=none;collapsible=0;dropTarget=0;points=[[0,0.5],[1,0.5]];portConstraint=eastwest;top=0;left=0;right=0;bottom=0;" vertex="1" parent="JNVpyMmq69oR40ZpW95g-303">
          <mxGeometry y="113" width="320" height="22" as="geometry" />
        </mxCell>
        <mxCell id="JNVpyMmq69oR40ZpW95g-317" value="MegaW" style="shape=partialRectangle;connectable=0;fillColor=none;top=0;left=0;bottom=0;right=0;align=left;spacingLeft=2;overflow=hidden;fontSize=11;" vertex="1" parent="JNVpyMmq69oR40ZpW95g-316">
          <mxGeometry width="108" height="22" as="geometry">
            <mxRectangle width="108" height="22" as="alternateBounds" />
          </mxGeometry>
        </mxCell>
        <mxCell id="JNVpyMmq69oR40ZpW95g-318" value="demand_connected_capacity" style="shape=partialRectangle;connectable=0;fillColor=none;top=0;left=0;bottom=0;right=0;align=left;spacingLeft=2;overflow=hidden;fontSize=11;" vertex="1" parent="JNVpyMmq69oR40ZpW95g-316">
          <mxGeometry x="108" width="212" height="22" as="geometry">
            <mxRectangle width="212" height="22" as="alternateBounds" />
          </mxGeometry>
        </mxCell>
        <mxCell id="JNVpyMmq69oR40ZpW95g-319" style="shape=tableRow;horizontal=0;startSize=0;swimlaneHead=0;swimlaneBody=0;fillColor=none;collapsible=0;dropTarget=0;points=[[0,0.5],[1,0.5]];portConstraint=eastwest;top=0;left=0;right=0;bottom=0;" vertex="1" parent="JNVpyMmq69oR40ZpW95g-303">
          <mxGeometry y="135" width="320" height="22" as="geometry" />
        </mxCell>
        <mxCell id="JNVpyMmq69oR40ZpW95g-320" value="MegaW" style="shape=partialRectangle;connectable=0;fillColor=none;top=0;left=0;bottom=0;right=0;align=left;spacingLeft=2;overflow=hidden;fontSize=11;" vertex="1" parent="JNVpyMmq69oR40ZpW95g-319">
          <mxGeometry width="108" height="22" as="geometry">
            <mxRectangle width="108" height="22" as="alternateBounds" />
          </mxGeometry>
        </mxCell>
        <mxCell id="JNVpyMmq69oR40ZpW95g-321" value="demand_quoted_capacity" style="shape=partialRectangle;connectable=0;fillColor=none;top=0;left=0;bottom=0;right=0;align=left;spacingLeft=2;overflow=hidden;fontSize=11;" vertex="1" parent="JNVpyMmq69oR40ZpW95g-319">
          <mxGeometry x="108" width="212" height="22" as="geometry">
            <mxRectangle width="212" height="22" as="alternateBounds" />
          </mxGeometry>
        </mxCell>
        <mxCell id="JNVpyMmq69oR40ZpW95g-322" style="shape=tableRow;horizontal=0;startSize=0;swimlaneHead=0;swimlaneBody=0;fillColor=none;collapsible=0;dropTarget=0;points=[[0,0.5],[1,0.5]];portConstraint=eastwest;top=0;left=0;right=0;bottom=0;" vertex="1" parent="JNVpyMmq69oR40ZpW95g-303">
          <mxGeometry y="157" width="320" height="22" as="geometry" />
        </mxCell>
        <mxCell id="JNVpyMmq69oR40ZpW95g-323" value="MegaW" style="shape=partialRectangle;connectable=0;fillColor=none;top=0;left=0;bottom=0;right=0;align=left;spacingLeft=2;overflow=hidden;fontSize=11;" vertex="1" parent="JNVpyMmq69oR40ZpW95g-322">
          <mxGeometry width="108" height="22" as="geometry">
            <mxRectangle width="108" height="22" as="alternateBounds" />
          </mxGeometry>
        </mxCell>
        <mxCell id="JNVpyMmq69oR40ZpW95g-324" value="demand_available_capacity" style="shape=partialRectangle;connectable=0;fillColor=none;top=0;left=0;bottom=0;right=0;align=left;spacingLeft=2;overflow=hidden;fontSize=11;" vertex="1" parent="JNVpyMmq69oR40ZpW95g-322">
          <mxGeometry x="108" width="212" height="22" as="geometry">
            <mxRectangle width="212" height="22" as="alternateBounds" />
          </mxGeometry>
        </mxCell>
        <mxCell id="JNVpyMmq69oR40ZpW95g-325" style="shape=tableRow;horizontal=0;startSize=0;swimlaneHead=0;swimlaneBody=0;fillColor=none;collapsible=0;dropTarget=0;points=[[0,0.5],[1,0.5]];portConstraint=eastwest;top=0;left=0;right=0;bottom=0;" vertex="1" parent="JNVpyMmq69oR40ZpW95g-303">
          <mxGeometry y="179" width="320" height="22" as="geometry" />
        </mxCell>
        <mxCell id="JNVpyMmq69oR40ZpW95g-326" value="MegaW" style="shape=partialRectangle;connectable=0;fillColor=none;top=0;left=0;bottom=0;right=0;align=left;spacingLeft=2;overflow=hidden;fontSize=11;" vertex="1" parent="JNVpyMmq69oR40ZpW95g-325">
          <mxGeometry width="108" height="22" as="geometry">
            <mxRectangle width="108" height="22" as="alternateBounds" />
          </mxGeometry>
        </mxCell>
        <mxCell id="JNVpyMmq69oR40ZpW95g-327" value="demand_maximum" style="shape=partialRectangle;connectable=0;fillColor=none;top=0;left=0;bottom=0;right=0;align=left;spacingLeft=2;overflow=hidden;fontSize=11;" vertex="1" parent="JNVpyMmq69oR40ZpW95g-325">
          <mxGeometry x="108" width="212" height="22" as="geometry">
            <mxRectangle width="212" height="22" as="alternateBounds" />
          </mxGeometry>
        </mxCell>
        <mxCell id="JNVpyMmq69oR40ZpW95g-328" style="shape=tableRow;horizontal=0;startSize=0;swimlaneHead=0;swimlaneBody=0;fillColor=none;collapsible=0;dropTarget=0;points=[[0,0.5],[1,0.5]];portConstraint=eastwest;top=0;left=0;right=0;bottom=0;" vertex="1" parent="JNVpyMmq69oR40ZpW95g-303">
          <mxGeometry y="201" width="320" height="22" as="geometry" />
        </mxCell>
        <mxCell id="JNVpyMmq69oR40ZpW95g-329" value="MegaW" style="shape=partialRectangle;connectable=0;fillColor=none;top=0;left=0;bottom=0;right=0;align=left;spacingLeft=2;overflow=hidden;fontSize=11;" vertex="1" parent="JNVpyMmq69oR40ZpW95g-328">
          <mxGeometry width="108" height="22" as="geometry">
            <mxRectangle width="108" height="22" as="alternateBounds" />
          </mxGeometry>
        </mxCell>
        <mxCell id="JNVpyMmq69oR40ZpW95g-330" value="demand_minimum" style="shape=partialRectangle;connectable=0;fillColor=none;top=0;left=0;bottom=0;right=0;align=left;spacingLeft=2;overflow=hidden;fontSize=11;" vertex="1" parent="JNVpyMmq69oR40ZpW95g-328">
          <mxGeometry x="108" width="212" height="22" as="geometry">
            <mxRectangle width="212" height="22" as="alternateBounds" />
          </mxGeometry>
        </mxCell>
        <mxCell id="JNVpyMmq69oR40ZpW95g-331" style="shape=tableRow;horizontal=0;startSize=0;swimlaneHead=0;swimlaneBody=0;fillColor=none;collapsible=0;dropTarget=0;points=[[0,0.5],[1,0.5]];portConstraint=eastwest;top=0;left=0;right=0;bottom=0;" vertex="1" parent="JNVpyMmq69oR40ZpW95g-303">
          <mxGeometry y="223" width="320" height="22" as="geometry" />
        </mxCell>
        <mxCell id="JNVpyMmq69oR40ZpW95g-332" value="RAGKind" style="shape=partialRectangle;connectable=0;fillColor=none;top=0;left=0;bottom=0;right=0;align=left;spacingLeft=2;overflow=hidden;fontSize=11;" vertex="1" parent="JNVpyMmq69oR40ZpW95g-331">
          <mxGeometry width="108" height="22" as="geometry">
            <mxRectangle width="108" height="22" as="alternateBounds" />
          </mxGeometry>
        </mxCell>
        <mxCell id="JNVpyMmq69oR40ZpW95g-333" value="demand_constraint" style="shape=partialRectangle;connectable=0;fillColor=none;top=0;left=0;bottom=0;right=0;align=left;spacingLeft=2;overflow=hidden;fontSize=11;" vertex="1" parent="JNVpyMmq69oR40ZpW95g-331">
          <mxGeometry x="108" width="212" height="22" as="geometry">
            <mxRectangle width="212" height="22" as="alternateBounds" />
          </mxGeometry>
        </mxCell>
        <mxCell id="JNVpyMmq69oR40ZpW95g-334" style="shape=tableRow;horizontal=0;startSize=0;swimlaneHead=0;swimlaneBody=0;fillColor=none;collapsible=0;dropTarget=0;points=[[0,0.5],[1,0.5]];portConstraint=eastwest;top=0;left=0;right=0;bottom=0;" vertex="1" parent="JNVpyMmq69oR40ZpW95g-303">
          <mxGeometry y="245" width="320" height="22" as="geometry" />
        </mxCell>
        <mxCell id="JNVpyMmq69oR40ZpW95g-335" value="LimitingFactorKind" style="shape=partialRectangle;connectable=0;fillColor=none;top=0;left=0;bottom=0;right=0;align=left;spacingLeft=2;overflow=hidden;fontSize=11;" vertex="1" parent="JNVpyMmq69oR40ZpW95g-334">
          <mxGeometry width="108" height="22" as="geometry">
            <mxRectangle width="108" height="22" as="alternateBounds" />
          </mxGeometry>
        </mxCell>
        <mxCell id="JNVpyMmq69oR40ZpW95g-336" value="demand_constraint_limiting_factor" style="shape=partialRectangle;connectable=0;fillColor=none;top=0;left=0;bottom=0;right=0;align=left;spacingLeft=2;overflow=hidden;fontSize=11;" vertex="1" parent="JNVpyMmq69oR40ZpW95g-334">
          <mxGeometry x="108" width="212" height="22" as="geometry">
            <mxRectangle width="212" height="22" as="alternateBounds" />
          </mxGeometry>
        </mxCell>
        <mxCell id="JNVpyMmq69oR40ZpW95g-337" style="shape=tableRow;horizontal=0;startSize=0;swimlaneHead=0;swimlaneBody=0;fillColor=none;collapsible=0;dropTarget=0;points=[[0,0.5],[1,0.5]];portConstraint=eastwest;top=0;left=0;right=0;bottom=0;" vertex="1" parent="JNVpyMmq69oR40ZpW95g-303">
          <mxGeometry y="267" width="320" height="22" as="geometry" />
        </mxCell>
        <mxCell id="JNVpyMmq69oR40ZpW95g-338" value="MegaW" style="shape=partialRectangle;connectable=0;fillColor=none;top=0;left=0;bottom=0;right=0;align=left;spacingLeft=2;overflow=hidden;fontSize=11;" vertex="1" parent="JNVpyMmq69oR40ZpW95g-337">
          <mxGeometry width="108" height="22" as="geometry">
            <mxRectangle width="108" height="22" as="alternateBounds" />
          </mxGeometry>
        </mxCell>
        <mxCell id="JNVpyMmq69oR40ZpW95g-339" value="generation_firm_capacity" style="shape=partialRectangle;connectable=0;fillColor=none;top=0;left=0;bottom=0;right=0;align=left;spacingLeft=2;overflow=hidden;fontSize=11;" vertex="1" parent="JNVpyMmq69oR40ZpW95g-337">
          <mxGeometry x="108" width="212" height="22" as="geometry">
            <mxRectangle width="212" height="22" as="alternateBounds" />
          </mxGeometry>
        </mxCell>
        <mxCell id="JNVpyMmq69oR40ZpW95g-340" style="shape=tableRow;horizontal=0;startSize=0;swimlaneHead=0;swimlaneBody=0;fillColor=none;collapsible=0;dropTarget=0;points=[[0,0.5],[1,0.5]];portConstraint=eastwest;top=0;left=0;right=0;bottom=0;" vertex="1" parent="JNVpyMmq69oR40ZpW95g-303">
          <mxGeometry y="289" width="320" height="22" as="geometry" />
        </mxCell>
        <mxCell id="JNVpyMmq69oR40ZpW95g-341" value="MegaW" style="shape=partialRectangle;connectable=0;fillColor=none;top=0;left=0;bottom=0;right=0;align=left;spacingLeft=2;overflow=hidden;fontSize=11;" vertex="1" parent="JNVpyMmq69oR40ZpW95g-340">
          <mxGeometry width="108" height="22" as="geometry">
            <mxRectangle width="108" height="22" as="alternateBounds" />
          </mxGeometry>
        </mxCell>
        <mxCell id="JNVpyMmq69oR40ZpW95g-342" value="generation_connected_capacity" style="shape=partialRectangle;connectable=0;fillColor=none;top=0;left=0;bottom=0;right=0;align=left;spacingLeft=2;overflow=hidden;fontSize=11;" vertex="1" parent="JNVpyMmq69oR40ZpW95g-340">
          <mxGeometry x="108" width="212" height="22" as="geometry">
            <mxRectangle width="212" height="22" as="alternateBounds" />
          </mxGeometry>
        </mxCell>
        <mxCell id="JNVpyMmq69oR40ZpW95g-343" style="shape=tableRow;horizontal=0;startSize=0;swimlaneHead=0;swimlaneBody=0;fillColor=none;collapsible=0;dropTarget=0;points=[[0,0.5],[1,0.5]];portConstraint=eastwest;top=0;left=0;right=0;bottom=0;" vertex="1" parent="JNVpyMmq69oR40ZpW95g-303">
          <mxGeometry y="311" width="320" height="22" as="geometry" />
        </mxCell>
        <mxCell id="JNVpyMmq69oR40ZpW95g-344" value="MegaW" style="shape=partialRectangle;connectable=0;fillColor=none;top=0;left=0;bottom=0;right=0;align=left;spacingLeft=2;overflow=hidden;fontSize=11;" vertex="1" parent="JNVpyMmq69oR40ZpW95g-343">
          <mxGeometry width="108" height="22" as="geometry">
            <mxRectangle width="108" height="22" as="alternateBounds" />
          </mxGeometry>
        </mxCell>
        <mxCell id="JNVpyMmq69oR40ZpW95g-345" value="generation_contracted_capacity" style="shape=partialRectangle;connectable=0;fillColor=none;top=0;left=0;bottom=0;right=0;align=left;spacingLeft=2;overflow=hidden;fontSize=11;" vertex="1" parent="JNVpyMmq69oR40ZpW95g-343">
          <mxGeometry x="108" width="212" height="22" as="geometry">
            <mxRectangle width="212" height="22" as="alternateBounds" />
          </mxGeometry>
        </mxCell>
        <mxCell id="JNVpyMmq69oR40ZpW95g-346" style="shape=tableRow;horizontal=0;startSize=0;swimlaneHead=0;swimlaneBody=0;fillColor=none;collapsible=0;dropTarget=0;points=[[0,0.5],[1,0.5]];portConstraint=eastwest;top=0;left=0;right=0;bottom=0;" vertex="1" parent="JNVpyMmq69oR40ZpW95g-303">
          <mxGeometry y="333" width="320" height="22" as="geometry" />
        </mxCell>
        <mxCell id="JNVpyMmq69oR40ZpW95g-347" value="MegaW" style="shape=partialRectangle;connectable=0;fillColor=none;top=0;left=0;bottom=0;right=0;align=left;spacingLeft=2;overflow=hidden;fontSize=11;" vertex="1" parent="JNVpyMmq69oR40ZpW95g-346">
          <mxGeometry width="108" height="22" as="geometry">
            <mxRectangle width="108" height="22" as="alternateBounds" />
          </mxGeometry>
        </mxCell>
        <mxCell id="JNVpyMmq69oR40ZpW95g-348" value="generation_quoted_capacity" style="shape=partialRectangle;connectable=0;fillColor=none;top=0;left=0;bottom=0;right=0;align=left;spacingLeft=2;overflow=hidden;fontSize=11;" vertex="1" parent="JNVpyMmq69oR40ZpW95g-346">
          <mxGeometry x="108" width="212" height="22" as="geometry">
            <mxRectangle width="212" height="22" as="alternateBounds" />
          </mxGeometry>
        </mxCell>
        <mxCell id="JNVpyMmq69oR40ZpW95g-349" style="shape=tableRow;horizontal=0;startSize=0;swimlaneHead=0;swimlaneBody=0;fillColor=none;collapsible=0;dropTarget=0;points=[[0,0.5],[1,0.5]];portConstraint=eastwest;top=0;left=0;right=0;bottom=0;" vertex="1" parent="JNVpyMmq69oR40ZpW95g-303">
          <mxGeometry y="355" width="320" height="22" as="geometry" />
        </mxCell>
        <mxCell id="JNVpyMmq69oR40ZpW95g-350" value="MegaW" style="shape=partialRectangle;connectable=0;fillColor=none;top=0;left=0;bottom=0;right=0;align=left;spacingLeft=2;overflow=hidden;fontSize=11;" vertex="1" parent="JNVpyMmq69oR40ZpW95g-349">
          <mxGeometry width="108" height="22" as="geometry">
            <mxRectangle width="108" height="22" as="alternateBounds" />
          </mxGeometry>
        </mxCell>
        <mxCell id="JNVpyMmq69oR40ZpW95g-351" value="generation_available_capacity" style="shape=partialRectangle;connectable=0;fillColor=none;top=0;left=0;bottom=0;right=0;align=left;spacingLeft=2;overflow=hidden;fontSize=11;" vertex="1" parent="JNVpyMmq69oR40ZpW95g-349">
          <mxGeometry x="108" width="212" height="22" as="geometry">
            <mxRectangle width="212" height="22" as="alternateBounds" />
          </mxGeometry>
        </mxCell>
        <mxCell id="JNVpyMmq69oR40ZpW95g-352" style="shape=tableRow;horizontal=0;startSize=0;swimlaneHead=0;swimlaneBody=0;fillColor=none;collapsible=0;dropTarget=0;points=[[0,0.5],[1,0.5]];portConstraint=eastwest;top=0;left=0;right=0;bottom=0;" vertex="1" parent="JNVpyMmq69oR40ZpW95g-303">
          <mxGeometry y="377" width="320" height="22" as="geometry" />
        </mxCell>
        <mxCell id="JNVpyMmq69oR40ZpW95g-353" value="RAGKind" style="shape=partialRectangle;connectable=0;fillColor=none;top=0;left=0;bottom=0;right=0;align=left;spacingLeft=2;overflow=hidden;fontSize=11;" vertex="1" parent="JNVpyMmq69oR40ZpW95g-352">
          <mxGeometry width="108" height="22" as="geometry">
            <mxRectangle width="108" height="22" as="alternateBounds" />
          </mxGeometry>
        </mxCell>
        <mxCell id="JNVpyMmq69oR40ZpW95g-354" value="generation_constraint" style="shape=partialRectangle;connectable=0;fillColor=none;top=0;left=0;bottom=0;right=0;align=left;spacingLeft=2;overflow=hidden;fontSize=11;" vertex="1" parent="JNVpyMmq69oR40ZpW95g-352">
          <mxGeometry x="108" width="212" height="22" as="geometry">
            <mxRectangle width="212" height="22" as="alternateBounds" />
          </mxGeometry>
        </mxCell>
        <mxCell id="JNVpyMmq69oR40ZpW95g-355" style="shape=tableRow;horizontal=0;startSize=0;swimlaneHead=0;swimlaneBody=0;fillColor=none;collapsible=0;dropTarget=0;points=[[0,0.5],[1,0.5]];portConstraint=eastwest;top=0;left=0;right=0;bottom=0;" vertex="1" parent="JNVpyMmq69oR40ZpW95g-303">
          <mxGeometry y="399" width="320" height="22" as="geometry" />
        </mxCell>
        <mxCell id="JNVpyMmq69oR40ZpW95g-356" value="LimitingFactorKind" style="shape=partialRectangle;connectable=0;fillColor=none;top=0;left=0;bottom=0;right=0;align=left;spacingLeft=2;overflow=hidden;fontSize=11;" vertex="1" parent="JNVpyMmq69oR40ZpW95g-355">
          <mxGeometry width="108" height="22" as="geometry">
            <mxRectangle width="108" height="22" as="alternateBounds" />
          </mxGeometry>
        </mxCell>
        <mxCell id="JNVpyMmq69oR40ZpW95g-357" value="generation_constraint_limiting_factor" style="shape=partialRectangle;connectable=0;fillColor=none;top=0;left=0;bottom=0;right=0;align=left;spacingLeft=2;overflow=hidden;fontSize=11;" vertex="1" parent="JNVpyMmq69oR40ZpW95g-355">
          <mxGeometry x="108" width="212" height="22" as="geometry">
            <mxRectangle width="212" height="22" as="alternateBounds" />
          </mxGeometry>
        </mxCell>
        <mxCell id="JNVpyMmq69oR40ZpW95g-358" style="shape=tableRow;horizontal=0;startSize=0;swimlaneHead=0;swimlaneBody=0;fillColor=none;collapsible=0;dropTarget=0;points=[[0,0.5],[1,0.5]];portConstraint=eastwest;top=0;left=0;right=0;bottom=0;" vertex="1" parent="JNVpyMmq69oR40ZpW95g-303">
          <mxGeometry y="421" width="320" height="22" as="geometry" />
        </mxCell>
        <mxCell id="JNVpyMmq69oR40ZpW95g-359" value="string" style="shape=partialRectangle;connectable=0;fillColor=none;top=0;left=0;bottom=0;right=0;align=left;spacingLeft=2;overflow=hidden;fontSize=11;" vertex="1" parent="JNVpyMmq69oR40ZpW95g-358">
          <mxGeometry width="108" height="22" as="geometry">
            <mxRectangle width="108" height="22" as="alternateBounds" />
          </mxGeometry>
        </mxCell>
        <mxCell id="JNVpyMmq69oR40ZpW95g-360" value="description" style="shape=partialRectangle;connectable=0;fillColor=none;top=0;left=0;bottom=0;right=0;align=left;spacingLeft=2;overflow=hidden;fontSize=11;" vertex="1" parent="JNVpyMmq69oR40ZpW95g-358">
          <mxGeometry x="108" width="212" height="22" as="geometry">
            <mxRectangle width="212" height="22" as="alternateBounds" />
          </mxGeometry>
        </mxCell>
        <mxCell id="JNVpyMmq69oR40ZpW95g-361" style="shape=tableRow;horizontal=0;startSize=0;swimlaneHead=0;swimlaneBody=0;fillColor=none;collapsible=0;dropTarget=0;points=[[0,0.5],[1,0.5]];portConstraint=eastwest;top=0;left=0;right=0;bottom=0;" vertex="1" parent="JNVpyMmq69oR40ZpW95g-303">
          <mxGeometry y="443" width="320" height="22" as="geometry" />
        </mxCell>
        <mxCell id="JNVpyMmq69oR40ZpW95g-362" value="string" style="shape=partialRectangle;connectable=0;fillColor=none;top=0;left=0;bottom=0;right=0;align=left;spacingLeft=2;overflow=hidden;fontSize=11;" vertex="1" parent="JNVpyMmq69oR40ZpW95g-361">
          <mxGeometry width="108" height="22" as="geometry">
            <mxRectangle width="108" height="22" as="alternateBounds" />
          </mxGeometry>
        </mxCell>
        <mxCell id="JNVpyMmq69oR40ZpW95g-363" value="m_rid" style="shape=partialRectangle;connectable=0;fillColor=none;top=0;left=0;bottom=0;right=0;align=left;spacingLeft=2;overflow=hidden;fontSize=11;" vertex="1" parent="JNVpyMmq69oR40ZpW95g-361">
          <mxGeometry x="108" width="212" height="22" as="geometry">
            <mxRectangle width="212" height="22" as="alternateBounds" />
          </mxGeometry>
        </mxCell>
        <mxCell id="JNVpyMmq69oR40ZpW95g-364" value="Work" style="shape=table;startSize=25;container=1;collapsible=0;childLayout=tableLayout;fixedRows=1;rowLines=1;fontStyle=1;align=center;resizeLast=1;fillColor=#dae8fc;strokeColor=#6c8ebf;" vertex="1" parent="1">
          <mxGeometry x="1385" y="998" width="200" height="157" as="geometry" />
        </mxCell>
        <mxCell id="JNVpyMmq69oR40ZpW95g-365" style="shape=tableRow;horizontal=0;startSize=0;swimlaneHead=0;swimlaneBody=0;fillColor=none;collapsible=0;dropTarget=0;points=[[0,0.5],[1,0.5]];portConstraint=eastwest;top=0;left=0;right=0;bottom=0;" vertex="1" parent="JNVpyMmq69oR40ZpW95g-364">
          <mxGeometry y="25" width="200" height="22" as="geometry" />
        </mxCell>
        <mxCell id="JNVpyMmq69oR40ZpW95g-366" value="date" style="shape=partialRectangle;connectable=0;fillColor=none;top=0;left=0;bottom=0;right=0;align=left;spacingLeft=2;overflow=hidden;fontSize=11;" vertex="1" parent="JNVpyMmq69oR40ZpW95g-365">
          <mxGeometry width="85" height="22" as="geometry">
            <mxRectangle width="85" height="22" as="alternateBounds" />
          </mxGeometry>
        </mxCell>
        <mxCell id="JNVpyMmq69oR40ZpW95g-367" value="request_date_time" style="shape=partialRectangle;connectable=0;fillColor=none;top=0;left=0;bottom=0;right=0;align=left;spacingLeft=2;overflow=hidden;fontSize=11;" vertex="1" parent="JNVpyMmq69oR40ZpW95g-365">
          <mxGeometry x="85" width="115" height="22" as="geometry">
            <mxRectangle width="115" height="22" as="alternateBounds" />
          </mxGeometry>
        </mxCell>
        <mxCell id="JNVpyMmq69oR40ZpW95g-368" style="shape=tableRow;horizontal=0;startSize=0;swimlaneHead=0;swimlaneBody=0;fillColor=none;collapsible=0;dropTarget=0;points=[[0,0.5],[1,0.5]];portConstraint=eastwest;top=0;left=0;right=0;bottom=0;" vertex="1" parent="JNVpyMmq69oR40ZpW95g-364">
          <mxGeometry y="47" width="200" height="22" as="geometry" />
        </mxCell>
        <mxCell id="JNVpyMmq69oR40ZpW95g-369" value="string" style="shape=partialRectangle;connectable=0;fillColor=none;top=0;left=0;bottom=0;right=0;align=left;spacingLeft=2;overflow=hidden;fontSize=11;" vertex="1" parent="JNVpyMmq69oR40ZpW95g-368">
          <mxGeometry width="85" height="22" as="geometry">
            <mxRectangle width="85" height="22" as="alternateBounds" />
          </mxGeometry>
        </mxCell>
        <mxCell id="JNVpyMmq69oR40ZpW95g-370" value="work_order_number" style="shape=partialRectangle;connectable=0;fillColor=none;top=0;left=0;bottom=0;right=0;align=left;spacingLeft=2;overflow=hidden;fontSize=11;" vertex="1" parent="JNVpyMmq69oR40ZpW95g-368">
          <mxGeometry x="85" width="115" height="22" as="geometry">
            <mxRectangle width="115" height="22" as="alternateBounds" />
          </mxGeometry>
        </mxCell>
        <mxCell id="JNVpyMmq69oR40ZpW95g-371" style="shape=tableRow;horizontal=0;startSize=0;swimlaneHead=0;swimlaneBody=0;fillColor=none;collapsible=0;dropTarget=0;points=[[0,0.5],[1,0.5]];portConstraint=eastwest;top=0;left=0;right=0;bottom=0;" vertex="1" parent="JNVpyMmq69oR40ZpW95g-364">
          <mxGeometry y="69" width="200" height="22" as="geometry" />
        </mxCell>
        <mxCell id="JNVpyMmq69oR40ZpW95g-372" value="WorkStatusKind" style="shape=partialRectangle;connectable=0;fillColor=none;top=0;left=0;bottom=0;right=0;align=left;spacingLeft=2;overflow=hidden;fontSize=11;" vertex="1" parent="JNVpyMmq69oR40ZpW95g-371">
          <mxGeometry width="85" height="22" as="geometry">
            <mxRectangle width="85" height="22" as="alternateBounds" />
          </mxGeometry>
        </mxCell>
        <mxCell id="JNVpyMmq69oR40ZpW95g-373" value="status_kind" style="shape=partialRectangle;connectable=0;fillColor=none;top=0;left=0;bottom=0;right=0;align=left;spacingLeft=2;overflow=hidden;fontSize=11;" vertex="1" parent="JNVpyMmq69oR40ZpW95g-371">
          <mxGeometry x="85" width="115" height="22" as="geometry">
            <mxRectangle width="115" height="22" as="alternateBounds" />
          </mxGeometry>
        </mxCell>
        <mxCell id="JNVpyMmq69oR40ZpW95g-374" style="shape=tableRow;horizontal=0;startSize=0;swimlaneHead=0;swimlaneBody=0;fillColor=none;collapsible=0;dropTarget=0;points=[[0,0.5],[1,0.5]];portConstraint=eastwest;top=0;left=0;right=0;bottom=0;" vertex="1" parent="JNVpyMmq69oR40ZpW95g-364">
          <mxGeometry y="91" width="200" height="22" as="geometry" />
        </mxCell>
        <mxCell id="JNVpyMmq69oR40ZpW95g-375" value="string" style="shape=partialRectangle;connectable=0;fillColor=none;top=0;left=0;bottom=0;right=0;align=left;spacingLeft=2;overflow=hidden;fontSize=11;" vertex="1" parent="JNVpyMmq69oR40ZpW95g-374">
          <mxGeometry width="85" height="22" as="geometry">
            <mxRectangle width="85" height="22" as="alternateBounds" />
          </mxGeometry>
        </mxCell>
        <mxCell id="JNVpyMmq69oR40ZpW95g-376" value="type" style="shape=partialRectangle;connectable=0;fillColor=none;top=0;left=0;bottom=0;right=0;align=left;spacingLeft=2;overflow=hidden;fontSize=11;" vertex="1" parent="JNVpyMmq69oR40ZpW95g-374">
          <mxGeometry x="85" width="115" height="22" as="geometry">
            <mxRectangle width="115" height="22" as="alternateBounds" />
          </mxGeometry>
        </mxCell>
        <mxCell id="JNVpyMmq69oR40ZpW95g-377" style="shape=tableRow;horizontal=0;startSize=0;swimlaneHead=0;swimlaneBody=0;fillColor=none;collapsible=0;dropTarget=0;points=[[0,0.5],[1,0.5]];portConstraint=eastwest;top=0;left=0;right=0;bottom=0;" vertex="1" parent="JNVpyMmq69oR40ZpW95g-364">
          <mxGeometry y="113" width="200" height="22" as="geometry" />
        </mxCell>
        <mxCell id="JNVpyMmq69oR40ZpW95g-378" value="string" style="shape=partialRectangle;connectable=0;fillColor=none;top=0;left=0;bottom=0;right=0;align=left;spacingLeft=2;overflow=hidden;fontSize=11;" vertex="1" parent="JNVpyMmq69oR40ZpW95g-377">
          <mxGeometry width="85" height="22" as="geometry">
            <mxRectangle width="85" height="22" as="alternateBounds" />
          </mxGeometry>
        </mxCell>
        <mxCell id="JNVpyMmq69oR40ZpW95g-379" value="description" style="shape=partialRectangle;connectable=0;fillColor=none;top=0;left=0;bottom=0;right=0;align=left;spacingLeft=2;overflow=hidden;fontSize=11;" vertex="1" parent="JNVpyMmq69oR40ZpW95g-377">
          <mxGeometry x="85" width="115" height="22" as="geometry">
            <mxRectangle width="115" height="22" as="alternateBounds" />
          </mxGeometry>
        </mxCell>
        <mxCell id="JNVpyMmq69oR40ZpW95g-380" style="shape=tableRow;horizontal=0;startSize=0;swimlaneHead=0;swimlaneBody=0;fillColor=none;collapsible=0;dropTarget=0;points=[[0,0.5],[1,0.5]];portConstraint=eastwest;top=0;left=0;right=0;bottom=0;" vertex="1" parent="JNVpyMmq69oR40ZpW95g-364">
          <mxGeometry y="135" width="200" height="22" as="geometry" />
        </mxCell>
        <mxCell id="JNVpyMmq69oR40ZpW95g-381" value="string" style="shape=partialRectangle;connectable=0;fillColor=none;top=0;left=0;bottom=0;right=0;align=left;spacingLeft=2;overflow=hidden;fontSize=11;" vertex="1" parent="JNVpyMmq69oR40ZpW95g-380">
          <mxGeometry width="85" height="22" as="geometry">
            <mxRectangle width="85" height="22" as="alternateBounds" />
          </mxGeometry>
        </mxCell>
        <mxCell id="JNVpyMmq69oR40ZpW95g-382" value="m_rid" style="shape=partialRectangle;connectable=0;fillColor=none;top=0;left=0;bottom=0;right=0;align=left;spacingLeft=2;overflow=hidden;fontSize=11;" vertex="1" parent="JNVpyMmq69oR40ZpW95g-380">
          <mxGeometry x="85" width="115" height="22" as="geometry">
            <mxRectangle width="115" height="22" as="alternateBounds" />
          </mxGeometry>
        </mxCell>
        <mxCell id="JNVpyMmq69oR40ZpW95g-396" value="DateTimeInterval" style="shape=table;startSize=25;container=1;collapsible=0;childLayout=tableLayout;fixedRows=1;rowLines=1;fontStyle=1;align=center;resizeLast=1;fillColor=#dae8fc;strokeColor=#6c8ebf;" vertex="1" parent="1">
          <mxGeometry x="1425" y="1420" width="120" height="69" as="geometry" />
        </mxCell>
        <mxCell id="JNVpyMmq69oR40ZpW95g-397" style="shape=tableRow;horizontal=0;startSize=0;swimlaneHead=0;swimlaneBody=0;fillColor=none;collapsible=0;dropTarget=0;points=[[0,0.5],[1,0.5]];portConstraint=eastwest;top=0;left=0;right=0;bottom=0;" vertex="1" parent="JNVpyMmq69oR40ZpW95g-396">
          <mxGeometry y="25" width="120" height="22" as="geometry" />
        </mxCell>
        <mxCell id="JNVpyMmq69oR40ZpW95g-398" value="date" style="shape=partialRectangle;connectable=0;fillColor=none;top=0;left=0;bottom=0;right=0;align=left;spacingLeft=2;overflow=hidden;fontSize=11;" vertex="1" parent="JNVpyMmq69oR40ZpW95g-397">
          <mxGeometry width="30" height="22" as="geometry">
            <mxRectangle width="30" height="22" as="alternateBounds" />
          </mxGeometry>
        </mxCell>
        <mxCell id="JNVpyMmq69oR40ZpW95g-399" value="end" style="shape=partialRectangle;connectable=0;fillColor=none;top=0;left=0;bottom=0;right=0;align=left;spacingLeft=2;overflow=hidden;fontSize=11;" vertex="1" parent="JNVpyMmq69oR40ZpW95g-397">
          <mxGeometry x="30" width="90" height="22" as="geometry">
            <mxRectangle width="90" height="22" as="alternateBounds" />
          </mxGeometry>
        </mxCell>
        <mxCell id="JNVpyMmq69oR40ZpW95g-400" style="shape=tableRow;horizontal=0;startSize=0;swimlaneHead=0;swimlaneBody=0;fillColor=none;collapsible=0;dropTarget=0;points=[[0,0.5],[1,0.5]];portConstraint=eastwest;top=0;left=0;right=0;bottom=0;" vertex="1" parent="JNVpyMmq69oR40ZpW95g-396">
          <mxGeometry y="47" width="120" height="22" as="geometry" />
        </mxCell>
        <mxCell id="JNVpyMmq69oR40ZpW95g-401" value="date" style="shape=partialRectangle;connectable=0;fillColor=none;top=0;left=0;bottom=0;right=0;align=left;spacingLeft=2;overflow=hidden;fontSize=11;" vertex="1" parent="JNVpyMmq69oR40ZpW95g-400">
          <mxGeometry width="30" height="22" as="geometry">
            <mxRectangle width="30" height="22" as="alternateBounds" />
          </mxGeometry>
        </mxCell>
        <mxCell id="JNVpyMmq69oR40ZpW95g-402" value="start" style="shape=partialRectangle;connectable=0;fillColor=none;top=0;left=0;bottom=0;right=0;align=left;spacingLeft=2;overflow=hidden;fontSize=11;" vertex="1" parent="JNVpyMmq69oR40ZpW95g-400">
          <mxGeometry x="30" width="90" height="22" as="geometry">
            <mxRectangle width="90" height="22" as="alternateBounds" />
          </mxGeometry>
        </mxCell>
        <mxCell id="JNVpyMmq69oR40ZpW95g-403" value="Geometry" style="shape=table;startSize=25;container=1;collapsible=0;childLayout=tableLayout;fixedRows=1;rowLines=1;fontStyle=1;align=center;resizeLast=1;fillColor=#dae8fc;strokeColor=#6c8ebf;" vertex="1" parent="1">
          <mxGeometry x="1900" y="880" width="120" height="46" as="geometry" />
        </mxCell>
        <mxCell id="JNVpyMmq69oR40ZpW95g-404" style="shape=tableRow;horizontal=0;startSize=0;swimlaneHead=0;swimlaneBody=0;fillColor=none;collapsible=0;dropTarget=0;points=[[0,0.5],[1,0.5]];portConstraint=eastwest;top=0;left=0;right=0;bottom=0;" vertex="1" parent="JNVpyMmq69oR40ZpW95g-403">
          <mxGeometry y="25" width="120" height="21" as="geometry" />
        </mxCell>
        <mxCell id="JNVpyMmq69oR40ZpW95g-405" value="string" style="shape=partialRectangle;connectable=0;fillColor=none;top=0;left=0;bottom=0;right=0;align=left;spacingLeft=2;overflow=hidden;fontSize=11;" vertex="1" parent="JNVpyMmq69oR40ZpW95g-404">
          <mxGeometry width="36" height="21" as="geometry">
            <mxRectangle width="36" height="21" as="alternateBounds" />
          </mxGeometry>
        </mxCell>
        <mxCell id="JNVpyMmq69oR40ZpW95g-406" value="type" style="shape=partialRectangle;connectable=0;fillColor=none;top=0;left=0;bottom=0;right=0;align=left;spacingLeft=2;overflow=hidden;fontSize=11;" vertex="1" parent="JNVpyMmq69oR40ZpW95g-404">
          <mxGeometry x="36" width="84" height="21" as="geometry">
            <mxRectangle width="84" height="21" as="alternateBounds" />
          </mxGeometry>
        </mxCell>
        <mxCell id="JNVpyMmq69oR40ZpW95g-407" value="Line" style="shape=table;startSize=75;container=1;collapsible=0;childLayout=tableLayout;fixedRows=1;rowLines=1;fontStyle=1;align=center;resizeLast=1;fillColor=#dae8fc;strokeColor=#6c8ebf;" vertex="1" parent="1">
          <mxGeometry x="1900" y="1000" width="120" height="75" as="geometry" />
        </mxCell>
        <mxCell id="JNVpyMmq69oR40ZpW95g-408" value="Coordinate" style="shape=table;startSize=25;container=1;collapsible=0;childLayout=tableLayout;fixedRows=1;rowLines=1;fontStyle=1;align=center;resizeLast=1;fillColor=#dae8fc;strokeColor=#6c8ebf;" vertex="1" parent="1">
          <mxGeometry x="1900" y="1150" width="120" height="69" as="geometry" />
        </mxCell>
        <mxCell id="JNVpyMmq69oR40ZpW95g-409" style="shape=tableRow;horizontal=0;startSize=0;swimlaneHead=0;swimlaneBody=0;fillColor=none;collapsible=0;dropTarget=0;points=[[0,0.5],[1,0.5]];portConstraint=eastwest;top=0;left=0;right=0;bottom=0;" vertex="1" parent="JNVpyMmq69oR40ZpW95g-408">
          <mxGeometry y="25" width="120" height="22" as="geometry" />
        </mxCell>
        <mxCell id="JNVpyMmq69oR40ZpW95g-410" value="float" style="shape=partialRectangle;connectable=0;fillColor=none;top=0;left=0;bottom=0;right=0;align=left;spacingLeft=2;overflow=hidden;fontSize=11;" vertex="1" parent="JNVpyMmq69oR40ZpW95g-409">
          <mxGeometry width="30" height="22" as="geometry">
            <mxRectangle width="30" height="22" as="alternateBounds" />
          </mxGeometry>
        </mxCell>
        <mxCell id="JNVpyMmq69oR40ZpW95g-411" value="longitude" style="shape=partialRectangle;connectable=0;fillColor=none;top=0;left=0;bottom=0;right=0;align=left;spacingLeft=2;overflow=hidden;fontSize=11;" vertex="1" parent="JNVpyMmq69oR40ZpW95g-409">
          <mxGeometry x="30" width="90" height="22" as="geometry">
            <mxRectangle width="90" height="22" as="alternateBounds" />
          </mxGeometry>
        </mxCell>
        <mxCell id="JNVpyMmq69oR40ZpW95g-412" style="shape=tableRow;horizontal=0;startSize=0;swimlaneHead=0;swimlaneBody=0;fillColor=none;collapsible=0;dropTarget=0;points=[[0,0.5],[1,0.5]];portConstraint=eastwest;top=0;left=0;right=0;bottom=0;" vertex="1" parent="JNVpyMmq69oR40ZpW95g-408">
          <mxGeometry y="47" width="120" height="22" as="geometry" />
        </mxCell>
        <mxCell id="JNVpyMmq69oR40ZpW95g-413" value="float" style="shape=partialRectangle;connectable=0;fillColor=none;top=0;left=0;bottom=0;right=0;align=left;spacingLeft=2;overflow=hidden;fontSize=11;" vertex="1" parent="JNVpyMmq69oR40ZpW95g-412">
          <mxGeometry width="30" height="22" as="geometry">
            <mxRectangle width="30" height="22" as="alternateBounds" />
          </mxGeometry>
        </mxCell>
        <mxCell id="JNVpyMmq69oR40ZpW95g-414" value="latitude" style="shape=partialRectangle;connectable=0;fillColor=none;top=0;left=0;bottom=0;right=0;align=left;spacingLeft=2;overflow=hidden;fontSize=11;" vertex="1" parent="JNVpyMmq69oR40ZpW95g-412">
          <mxGeometry x="30" width="90" height="22" as="geometry">
            <mxRectangle width="90" height="22" as="alternateBounds" />
          </mxGeometry>
        </mxCell>
        <mxCell id="JNVpyMmq69oR40ZpW95g-418" value="substations" style="startArrow=ERmandOne;startSize=10;;endArrow=ERmany;endSize=10;;rounded=1;edgeStyle=orthogonalEdgeStyle;jumpStyle=arc;" edge="1" parent="1" source="JNVpyMmq69oR40ZpW95g-1" target="JNVpyMmq69oR40ZpW95g-44">
          <mxGeometry relative="1" as="geometry">
            <Array as="points">
              <mxPoint x="410" y="360" />
              <mxPoint x="410" y="360" />
            </Array>
          </mxGeometry>
        </mxCell>
        <mxCell id="JNVpyMmq69oR40ZpW95g-419" value="circuits" style="startArrow=ERmandOne;startSize=10;;endArrow=ERmany;endSize=10;;rounded=1;edgeStyle=orthogonalEdgeStyle;curved=0;jumpStyle=arc;" edge="1" parent="1" source="JNVpyMmq69oR40ZpW95g-1" target="JNVpyMmq69oR40ZpW95g-132">
          <mxGeometry relative="1" as="geometry">
            <Array as="points">
              <mxPoint x="1960" y="150" />
            </Array>
          </mxGeometry>
        </mxCell>
        <mxCell id="JNVpyMmq69oR40ZpW95g-420" value="postcode_areas" style="startArrow=ERmandOne;startSize=10;;endArrow=ERmany;endSize=10;;rounded=1;edgeStyle=orthogonalEdgeStyle;jumpStyle=arc;curved=0;" edge="1" parent="1" source="JNVpyMmq69oR40ZpW95g-1" target="JNVpyMmq69oR40ZpW95g-303">
          <mxGeometry relative="1" as="geometry">
            <Array as="points">
              <mxPoint x="1400" y="280" />
            </Array>
          </mxGeometry>
        </mxCell>
        <mxCell id="JNVpyMmq69oR40ZpW95g-421" value="coordinates" style="startArrow=ERmandOne;startSize=10;;endArrow=ERmandOne;endSize=10;;rounded=1;jumpStyle=arc;edgeStyle=orthogonalEdgeStyle;" edge="1" parent="1" source="JNVpyMmq69oR40ZpW95g-44" target="JNVpyMmq69oR40ZpW95g-408">
          <mxGeometry relative="1" as="geometry">
            <Array as="points">
              <mxPoint x="700" y="1180" />
            </Array>
          </mxGeometry>
        </mxCell>
        <mxCell id="JNVpyMmq69oR40ZpW95g-422" value="works" style="startArrow=ERmandOne;startSize=10;;endArrow=ERmany;endSize=10;;rounded=1;edgeStyle=orthogonalEdgeStyle;jumpStyle=arc;" edge="1" parent="1" source="JNVpyMmq69oR40ZpW95g-364" target="JNVpyMmq69oR40ZpW95g-44">
          <mxGeometry relative="1" as="geometry">
            <Array as="points">
              <mxPoint x="720" y="1080" />
            </Array>
            <mxPoint x="1584" y="920.5182481751824" as="targetPoint" />
          </mxGeometry>
        </mxCell>
        <mxCell id="JNVpyMmq69oR40ZpW95g-423" value="demands" style="startArrow=ERmandOne;startSize=10;;endArrow=ERmany;endSize=10;;rounded=1;jumpStyle=arc;edgeStyle=orthogonalEdgeStyle;" edge="1" parent="1" source="JNVpyMmq69oR40ZpW95g-44" target="JNVpyMmq69oR40ZpW95g-190">
          <mxGeometry relative="1" as="geometry">
            <Array as="points">
              <mxPoint x="810" y="920" />
              <mxPoint x="810" y="920" />
            </Array>
          </mxGeometry>
        </mxCell>
        <mxCell id="JNVpyMmq69oR40ZpW95g-424" value="generators" style="startArrow=ERmandOne;startSize=10;;endArrow=ERmany;endSize=10;;rounded=1;jumpStyle=arc;edgeStyle=orthogonalEdgeStyle;" edge="1" parent="1" source="JNVpyMmq69oR40ZpW95g-44" target="JNVpyMmq69oR40ZpW95g-212">
          <mxGeometry relative="1" as="geometry">
            <Array as="points">
              <mxPoint x="820" y="680" />
              <mxPoint x="820" y="680" />
            </Array>
          </mxGeometry>
        </mxCell>
        <mxCell id="JNVpyMmq69oR40ZpW95g-425" value="storage" style="startArrow=ERmandOne;startSize=10;;endArrow=ERmany;endSize=10;;rounded=1;jumpStyle=arc;edgeStyle=orthogonalEdgeStyle;" edge="1" parent="1" source="JNVpyMmq69oR40ZpW95g-44" target="JNVpyMmq69oR40ZpW95g-237">
          <mxGeometry relative="1" as="geometry">
            <Array as="points">
              <mxPoint x="840" y="440" />
              <mxPoint x="840" y="440" />
            </Array>
          </mxGeometry>
        </mxCell>
        <mxCell id="JNVpyMmq69oR40ZpW95g-426" value="other_constraints" style="startArrow=ERmandOne;startSize=10;;endArrow=ERmany;endSize=10;;rounded=1;edgeStyle=orthogonalEdgeStyle;curved=0;jumpStyle=arc;" edge="1" parent="1" source="JNVpyMmq69oR40ZpW95g-44" target="JNVpyMmq69oR40ZpW95g-271">
          <mxGeometry x="0.0157" relative="1" as="geometry">
            <Array as="points">
              <mxPoint x="605" y="200" />
            </Array>
            <mxPoint as="offset" />
          </mxGeometry>
        </mxCell>
        <mxCell id="JNVpyMmq69oR40ZpW95g-427" value="curtailments" style="startArrow=ERmandOne;startSize=10;;endArrow=ERmany;endSize=10;;rounded=1;edgeStyle=orthogonalEdgeStyle;jumpStyle=arc;" edge="1" parent="1" source="JNVpyMmq69oR40ZpW95g-44" target="JNVpyMmq69oR40ZpW95g-278">
          <mxGeometry relative="1" as="geometry">
            <Array as="points">
              <mxPoint x="530" y="1040" />
              <mxPoint x="530" y="1040" />
            </Array>
          </mxGeometry>
        </mxCell>
        <mxCell id="JNVpyMmq69oR40ZpW95g-428" value="works" style="startArrow=ERmandOne;startSize=10;;endArrow=ERmany;endSize=10;;rounded=1;jumpStyle=arc;edgeStyle=orthogonalEdgeStyle;" edge="1" parent="1" source="JNVpyMmq69oR40ZpW95g-132" target="JNVpyMmq69oR40ZpW95g-364">
          <mxGeometry relative="1" as="geometry">
            <Array as="points">
              <mxPoint x="1860" y="1080" />
            </Array>
          </mxGeometry>
        </mxCell>
        <mxCell id="JNVpyMmq69oR40ZpW95g-429" value="other_constraints" style="startArrow=ERmandOne;startSize=10;;endArrow=ERmany;endSize=10;;rounded=1;edgeStyle=orthogonalEdgeStyle;curved=0;jumpStyle=arc;" edge="1" parent="1" source="JNVpyMmq69oR40ZpW95g-132" target="JNVpyMmq69oR40ZpW95g-271">
          <mxGeometry relative="1" as="geometry">
            <Array as="points">
              <mxPoint x="1920" y="200" />
            </Array>
          </mxGeometry>
        </mxCell>
        <mxCell id="JNVpyMmq69oR40ZpW95g-430" value="geometry" style="startArrow=ERmandOne;startSize=10;;endArrow=ERzeroToOne;endSize=10;;rounded=1;jumpStyle=arc;edgeStyle=orthogonalEdgeStyle;" edge="1" parent="1" source="JNVpyMmq69oR40ZpW95g-132" target="JNVpyMmq69oR40ZpW95g-403">
          <mxGeometry relative="1" as="geometry">
            <Array as="points">
              <mxPoint x="1960" y="800" />
              <mxPoint x="1960" y="800" />
            </Array>
          </mxGeometry>
        </mxCell>
        <mxCell id="JNVpyMmq69oR40ZpW95g-431" value="demands" style="startArrow=ERmandOne;startSize=10;;endArrow=ERmany;endSize=10;;rounded=1;jumpStyle=arc;edgeStyle=orthogonalEdgeStyle;" edge="1" parent="1" source="JNVpyMmq69oR40ZpW95g-303" target="JNVpyMmq69oR40ZpW95g-190">
          <mxGeometry relative="1" as="geometry">
            <Array as="points">
              <mxPoint x="1440" y="920" />
            </Array>
          </mxGeometry>
        </mxCell>
        <mxCell id="JNVpyMmq69oR40ZpW95g-432" value="generators" style="startArrow=ERmandOne;startSize=10;;endArrow=ERmany;endSize=10;;rounded=1;jumpStyle=arc;edgeStyle=orthogonalEdgeStyle;" edge="1" parent="1" source="JNVpyMmq69oR40ZpW95g-303" target="JNVpyMmq69oR40ZpW95g-212">
          <mxGeometry relative="1" as="geometry">
            <Array as="points">
              <mxPoint x="1280" y="680" />
              <mxPoint x="1280" y="680" />
            </Array>
          </mxGeometry>
        </mxCell>
        <mxCell id="JNVpyMmq69oR40ZpW95g-433" value="storage" style="startArrow=ERmandOne;startSize=10;;endArrow=ERmany;endSize=10;;rounded=1;jumpStyle=arc;edgeStyle=orthogonalEdgeStyle;" edge="1" parent="1" source="JNVpyMmq69oR40ZpW95g-303" target="JNVpyMmq69oR40ZpW95g-237">
          <mxGeometry relative="1" as="geometry">
            <Array as="points">
              <mxPoint x="1290" y="440" />
              <mxPoint x="1290" y="440" />
            </Array>
          </mxGeometry>
        </mxCell>
        <mxCell id="JNVpyMmq69oR40ZpW95g-434" value="other_constraints" style="curved=0;startArrow=ERmandOne;startSize=10;;endArrow=ERmany;endSize=10;;rounded=1;jumpStyle=arc;" edge="1" parent="1" source="JNVpyMmq69oR40ZpW95g-303" target="JNVpyMmq69oR40ZpW95g-271">
          <mxGeometry relative="1" as="geometry" />
        </mxCell>
        <mxCell id="JNVpyMmq69oR40ZpW95g-435" value="works" style="curved=0;startArrow=ERmandOne;startSize=10;;endArrow=ERmany;endSize=10;;rounded=1;jumpStyle=arc;" edge="1" parent="1" source="JNVpyMmq69oR40ZpW95g-303" target="JNVpyMmq69oR40ZpW95g-364">
          <mxGeometry relative="1" as="geometry" />
        </mxCell>
        <mxCell id="JNVpyMmq69oR40ZpW95g-436" value="time_schedules" style="curved=0;startArrow=ERmandOne;startSize=10;;endArrow=ERoneToMany;endSize=10;;rounded=1;jumpStyle=arc;" edge="1" parent="1" source="JNVpyMmq69oR40ZpW95g-364" target="JNVpyMmq69oR40ZpW95g-383">
          <mxGeometry relative="1" as="geometry">
            <mxPoint x="1298" y="1069.5182481751826" as="sourcePoint" />
          </mxGeometry>
        </mxCell>
        <mxCell id="JNVpyMmq69oR40ZpW95g-438" value="schedule_interval" style="curved=0;startArrow=ERmandOne;startSize=10;;endArrow=ERmandOne;endSize=10;;rounded=1;jumpStyle=arc;" edge="1" parent="1" source="JNVpyMmq69oR40ZpW95g-383" target="JNVpyMmq69oR40ZpW95g-396">
          <mxGeometry relative="1" as="geometry" />
        </mxCell>
        <mxCell id="JNVpyMmq69oR40ZpW95g-441" value="lines" style="curved=0;startArrow=ERmandOne;startSize=10;;endArrow=ERoneToMany;endSize=10;;rounded=1;jumpStyle=arc;" edge="1" parent="1" source="JNVpyMmq69oR40ZpW95g-403" target="JNVpyMmq69oR40ZpW95g-407">
          <mxGeometry relative="1" as="geometry" />
        </mxCell>
        <mxCell id="JNVpyMmq69oR40ZpW95g-442" value="coordinates" style="curved=0;startArrow=ERmandOne;startSize=10;;endArrow=ERmany;endSize=10;;rounded=1;jumpStyle=arc;" edge="1" parent="1" source="JNVpyMmq69oR40ZpW95g-407" target="JNVpyMmq69oR40ZpW95g-408">
          <mxGeometry relative="1" as="geometry" />
        </mxCell>
        <mxCell id="JNVpyMmq69oR40ZpW95g-444" value="" style="startArrow=ERmandOne;startSize=10;;endArrow=ERmany;endSize=10;;rounded=1;jumpStyle=arc;edgeStyle=orthogonalEdgeStyle;" edge="1" parent="1" source="JNVpyMmq69oR40ZpW95g-44" target="JNVpyMmq69oR40ZpW95g-383">
          <mxGeometry relative="1" as="geometry">
            <Array as="points">
              <mxPoint x="680" y="1280" />
            </Array>
            <mxPoint x="770" y="691" as="sourcePoint" />
            <mxPoint x="1654" y="905" as="targetPoint" />
          </mxGeometry>
        </mxCell>
        <mxCell id="JNVpyMmq69oR40ZpW95g-383" value="WorkTimeSchedule" style="shape=table;startSize=25;container=1;collapsible=0;childLayout=tableLayout;fixedRows=1;rowLines=1;fontStyle=1;align=center;resizeLast=1;fillColor=#dae8fc;strokeColor=#6c8ebf;" vertex="1" parent="1">
          <mxGeometry x="1385" y="1230" width="200" height="113" as="geometry" />
        </mxCell>
        <mxCell id="JNVpyMmq69oR40ZpW95g-384" style="shape=tableRow;horizontal=0;startSize=0;swimlaneHead=0;swimlaneBody=0;fillColor=none;collapsible=0;dropTarget=0;points=[[0,0.5],[1,0.5]];portConstraint=eastwest;top=0;left=0;right=0;bottom=0;" vertex="1" parent="JNVpyMmq69oR40ZpW95g-383">
          <mxGeometry y="25" width="200" height="22" as="geometry" />
        </mxCell>
        <mxCell id="JNVpyMmq69oR40ZpW95g-385" value="WorkTimeScheduleKind" style="shape=partialRectangle;connectable=0;fillColor=none;top=0;left=0;bottom=0;right=0;align=left;spacingLeft=2;overflow=hidden;fontSize=11;" vertex="1" parent="JNVpyMmq69oR40ZpW95g-384">
          <mxGeometry width="125" height="22" as="geometry">
            <mxRectangle width="125" height="22" as="alternateBounds" />
          </mxGeometry>
        </mxCell>
        <mxCell id="JNVpyMmq69oR40ZpW95g-386" value="kind" style="shape=partialRectangle;connectable=0;fillColor=none;top=0;left=0;bottom=0;right=0;align=left;spacingLeft=2;overflow=hidden;fontSize=11;" vertex="1" parent="JNVpyMmq69oR40ZpW95g-384">
          <mxGeometry x="125" width="75" height="22" as="geometry">
            <mxRectangle width="75" height="22" as="alternateBounds" />
          </mxGeometry>
        </mxCell>
        <mxCell id="JNVpyMmq69oR40ZpW95g-387" style="shape=tableRow;horizontal=0;startSize=0;swimlaneHead=0;swimlaneBody=0;fillColor=none;collapsible=0;dropTarget=0;points=[[0,0.5],[1,0.5]];portConstraint=eastwest;top=0;left=0;right=0;bottom=0;" vertex="1" parent="JNVpyMmq69oR40ZpW95g-383">
          <mxGeometry y="47" width="200" height="22" as="geometry" />
        </mxCell>
        <mxCell id="JNVpyMmq69oR40ZpW95g-388" value="string" style="shape=partialRectangle;connectable=0;fillColor=none;top=0;left=0;bottom=0;right=0;align=left;spacingLeft=2;overflow=hidden;fontSize=11;" vertex="1" parent="JNVpyMmq69oR40ZpW95g-387">
          <mxGeometry width="125" height="22" as="geometry">
            <mxRectangle width="125" height="22" as="alternateBounds" />
          </mxGeometry>
        </mxCell>
        <mxCell id="JNVpyMmq69oR40ZpW95g-389" value="type" style="shape=partialRectangle;connectable=0;fillColor=none;top=0;left=0;bottom=0;right=0;align=left;spacingLeft=2;overflow=hidden;fontSize=11;" vertex="1" parent="JNVpyMmq69oR40ZpW95g-387">
          <mxGeometry x="125" width="75" height="22" as="geometry">
            <mxRectangle width="75" height="22" as="alternateBounds" />
          </mxGeometry>
        </mxCell>
        <mxCell id="JNVpyMmq69oR40ZpW95g-390" style="shape=tableRow;horizontal=0;startSize=0;swimlaneHead=0;swimlaneBody=0;fillColor=none;collapsible=0;dropTarget=0;points=[[0,0.5],[1,0.5]];portConstraint=eastwest;top=0;left=0;right=0;bottom=0;" vertex="1" parent="JNVpyMmq69oR40ZpW95g-383">
          <mxGeometry y="69" width="200" height="22" as="geometry" />
        </mxCell>
        <mxCell id="JNVpyMmq69oR40ZpW95g-391" value="string" style="shape=partialRectangle;connectable=0;fillColor=none;top=0;left=0;bottom=0;right=0;align=left;spacingLeft=2;overflow=hidden;fontSize=11;" vertex="1" parent="JNVpyMmq69oR40ZpW95g-390">
          <mxGeometry width="125" height="22" as="geometry">
            <mxRectangle width="125" height="22" as="alternateBounds" />
          </mxGeometry>
        </mxCell>
        <mxCell id="JNVpyMmq69oR40ZpW95g-392" value="description" style="shape=partialRectangle;connectable=0;fillColor=none;top=0;left=0;bottom=0;right=0;align=left;spacingLeft=2;overflow=hidden;fontSize=11;" vertex="1" parent="JNVpyMmq69oR40ZpW95g-390">
          <mxGeometry x="125" width="75" height="22" as="geometry">
            <mxRectangle width="75" height="22" as="alternateBounds" />
          </mxGeometry>
        </mxCell>
        <mxCell id="JNVpyMmq69oR40ZpW95g-393" style="shape=tableRow;horizontal=0;startSize=0;swimlaneHead=0;swimlaneBody=0;fillColor=none;collapsible=0;dropTarget=0;points=[[0,0.5],[1,0.5]];portConstraint=eastwest;top=0;left=0;right=0;bottom=0;" vertex="1" parent="JNVpyMmq69oR40ZpW95g-383">
          <mxGeometry y="91" width="200" height="22" as="geometry" />
        </mxCell>
        <mxCell id="JNVpyMmq69oR40ZpW95g-394" value="string" style="shape=partialRectangle;connectable=0;fillColor=none;top=0;left=0;bottom=0;right=0;align=left;spacingLeft=2;overflow=hidden;fontSize=11;" vertex="1" parent="JNVpyMmq69oR40ZpW95g-393">
          <mxGeometry width="125" height="22" as="geometry">
            <mxRectangle width="125" height="22" as="alternateBounds" />
          </mxGeometry>
        </mxCell>
        <mxCell id="JNVpyMmq69oR40ZpW95g-395" value="m_rid" style="shape=partialRectangle;connectable=0;fillColor=none;top=0;left=0;bottom=0;right=0;align=left;spacingLeft=2;overflow=hidden;fontSize=11;" vertex="1" parent="JNVpyMmq69oR40ZpW95g-393">
          <mxGeometry x="125" width="75" height="22" as="geometry">
            <mxRectangle width="75" height="22" as="alternateBounds" />
          </mxGeometry>
        </mxCell>
      </root>
    </mxGraphModel>
  </diagram>
</mxfile>
